SplineFontDB: 3.0
FontName: TengwarEldamarGlaemscrafu
FullName: Tengwar Eldamar Glaemscrafu
FamilyName: Tengwar Eldamar Glaemscrafu
Weight: Book
Copyright: Copyright (c) 2006-2009 by Mans Bjo:rkman. All rights reserved.\nModified by Benjamin Babut for Glaemscrafu with the authorization of its author.
Version: 3.000
ItalicAngle: 0
UnderlinePosition: -113
UnderlineWidth: 20
Ascent: 800
Descent: 200
InvalidEm: 0
sfntRevision: 0x00030000
LayerCount: 2
Layer: 0 1 "Back" 1
Layer: 1 1 "Fore" 0
XUID: [1021 63 976991550 13675405]
FSType: 0
OS2Version: 3
OS2_WeightWidthSlopeOnly: 0
OS2_UseTypoMetrics: 1
CreationTime: 1144315769
ModificationTime: 1497192085
PfmFamily: 81
TTFWeight: 400
TTFWidth: 5
LineGap: 40
VLineGap: 0
Panose: 1 0 6 3 4 0 0 2 0 4
OS2TypoAscent: 845
OS2TypoAOffset: 0
OS2TypoDescent: -428
OS2TypoDOffset: 0
OS2TypoLinegap: 40
OS2WinAscent: 1083
OS2WinAOffset: 0
OS2WinDescent: 702
OS2WinDOffset: 0
HheadAscent: 845
HheadAOffset: 0
HheadDescent: -428
HheadDOffset: 0
OS2SubXSize: 700
OS2SubYSize: 650
OS2SubXOff: 0
OS2SubYOff: 140
OS2SupXSize: 700
OS2SupYSize: 650
OS2SupXOff: 0
OS2SupYOff: 477
OS2StrikeYSize: 50
OS2StrikeYPos: 250
OS2Vendor: '    '
OS2CodePages: 00000001.00000000
OS2UnicodeRanges: 8000002f.1000000a.00000000.00000000
MarkAttachClasses: 1
DEI: 91125
TtTable: prep
PUSHW_1
 0
CALL
SVTCA[y-axis]
PUSHW_3
 1
 6
 2
CALL
SVTCA[x-axis]
PUSHW_3
 7
 6
 2
CALL
SVTCA[x-axis]
PUSHW_8
 7
 70
 60
 47
 28
 19
 0
 8
CALL
PUSHW_8
 8
 55
 47
 36
 28
 19
 0
 8
CALL
PUSHW_8
 9
 68
 60
 47
 28
 19
 0
 8
CALL
PUSHW_8
 10
 77
 60
 47
 38
 19
 0
 8
CALL
PUSHW_8
 11
 55
 47
 36
 28
 19
 0
 8
CALL
PUSHW_8
 12
 54
 47
 36
 28
 19
 0
 8
CALL
SVTCA[y-axis]
PUSHW_8
 1
 79
 60
 47
 38
 19
 0
 8
CALL
PUSHW_8
 2
 97
 77
 61
 38
 26
 0
 8
CALL
PUSHW_8
 3
 77
 60
 47
 38
 19
 0
 8
CALL
PUSHW_8
 4
 92
 77
 61
 38
 26
 0
 8
CALL
PUSHW_8
 5
 71
 60
 47
 28
 19
 0
 8
CALL
PUSHW_8
 6
 62
 47
 36
 28
 19
 0
 8
CALL
SVTCA[y-axis]
PUSHW_3
 13
 2
 7
CALL
PUSHW_1
 0
DUP
RCVT
RDTG
ROUND[Black]

StartChar: quotedbl
Encoding: 34 34 1
Width: 0
Flags: W
LayerCount: 2
Fore
SplineSet
-92 -45 m 1,0,1
 -97 -60 -97 -60 -116.5 -75 c 128,-1,2
 -136 -90 -136 -90 -157 -103 c 0,3,4
 -182 -118 -182 -118 -212 -131 c 1,5,-1
 -701 -131 l 2,6,7
 -752 -131 -752 -131 -792 -134.5 c 128,-1,8
 -832 -138 -832 -138 -849 -143 c 1,9,10
 -844 -129 -844 -129 -824.5 -113.5 c 128,-1,11
 -805 -98 -805 -98 -784 -85 c 0,12,13
 -759 -70 -759 -70 -729 -57 c 1,14,-1
 -240 -57 l 2,15,16
 -189 -57 -189 -57 -149 -53.5 c 128,-1,17
 -109 -50 -109 -50 -92 -45 c 1,0,1
EndSplineSet
Validated: 1
EndChar

StartChar: numbersign
Encoding: 35 35 2
Width: 0
Flags: W
LayerCount: 2
Fore
SplineSet
-439 720 m 1,0,-1
 -498 782 l 1,1,-1
 -444 839 l 1,2,-1
 -384 776 l 1,3,-1
 -439 720 l 1,0,-1
-345 595 m 1,4,-1
 -406 657 l 1,5,-1
 -351 713 l 1,6,-1
 -291 651 l 1,7,-1
 -345 595 l 1,4,-1
-529 595 m 1,8,-1
 -589 657 l 1,9,-1
 -535 713 l 1,10,-1
 -474 651 l 1,11,-1
 -529 595 l 1,8,-1
EndSplineSet
Validated: 1
EndChar

StartChar: dollar
Encoding: 36 36 3
Width: 0
Flags: W
LayerCount: 2
Fore
SplineSet
-95 958 m 1,0,1
 -95 945 -95 945 -113 920.5 c 128,-1,2
 -131 896 -131 896 -160 865.5 c 128,-1,3
 -189 835 -189 835 -226.5 800.5 c 128,-1,4
 -264 766 -264 766 -303.5 731.5 c 128,-1,5
 -343 697 -343 697 -381 665.5 c 128,-1,6
 -419 634 -419 634 -449.5 609.5 c 128,-1,7
 -480 585 -480 585 -499 570 c 128,-1,8
 -518 555 -518 555 -520 554 c 0,9,10
 -524 552 -524 552 -526 557 c 128,-1,11
 -528 562 -528 562 -523 567 c 0,12,13
 -521 569 -521 569 -497.5 590.5 c 128,-1,14
 -474 612 -474 612 -440 644 c 128,-1,15
 -406 676 -406 676 -366.5 714 c 128,-1,16
 -327 752 -327 752 -293.5 788.5 c 128,-1,17
 -260 825 -260 825 -238 855 c 128,-1,18
 -216 885 -216 885 -216 900 c 1,19,-1
 -95 958 l 1,0,1
EndSplineSet
Validated: 1
EndChar

StartChar: percent
Encoding: 37 37 4
Width: 0
Flags: W
LayerCount: 2
Fore
SplineSet
-477 634 m 1,0,-1
 -545 702 l 1,1,-1
 -483 765 l 1,2,-1
 -415 696 l 1,3,-1
 -477 634 l 1,0,-1
EndSplineSet
Validated: 1
EndChar

StartChar: ampersand
Encoding: 38 38 5
Width: 0
Flags: W
LayerCount: 2
Fore
SplineSet
-185 958 m 0,0,1
 -185 884 -185 884 -218 821 c 128,-1,2
 -251 758 -251 758 -302 707 c 0,3,4
 -319 690 -319 690 -352 664 c 128,-1,5
 -385 638 -385 638 -422.5 613.5 c 128,-1,6
 -460 589 -460 589 -497 571.5 c 128,-1,7
 -534 554 -534 554 -560 554 c 0,8,9
 -568 554 -568 554 -568 561 c 0,10,11
 -568 565 -568 565 -563 567 c 0,12,13
 -501 585 -501 585 -445 616 c 128,-1,14
 -389 647 -389 647 -347 689 c 128,-1,15
 -305 731 -305 731 -280.5 784 c 128,-1,16
 -256 837 -256 837 -256 900 c 0,17,18
 -256 935 -256 935 -274 957 c 128,-1,19
 -292 979 -292 979 -313 993 c 0,20,21
 -338 1009 -338 1009 -369 1017 c 1,22,23
 -350 1035 -350 1035 -330 1050 c 0,24,25
 -313 1062 -313 1062 -291.5 1072.5 c 128,-1,26
 -270 1083 -270 1083 -250 1083 c 0,27,28
 -244 1083 -244 1083 -233.5 1076.5 c 128,-1,29
 -223 1070 -223 1070 -212 1055 c 128,-1,30
 -201 1040 -201 1040 -193 1016 c 128,-1,31
 -185 992 -185 992 -185 958 c 0,0,1
EndSplineSet
Validated: 1
EndChar

StartChar: quotesingle
Encoding: 39 39 6
Width: 0
Flags: W
LayerCount: 2
Fore
SplineSet
-31 -48 m 1,0,1
 -36 -63 -36 -63 -55.5 -78 c 128,-1,2
 -75 -93 -75 -93 -96 -106 c 0,3,4
 -121 -121 -121 -121 -151 -134 c 1,5,-1
 -410 -134 l 2,6,7
 -461 -134 -461 -134 -501 -137.5 c 128,-1,8
 -541 -141 -541 -141 -558 -146 c 1,9,10
 -553 -132 -553 -132 -533.5 -116.5 c 128,-1,11
 -514 -101 -514 -101 -493 -88 c 0,12,13
 -468 -73 -468 -73 -438 -60 c 1,14,-1
 -179 -60 l 2,15,16
 -128 -60 -128 -60 -88 -56.5 c 128,-1,17
 -48 -53 -48 -53 -31 -48 c 1,0,1
EndSplineSet
Validated: 1
EndChar

StartChar: parenleft
Encoding: 40 40 7
Width: 0
Flags: W
LayerCount: 2
Fore
SplineSet
-477 -331 m 1,0,-1
 -545 -262 l 1,1,-1
 -483 -200 l 1,2,-1
 -415 -269 l 1,3,-1
 -477 -331 l 1,0,-1
EndSplineSet
Validated: 1
EndChar

StartChar: parenright
Encoding: 41 41 8
Width: 0
Flags: W
LayerCount: 2
Fore
SplineSet
-104 946 m 1,0,1
 -151 893 -151 893 -217 873 c 128,-1,2
 -283 853 -283 853 -353 853 c 0,3,4
 -376 853 -376 853 -408.5 856.5 c 128,-1,5
 -441 860 -441 860 -478 865.5 c 128,-1,6
 -515 871 -515 871 -554 877.5 c 128,-1,7
 -593 884 -593 884 -630 889.5 c 128,-1,8
 -667 895 -667 895 -699 898.5 c 128,-1,9
 -731 902 -731 902 -754 902 c 0,10,11
 -762 902 -762 902 -772 900 c 128,-1,12
 -782 898 -782 898 -793 895.5 c 128,-1,13
 -804 893 -804 893 -814.5 890 c 128,-1,14
 -825 887 -825 887 -832 885 c 1,15,16
 -810 907 -810 907 -783 921 c 128,-1,17
 -756 935 -756 935 -726.5 943 c 128,-1,18
 -697 951 -697 951 -665.5 954 c 128,-1,19
 -634 957 -634 957 -603 957 c 256,20,21
 -572 957 -572 957 -520.5 951 c 128,-1,22
 -469 945 -469 945 -414 938 c 128,-1,23
 -359 931 -359 931 -307.5 925 c 128,-1,24
 -256 919 -256 919 -224 919 c 0,25,26
 -211 919 -211 919 -195.5 921.5 c 128,-1,27
 -180 924 -180 924 -163.5 928 c 128,-1,28
 -147 932 -147 932 -131.5 936.5 c 128,-1,29
 -116 941 -116 941 -104 946 c 1,0,1
EndSplineSet
Validated: 1
EndChar

StartChar: zero
Encoding: 48 48 9
Width: 0
Flags: W
LayerCount: 2
Fore
SplineSet
-31 936 m 1,0,1
 -54 910 -54 910 -78 893.5 c 128,-1,2
 -102 877 -102 877 -128.5 868 c 128,-1,3
 -155 859 -155 859 -185 856 c 128,-1,4
 -215 853 -215 853 -250 853 c 0,5,6
 -289 853 -289 853 -315.5 861 c 128,-1,7
 -342 869 -342 869 -367 878 c 128,-1,8
 -392 887 -392 887 -420.5 895 c 128,-1,9
 -449 903 -449 903 -491 903 c 0,10,11
 -506 903 -506 903 -525.5 901.5 c 128,-1,12
 -545 900 -545 900 -559 895 c 1,13,14
 -537 917 -537 917 -514 929.5 c 128,-1,15
 -491 942 -491 942 -466.5 948.5 c 128,-1,16
 -442 955 -442 955 -416 956.5 c 128,-1,17
 -390 958 -390 958 -363 958 c 0,18,19
 -335 958 -335 958 -309 952 c 128,-1,20
 -283 946 -283 946 -256 939 c 128,-1,21
 -229 932 -229 932 -201 926 c 128,-1,22
 -173 920 -173 920 -141 920 c 0,23,24
 -115 920 -115 920 -85 923.5 c 128,-1,25
 -55 927 -55 927 -31 936 c 1,0,1
EndSplineSet
Validated: 1
EndChar

StartChar: one
Encoding: 49 49 10
Width: 576
Flags: W
LayerCount: 2
Fore
SplineSet
537 289 m 0,0,1
 537 265 537 265 526.5 233.5 c 128,-1,2
 516 202 516 202 497.5 169 c 128,-1,3
 479 136 479 136 455 103.5 c 128,-1,4
 431 71 431 71 404 46 c 128,-1,5
 377 21 377 21 349 5.5 c 128,-1,6
 321 -10 321 -10 295 -10 c 0,7,8
 287 -10 287 -10 277 -3 c 128,-1,9
 267 4 267 4 258 12 c 0,10,11
 247 22 247 22 236 34 c 1,12,-1
 293 99 l 1,13,14
 310 86 310 86 329 77 c 128,-1,15
 348 68 348 68 369 68 c 256,16,17
 390 68 390 68 407.5 79 c 128,-1,18
 425 90 425 90 437 106.5 c 128,-1,19
 449 123 449 123 456 143.5 c 128,-1,20
 463 164 463 164 463 182 c 0,21,22
 463 213 463 213 451 245.5 c 128,-1,23
 439 278 439 278 418 305 c 128,-1,24
 397 332 397 332 368 349 c 128,-1,25
 339 366 339 366 305 366 c 0,26,27
 285 366 285 366 264 357.5 c 128,-1,28
 243 349 243 349 222.5 336.5 c 128,-1,29
 202 324 202 324 184 309 c 128,-1,30
 166 294 166 294 152 281 c 1,31,-1
 152 -312 l 1,32,33
 127 -333 127 -333 95.5 -355 c 128,-1,34
 64 -377 64 -377 35 -388 c 1,35,36
 40 -366 40 -366 43 -317 c 128,-1,37
 46 -268 46 -268 47.5 -204 c 128,-1,38
 49 -140 49 -140 49.5 -66.5 c 128,-1,39
 50 7 50 7 50 78 c 2,40,-1
 50 280 l 2,41,42
 50 310 50 310 39 332 c 128,-1,43
 28 354 28 354 0 365 c 1,44,45
 15 378 15 378 33 393 c 128,-1,46
 51 408 51 408 71 420.5 c 128,-1,47
 91 433 91 433 111.5 442.5 c 128,-1,48
 132 452 132 452 152 455 c 1,49,-1
 152 312 l 1,50,51
 178 338 178 338 202.5 361 c 128,-1,52
 227 384 227 384 254 401 c 128,-1,53
 281 418 281 418 312 427.5 c 128,-1,54
 343 437 343 437 383 437 c 0,55,56
 410 437 410 437 437.5 424.5 c 128,-1,57
 465 412 465 412 487 391 c 128,-1,58
 509 370 509 370 523 343.5 c 128,-1,59
 537 317 537 317 537 289 c 0,0,1
EndSplineSet
Validated: 1
EndChar

StartChar: two
Encoding: 50 50 11
Width: 915
Flags: W
LayerCount: 2
Fore
SplineSet
876 289 m 0,0,1
 876 265 876 265 865.5 233.5 c 128,-1,2
 855 202 855 202 837.5 169 c 128,-1,3
 820 136 820 136 796.5 104 c 128,-1,4
 773 72 773 72 746.5 46.5 c 128,-1,5
 720 21 720 21 692.5 5.5 c 128,-1,6
 665 -10 665 -10 639 -10 c 0,7,8
 631 -10 631 -10 621.5 -3 c 128,-1,9
 612 4 612 4 603 12 c 0,10,11
 592 22 592 22 581 34 c 1,12,-1
 637 98 l 1,13,14
 654 86 654 86 672.5 77 c 128,-1,15
 691 68 691 68 712 68 c 256,16,17
 733 68 733 68 750 79 c 128,-1,18
 767 90 767 90 779 107 c 128,-1,19
 791 124 791 124 797.5 144 c 128,-1,20
 804 164 804 164 804 182 c 0,21,22
 804 212 804 212 792.5 244.5 c 128,-1,23
 781 277 781 277 760 304 c 128,-1,24
 739 331 739 331 710.5 348.5 c 128,-1,25
 682 366 682 366 649 366 c 0,26,27
 637 366 637 366 616.5 359.5 c 128,-1,28
 596 353 596 353 576.5 342.5 c 128,-1,29
 557 332 557 332 542.5 318.5 c 128,-1,30
 528 305 528 305 528 291 c 0,31,32
 528 267 528 267 518 235.5 c 128,-1,33
 508 204 508 204 490.5 170.5 c 128,-1,34
 473 137 473 137 449.5 104.5 c 128,-1,35
 426 72 426 72 400 46.5 c 128,-1,36
 374 21 374 21 346 5.5 c 128,-1,37
 318 -10 318 -10 292 -10 c 0,38,39
 284 -10 284 -10 274.5 -3 c 128,-1,40
 265 4 265 4 256 12 c 0,41,42
 245 22 245 22 234 34 c 1,43,-1
 290 98 l 1,44,45
 307 86 307 86 325.5 77 c 128,-1,46
 344 68 344 68 364 68 c 0,47,48
 385 68 385 68 402 79 c 128,-1,49
 419 90 419 90 431 107 c 128,-1,50
 443 124 443 124 449.5 144 c 128,-1,51
 456 164 456 164 456 182 c 0,52,53
 456 212 456 212 444.5 244.5 c 128,-1,54
 433 277 433 277 412.5 304 c 128,-1,55
 392 331 392 331 364 348.5 c 128,-1,56
 336 366 336 366 302 366 c 0,57,58
 282 366 282 366 261.5 357.5 c 128,-1,59
 241 349 241 349 221 336 c 128,-1,60
 201 323 201 323 183.5 308.5 c 128,-1,61
 166 294 166 294 152 281 c 1,62,-1
 152 -312 l 1,63,64
 127 -333 127 -333 95.5 -355 c 128,-1,65
 64 -377 64 -377 35 -388 c 1,66,67
 40 -366 40 -366 43 -317 c 128,-1,68
 46 -268 46 -268 47.5 -204 c 128,-1,69
 49 -140 49 -140 49.5 -66.5 c 128,-1,70
 50 7 50 7 50 78 c 2,71,-1
 50 280 l 2,72,73
 50 310 50 310 39 332 c 128,-1,74
 28 354 28 354 0 365 c 1,75,76
 15 378 15 378 33 393 c 128,-1,77
 51 408 51 408 71 420.5 c 128,-1,78
 91 433 91 433 111.5 442.5 c 128,-1,79
 132 452 132 452 152 455 c 1,80,-1
 152 312 l 1,81,82
 177 338 177 338 201 361 c 128,-1,83
 225 384 225 384 251 401 c 128,-1,84
 277 418 277 418 308 427.5 c 128,-1,85
 339 437 339 437 378 437 c 0,86,87
 401 437 401 437 422 428 c 128,-1,88
 443 419 443 419 461 405 c 128,-1,89
 479 391 479 391 494 372.5 c 128,-1,90
 509 354 509 354 520 335 c 1,91,92
 544 358 544 358 566 377 c 128,-1,93
 588 396 588 396 611.5 409.5 c 128,-1,94
 635 423 635 423 662.5 430 c 128,-1,95
 690 437 690 437 725 437 c 0,96,97
 753 437 753 437 780 424.5 c 128,-1,98
 807 412 807 412 828.5 391 c 128,-1,99
 850 370 850 370 863 343.5 c 128,-1,100
 876 317 876 317 876 289 c 0,0,1
EndSplineSet
Validated: 1
EndChar

StartChar: three
Encoding: 51 51 12
Width: 576
Flags: W
LayerCount: 2
Fore
SplineSet
537 289 m 0,0,1
 537 265 537 265 526.5 233.5 c 128,-1,2
 516 202 516 202 497.5 169 c 128,-1,3
 479 136 479 136 455 103.5 c 128,-1,4
 431 71 431 71 404 46 c 128,-1,5
 377 21 377 21 349 5.5 c 128,-1,6
 321 -10 321 -10 295 -10 c 0,7,8
 287 -10 287 -10 277 -3 c 128,-1,9
 267 4 267 4 258 12 c 0,10,11
 247 22 247 22 236 34 c 1,12,-1
 293 99 l 1,13,14
 310 86 310 86 329 77 c 128,-1,15
 348 68 348 68 369 68 c 256,16,17
 390 68 390 68 407.5 79 c 128,-1,18
 425 90 425 90 437 106.5 c 128,-1,19
 449 123 449 123 456 143.5 c 128,-1,20
 463 164 463 164 463 182 c 0,21,22
 463 213 463 213 451 245.5 c 128,-1,23
 439 278 439 278 418 305 c 128,-1,24
 397 332 397 332 368 349 c 128,-1,25
 339 366 339 366 305 366 c 0,26,27
 285 366 285 366 264 357.5 c 128,-1,28
 243 349 243 349 222.5 336.5 c 128,-1,29
 202 324 202 324 184 309 c 128,-1,30
 166 294 166 294 152 281 c 1,31,-1
 152 58 l 1,32,33
 127 37 127 37 95.5 15 c 128,-1,34
 64 -7 64 -7 35 -18 c 1,35,36
 40 4 40 4 43 54.5 c 128,-1,37
 46 105 46 105 47.5 171.5 c 128,-1,38
 49 238 49 238 49.5 314.5 c 128,-1,39
 50 391 50 391 50 464 c 2,40,-1
 50 670 l 2,41,42
 50 700 50 700 39 722 c 128,-1,43
 28 744 28 744 0 755 c 1,44,45
 15 768 15 768 33 783 c 128,-1,46
 51 798 51 798 71 810.5 c 128,-1,47
 91 823 91 823 111.5 832.5 c 128,-1,48
 132 842 132 842 152 845 c 1,49,-1
 152 312 l 1,50,51
 178 338 178 338 202.5 361 c 128,-1,52
 227 384 227 384 254 401 c 128,-1,53
 281 418 281 418 312 427.5 c 128,-1,54
 343 437 343 437 383 437 c 0,55,56
 410 437 410 437 437.5 424.5 c 128,-1,57
 465 412 465 412 487 391 c 128,-1,58
 509 370 509 370 523 343.5 c 128,-1,59
 537 317 537 317 537 289 c 0,0,1
EndSplineSet
Validated: 1
EndChar

StartChar: four
Encoding: 52 52 13
Width: 915
Flags: W
LayerCount: 2
Fore
SplineSet
876 289 m 0,0,1
 876 265 876 265 865.5 233.5 c 128,-1,2
 855 202 855 202 837.5 169 c 128,-1,3
 820 136 820 136 796.5 104 c 128,-1,4
 773 72 773 72 746.5 46.5 c 128,-1,5
 720 21 720 21 692.5 5.5 c 128,-1,6
 665 -10 665 -10 639 -10 c 0,7,8
 631 -10 631 -10 621.5 -3 c 128,-1,9
 612 4 612 4 603 12 c 0,10,11
 592 22 592 22 581 34 c 1,12,-1
 637 98 l 1,13,14
 654 86 654 86 672.5 77 c 128,-1,15
 691 68 691 68 712 68 c 256,16,17
 733 68 733 68 750 79 c 128,-1,18
 767 90 767 90 779 107 c 128,-1,19
 791 124 791 124 797.5 144 c 128,-1,20
 804 164 804 164 804 182 c 0,21,22
 804 212 804 212 792.5 244.5 c 128,-1,23
 781 277 781 277 760 304 c 128,-1,24
 739 331 739 331 710.5 348.5 c 128,-1,25
 682 366 682 366 649 366 c 0,26,27
 637 366 637 366 616.5 359.5 c 128,-1,28
 596 353 596 353 576.5 342.5 c 128,-1,29
 557 332 557 332 542.5 318.5 c 128,-1,30
 528 305 528 305 528 291 c 0,31,32
 528 267 528 267 518 235.5 c 128,-1,33
 508 204 508 204 490.5 170.5 c 128,-1,34
 473 137 473 137 449.5 104.5 c 128,-1,35
 426 72 426 72 400 46.5 c 128,-1,36
 374 21 374 21 346 5.5 c 128,-1,37
 318 -10 318 -10 292 -10 c 0,38,39
 284 -10 284 -10 274.5 -3 c 128,-1,40
 265 4 265 4 256 12 c 0,41,42
 245 22 245 22 234 34 c 1,43,-1
 290 98 l 1,44,45
 307 86 307 86 325.5 77 c 128,-1,46
 344 68 344 68 364 68 c 0,47,48
 385 68 385 68 402 79 c 128,-1,49
 419 90 419 90 431 107 c 128,-1,50
 443 124 443 124 449.5 144 c 128,-1,51
 456 164 456 164 456 182 c 0,52,53
 456 212 456 212 444.5 244.5 c 128,-1,54
 433 277 433 277 412.5 304 c 128,-1,55
 392 331 392 331 364 348.5 c 128,-1,56
 336 366 336 366 302 366 c 0,57,58
 282 366 282 366 261.5 357.5 c 128,-1,59
 241 349 241 349 221 336 c 128,-1,60
 201 323 201 323 183.5 308.5 c 128,-1,61
 166 294 166 294 152 281 c 1,62,-1
 152 58 l 1,63,64
 127 37 127 37 95.5 15 c 128,-1,65
 64 -7 64 -7 35 -18 c 1,66,67
 40 4 40 4 43 54.5 c 128,-1,68
 46 105 46 105 47.5 171.5 c 128,-1,69
 49 238 49 238 49.5 314.5 c 128,-1,70
 50 391 50 391 50 464 c 2,71,-1
 50 670 l 2,72,73
 50 700 50 700 39 722 c 128,-1,74
 28 744 28 744 0 755 c 1,75,76
 15 768 15 768 33 783 c 128,-1,77
 51 798 51 798 71 810.5 c 128,-1,78
 91 823 91 823 111.5 832.5 c 128,-1,79
 132 842 132 842 152 845 c 1,80,-1
 152 312 l 1,81,82
 177 338 177 338 201 361 c 128,-1,83
 225 384 225 384 251 401 c 128,-1,84
 277 418 277 418 308 427.5 c 128,-1,85
 339 437 339 437 378 437 c 0,86,87
 401 437 401 437 422 428 c 128,-1,88
 443 419 443 419 461 405 c 128,-1,89
 479 391 479 391 494 372.5 c 128,-1,90
 509 354 509 354 520 335 c 1,91,92
 544 358 544 358 566 377 c 128,-1,93
 588 396 588 396 611.5 409.5 c 128,-1,94
 635 423 635 423 662.5 430 c 128,-1,95
 690 437 690 437 725 437 c 0,96,97
 753 437 753 437 780 424.5 c 128,-1,98
 807 412 807 412 828.5 391 c 128,-1,99
 850 370 850 370 863 343.5 c 128,-1,100
 876 317 876 317 876 289 c 0,0,1
EndSplineSet
Validated: 1
EndChar

StartChar: five
Encoding: 53 53 14
Width: 923
Flags: W
LayerCount: 2
Fore
SplineSet
876 289 m 0,0,1
 876 265 876 265 865.5 233.5 c 128,-1,2
 855 202 855 202 837.5 169 c 128,-1,3
 820 136 820 136 796.5 104 c 128,-1,4
 773 72 773 72 746.5 46.5 c 128,-1,5
 720 21 720 21 692.5 5.5 c 128,-1,6
 665 -10 665 -10 639 -10 c 0,7,8
 631 -10 631 -10 621.5 -3 c 128,-1,9
 612 4 612 4 603 12 c 0,10,11
 592 22 592 22 581 34 c 1,12,-1
 637 98 l 1,13,14
 654 86 654 86 672.5 77 c 128,-1,15
 691 68 691 68 712 68 c 256,16,17
 733 68 733 68 750 79 c 128,-1,18
 767 90 767 90 779 107 c 128,-1,19
 791 124 791 124 797.5 144 c 128,-1,20
 804 164 804 164 804 182 c 0,21,22
 804 212 804 212 792.5 244.5 c 128,-1,23
 781 277 781 277 760 304 c 128,-1,24
 739 331 739 331 710.5 348.5 c 128,-1,25
 682 366 682 366 649 366 c 0,26,27
 637 366 637 366 616.5 359.5 c 128,-1,28
 596 353 596 353 576.5 342.5 c 128,-1,29
 557 332 557 332 542.5 318.5 c 128,-1,30
 528 305 528 305 528 291 c 0,31,32
 528 267 528 267 518 235.5 c 128,-1,33
 508 204 508 204 490.5 170.5 c 128,-1,34
 473 137 473 137 449.5 104.5 c 128,-1,35
 426 72 426 72 400 46.5 c 128,-1,36
 374 21 374 21 346 5.5 c 128,-1,37
 318 -10 318 -10 292 -10 c 0,38,39
 284 -10 284 -10 274.5 -3 c 128,-1,40
 265 4 265 4 256 12 c 0,41,42
 245 22 245 22 234 34 c 1,43,-1
 290 98 l 1,44,45
 307 86 307 86 325.5 77 c 128,-1,46
 344 68 344 68 364 68 c 0,47,48
 385 68 385 68 402 79 c 128,-1,49
 419 90 419 90 431 107 c 128,-1,50
 443 124 443 124 449.5 144 c 128,-1,51
 456 164 456 164 456 182 c 0,52,53
 456 212 456 212 444.5 244.5 c 128,-1,54
 433 277 433 277 412.5 304 c 128,-1,55
 392 331 392 331 364 348.5 c 128,-1,56
 336 366 336 366 302 366 c 0,57,58
 282 366 282 366 261.5 357.5 c 128,-1,59
 241 349 241 349 221 336 c 128,-1,60
 201 323 201 323 183.5 308.5 c 128,-1,61
 166 294 166 294 152 281 c 1,62,-1
 152 58 l 1,63,64
 127 37 127 37 95.5 15 c 128,-1,65
 64 -7 64 -7 35 -18 c 1,66,67
 40 4 40 4 43 22 c 128,-1,68
 46 40 46 40 47.5 58.5 c 128,-1,69
 49 77 49 77 49.5 99.5 c 128,-1,70
 50 122 50 122 50 152 c 2,71,-1
 50 280 l 2,72,73
 50 310 50 310 39 332 c 128,-1,74
 28 354 28 354 0 365 c 1,75,76
 15 378 15 378 33 393 c 128,-1,77
 51 408 51 408 71 420.5 c 128,-1,78
 91 433 91 433 111.5 442.5 c 128,-1,79
 132 452 132 452 152 455 c 1,80,-1
 152 312 l 1,81,82
 177 338 177 338 201 361 c 128,-1,83
 225 384 225 384 251 401 c 128,-1,84
 277 418 277 418 308 427.5 c 128,-1,85
 339 437 339 437 378 437 c 0,86,87
 401 437 401 437 422 428 c 128,-1,88
 443 419 443 419 461 405 c 128,-1,89
 479 391 479 391 494 372.5 c 128,-1,90
 509 354 509 354 520 335 c 1,91,92
 544 358 544 358 566 377 c 128,-1,93
 588 396 588 396 611.5 409.5 c 128,-1,94
 635 423 635 423 662.5 430 c 128,-1,95
 690 437 690 437 725 437 c 0,96,97
 753 437 753 437 780 424.5 c 128,-1,98
 807 412 807 412 828.5 391 c 128,-1,99
 850 370 850 370 863 343.5 c 128,-1,100
 876 317 876 317 876 289 c 0,0,1
EndSplineSet
Validated: 1
EndChar

StartChar: six
Encoding: 54 54 15
Width: 583
Flags: W
LayerCount: 2
Fore
SplineSet
537 289 m 0,0,1
 537 265 537 265 526.5 233.5 c 128,-1,2
 516 202 516 202 497.5 169 c 128,-1,3
 479 136 479 136 455 103.5 c 128,-1,4
 431 71 431 71 404 46 c 128,-1,5
 377 21 377 21 349 5.5 c 128,-1,6
 321 -10 321 -10 295 -10 c 0,7,8
 287 -10 287 -10 277 -3 c 128,-1,9
 267 4 267 4 258 12 c 0,10,11
 247 22 247 22 236 34 c 1,12,-1
 293 99 l 1,13,14
 310 86 310 86 329 77 c 128,-1,15
 348 68 348 68 369 68 c 256,16,17
 390 68 390 68 407.5 79 c 128,-1,18
 425 90 425 90 437 106.5 c 128,-1,19
 449 123 449 123 456 143.5 c 128,-1,20
 463 164 463 164 463 182 c 0,21,22
 463 213 463 213 451 245.5 c 128,-1,23
 439 278 439 278 418 305 c 128,-1,24
 397 332 397 332 368 349 c 128,-1,25
 339 366 339 366 305 366 c 0,26,27
 285 366 285 366 264 357.5 c 128,-1,28
 243 349 243 349 222.5 336.5 c 128,-1,29
 202 324 202 324 184 309 c 128,-1,30
 166 294 166 294 152 281 c 1,31,-1
 152 58 l 1,32,33
 127 37 127 37 95.5 15 c 128,-1,34
 64 -7 64 -7 35 -18 c 1,35,36
 40 4 40 4 43 22 c 128,-1,37
 46 40 46 40 47.5 58.5 c 128,-1,38
 49 77 49 77 49.5 99.5 c 128,-1,39
 50 122 50 122 50 152 c 2,40,-1
 50 280 l 2,41,42
 50 310 50 310 39 332 c 128,-1,43
 28 354 28 354 0 365 c 1,44,45
 15 378 15 378 33 393 c 128,-1,46
 51 408 51 408 71 420.5 c 128,-1,47
 91 433 91 433 111.5 442.5 c 128,-1,48
 132 452 132 452 152 455 c 1,49,-1
 152 312 l 1,50,51
 178 338 178 338 202.5 361 c 128,-1,52
 227 384 227 384 254 401 c 128,-1,53
 281 418 281 418 312 427.5 c 128,-1,54
 343 437 343 437 383 437 c 0,55,56
 410 437 410 437 437.5 424.5 c 128,-1,57
 465 412 465 412 487 391 c 128,-1,58
 509 370 509 370 523 343.5 c 128,-1,59
 537 317 537 317 537 289 c 0,0,1
EndSplineSet
Validated: 1
EndChar

StartChar: eight
Encoding: 56 56 16
Width: 480
Flags: W
LayerCount: 2
Fore
SplineSet
146 365 m 2,0,1
 132 352 132 352 118.5 334 c 128,-1,2
 105 316 105 316 94.5 295.5 c 128,-1,3
 84 275 84 275 77.5 253.5 c 128,-1,4
 71 232 71 232 71 212 c 0,5,6
 71 178 71 178 88 149 c 128,-1,7
 105 120 105 120 132 99 c 128,-1,8
 159 78 159 78 191.5 66 c 128,-1,9
 224 54 224 54 255 54 c 0,10,11
 273 54 273 54 293.5 61 c 128,-1,12
 314 68 314 68 330.5 80 c 128,-1,13
 347 92 347 92 358 109.5 c 128,-1,14
 369 127 369 127 369 148 c 256,15,16
 369 169 369 169 360 188 c 128,-1,17
 351 207 351 207 338 224 c 1,18,-1
 403 281 l 1,19,20
 415 270 415 270 425 259 c 0,21,22
 433 250 433 250 440 240 c 128,-1,23
 447 230 447 230 447 222 c 0,24,25
 447 196 447 196 431.5 168 c 128,-1,26
 416 140 416 140 391 113 c 128,-1,27
 366 86 366 86 333.5 62 c 128,-1,28
 301 38 301 38 268 19.5 c 128,-1,29
 235 1 235 1 203.5 -9.5 c 128,-1,30
 172 -20 172 -20 148 -20 c 0,31,32
 120 -20 120 -20 93.5 -6 c 128,-1,33
 67 8 67 8 46 30 c 128,-1,34
 25 52 25 52 12.5 79.5 c 128,-1,35
 0 107 0 107 0 134 c 0,36,37
 0 174 0 174 8 204.5 c 128,-1,38
 16 235 16 235 30.5 261.5 c 128,-1,39
 45 288 45 288 65.5 313 c 128,-1,40
 86 338 86 338 111 365 c 2,41,-1
 391 669 l 2,42,43
 402 681 402 681 410 695.5 c 128,-1,44
 418 710 418 710 418 727 c 0,45,46
 418 737 418 737 414 748.5 c 128,-1,47
 410 760 410 760 404 771 c 128,-1,48
 398 782 398 782 390.5 792.5 c 128,-1,49
 383 803 383 803 377 811 c 1,50,-1
 453 848 l 1,51,52
 458 845 458 845 466 838 c 128,-1,53
 474 831 474 831 481 822.5 c 128,-1,54
 488 814 488 814 493 805 c 128,-1,55
 498 796 498 796 498 789 c 0,56,57
 498 772 498 772 489.5 755.5 c 128,-1,58
 481 739 481 739 467.5 722.5 c 128,-1,59
 454 706 454 706 437 689 c 128,-1,60
 420 672 420 672 404 653 c 2,61,-1
 146 365 l 2,0,1
EndSplineSet
Validated: 1
EndChar

StartChar: nine
Encoding: 57 57 17
Width: 713
Flags: W
LayerCount: 2
Fore
SplineSet
710 44 m 0,0,1
 715 44 715 44 707.5 35.5 c 128,-1,2
 700 27 700 27 683.5 17 c 128,-1,3
 667 7 667 7 642.5 -1.5 c 128,-1,4
 618 -10 618 -10 590 -10 c 0,5,6
 555 -10 555 -10 519.5 26 c 128,-1,7
 484 62 484 62 452 114.5 c 128,-1,8
 420 167 420 167 394 227 c 128,-1,9
 368 287 368 287 352 335 c 1,10,-1
 209 88 l 2,11,12
 195 65 195 65 177 46.5 c 128,-1,13
 159 28 159 28 139.5 15.5 c 128,-1,14
 120 3 120 3 99.5 -3.5 c 128,-1,15
 79 -10 79 -10 61 -10 c 0,16,17
 53 -10 53 -10 43 -3 c 128,-1,18
 33 4 33 4 23 12 c 0,19,20
 12 22 12 22 0 34 c 1,21,-1
 59 99 l 1,22,23
 76 86 76 86 95 77 c 128,-1,24
 114 68 114 68 135 68 c 0,25,26
 154 68 154 68 163.5 75.5 c 128,-1,27
 173 83 173 83 181 99 c 2,28,-1
 336 388 l 1,29,30
 322 456 322 456 297 526.5 c 128,-1,31
 272 597 272 597 236 654.5 c 128,-1,32
 200 712 200 712 153.5 748.5 c 128,-1,33
 107 785 107 785 50 785 c 1,34,35
 53 789 53 789 61.5 798 c 128,-1,36
 70 807 70 807 84.5 816 c 128,-1,37
 99 825 99 825 120.5 831.5 c 128,-1,38
 142 838 142 838 170 838 c 0,39,40
 222 838 222 838 260.5 804 c 128,-1,41
 299 770 299 770 329 714 c 128,-1,42
 359 658 359 658 383 586.5 c 128,-1,43
 407 515 407 515 430 441 c 128,-1,44
 453 367 453 367 478.5 295.5 c 128,-1,45
 504 224 504 224 536 168 c 128,-1,46
 568 112 568 112 610.5 78 c 128,-1,47
 653 44 653 44 710 44 c 0,0,1
EndSplineSet
Validated: 1
EndChar

StartChar: colon
Encoding: 58 58 18
Width: 0
Flags: W
LayerCount: 2
Fore
SplineSet
-104 -41 m 1,0,1
 -151 -94 -151 -94 -217 -114 c 128,-1,2
 -283 -134 -283 -134 -353 -134 c 0,3,4
 -376 -134 -376 -134 -408.5 -130.5 c 128,-1,5
 -441 -127 -441 -127 -478 -121.5 c 128,-1,6
 -515 -116 -515 -116 -554 -109.5 c 128,-1,7
 -593 -103 -593 -103 -630 -97.5 c 128,-1,8
 -667 -92 -667 -92 -699 -88.5 c 128,-1,9
 -731 -85 -731 -85 -754 -85 c 0,10,11
 -762 -85 -762 -85 -772 -87 c 128,-1,12
 -782 -89 -782 -89 -793 -91.5 c 128,-1,13
 -804 -94 -804 -94 -814.5 -97 c 128,-1,14
 -825 -100 -825 -100 -832 -102 c 1,15,16
 -810 -80 -810 -80 -783 -66 c 128,-1,17
 -756 -52 -756 -52 -726.5 -44 c 128,-1,18
 -697 -36 -697 -36 -665.5 -33 c 128,-1,19
 -634 -30 -634 -30 -603 -30 c 256,20,21
 -572 -30 -572 -30 -520.5 -36 c 128,-1,22
 -469 -42 -469 -42 -414 -49 c 128,-1,23
 -359 -56 -359 -56 -307.5 -62 c 128,-1,24
 -256 -68 -256 -68 -224 -68 c 0,25,26
 -211 -68 -211 -68 -195.5 -65.5 c 128,-1,27
 -180 -63 -180 -63 -163.5 -59 c 128,-1,28
 -147 -55 -147 -55 -131.5 -50.5 c 128,-1,29
 -116 -46 -116 -46 -104 -41 c 1,0,1
EndSplineSet
Validated: 1
EndChar

StartChar: semicolon
Encoding: 59 59 19
Width: 0
Flags: W
LayerCount: 2
Fore
SplineSet
-31 -51 m 1,0,1
 -54 -77 -54 -77 -78 -93.5 c 128,-1,2
 -102 -110 -102 -110 -128.5 -119 c 128,-1,3
 -155 -128 -155 -128 -185 -131 c 128,-1,4
 -215 -134 -215 -134 -250 -134 c 0,5,6
 -289 -134 -289 -134 -315.5 -126 c 128,-1,7
 -342 -118 -342 -118 -367 -109 c 128,-1,8
 -392 -100 -392 -100 -420.5 -92 c 128,-1,9
 -449 -84 -449 -84 -491 -84 c 0,10,11
 -506 -84 -506 -84 -525.5 -85.5 c 128,-1,12
 -545 -87 -545 -87 -559 -92 c 1,13,14
 -537 -70 -537 -70 -514 -57.5 c 128,-1,15
 -491 -45 -491 -45 -466.5 -38.5 c 128,-1,16
 -442 -32 -442 -32 -416 -30.5 c 128,-1,17
 -390 -29 -390 -29 -363 -29 c 0,18,19
 -335 -29 -335 -29 -309 -35 c 128,-1,20
 -283 -41 -283 -41 -256 -48 c 128,-1,21
 -229 -55 -229 -55 -201 -61 c 128,-1,22
 -173 -67 -173 -67 -141 -67 c 0,23,24
 -115 -67 -115 -67 -85 -63.5 c 128,-1,25
 -55 -60 -55 -60 -31 -51 c 1,0,1
EndSplineSet
Validated: 1
EndChar

StartChar: less
Encoding: 60 60 20
Width: 539
Flags: W
LayerCount: 2
Fore
SplineSet
427 218 m 0,0,1
 427 252 427 252 410 281 c 128,-1,2
 393 310 393 310 366 331 c 128,-1,3
 339 352 339 352 306.5 364 c 128,-1,4
 274 376 274 376 243 376 c 0,5,6
 225 376 225 376 204.5 369 c 128,-1,7
 184 362 184 362 167.5 350 c 128,-1,8
 151 338 151 338 140 320.5 c 128,-1,9
 129 303 129 303 129 282 c 256,10,11
 129 261 129 261 138 242 c 128,-1,12
 147 223 147 223 160 206 c 1,13,-1
 95 149 l 1,14,15
 83 160 83 160 73 171 c 0,16,17
 65 180 65 180 58 190 c 128,-1,18
 51 200 51 200 51 208 c 0,19,20
 51 234 51 234 66.5 262 c 128,-1,21
 82 290 82 290 107 317 c 128,-1,22
 132 344 132 344 164.5 368 c 128,-1,23
 197 392 197 392 230 410.5 c 128,-1,24
 263 429 263 429 294.5 439.5 c 128,-1,25
 326 450 326 450 350 450 c 0,26,27
 367 450 367 450 381.5 463.5 c 128,-1,28
 396 477 396 477 406 496.5 c 128,-1,29
 416 516 416 516 421.5 536.5 c 128,-1,30
 427 557 427 557 427 571 c 0,31,32
 427 605 427 605 410 634 c 128,-1,33
 393 663 393 663 366 684 c 128,-1,34
 339 705 339 705 306.5 717 c 128,-1,35
 274 729 274 729 243 729 c 0,36,37
 225 729 225 729 204.5 722 c 128,-1,38
 184 715 184 715 167.5 703 c 128,-1,39
 151 691 151 691 140 673.5 c 128,-1,40
 129 656 129 656 129 635 c 256,41,42
 129 614 129 614 138 595 c 128,-1,43
 147 576 147 576 160 559 c 1,44,-1
 95 502 l 1,45,46
 83 513 83 513 73 524 c 0,47,48
 65 533 65 533 58 543 c 128,-1,49
 51 553 51 553 51 561 c 0,50,51
 51 587 51 587 66.5 615 c 128,-1,52
 82 643 82 643 107 670 c 128,-1,53
 132 697 132 697 164.5 721 c 128,-1,54
 197 745 197 745 230 763.5 c 128,-1,55
 263 782 263 782 294.5 792.5 c 128,-1,56
 326 803 326 803 350 803 c 0,57,58
 378 803 378 803 404.5 789 c 128,-1,59
 431 775 431 775 452 753 c 128,-1,60
 473 731 473 731 485.5 703.5 c 128,-1,61
 498 676 498 676 498 649 c 0,62,63
 498 578 498 578 470 530.5 c 128,-1,64
 442 483 442 483 397 439 c 1,65,66
 418 430 418 430 436 414.5 c 128,-1,67
 454 399 454 399 468 380 c 128,-1,68
 482 361 482 361 490 339 c 128,-1,69
 498 317 498 317 498 296 c 0,70,71
 498 256 498 256 490 225.5 c 128,-1,72
 482 195 482 195 467.5 168.5 c 128,-1,73
 453 142 453 142 432.5 117 c 128,-1,74
 412 92 412 92 387 65 c 2,75,-1
 107 -239 l 2,76,77
 96 -251 96 -251 88 -265.5 c 128,-1,78
 80 -280 80 -280 80 -297 c 0,79,80
 80 -307 80 -307 84 -318.5 c 128,-1,81
 88 -330 88 -330 94 -341.5 c 128,-1,82
 100 -353 100 -353 107.5 -363 c 128,-1,83
 115 -373 115 -373 121 -381 c 1,84,-1
 45 -418 l 1,85,86
 40 -415 40 -415 32 -408 c 128,-1,87
 24 -401 24 -401 17 -392.5 c 128,-1,88
 10 -384 10 -384 5 -375 c 128,-1,89
 0 -366 0 -366 0 -359 c 0,90,91
 0 -342 0 -342 8.5 -325.5 c 128,-1,92
 17 -309 17 -309 30.5 -292.5 c 128,-1,93
 44 -276 44 -276 60.5 -259 c 128,-1,94
 77 -242 77 -242 94 -223 c 2,95,-1
 352 65 l 2,96,97
 366 78 366 78 379.5 96 c 128,-1,98
 393 114 393 114 403.5 134.5 c 128,-1,99
 414 155 414 155 420.5 176.5 c 128,-1,100
 427 198 427 198 427 218 c 0,0,1
EndSplineSet
Validated: 1
EndChar

StartChar: equal
Encoding: 61 61 21
Width: 252
Flags: W
LayerCount: 2
Fore
SplineSet
129 152 m 1,0,-1
 70 210 l 1,1,-1
 123 263 l 1,2,-1
 181 204 l 1,3,-1
 129 152 l 1,0,-1
EndSplineSet
Validated: 1
EndChar

StartChar: greater
Encoding: 62 62 22
Width: 0
Flags: W
LayerCount: 2
Fore
SplineSet
-25 -319 m 1,0,-1
 -86 -256 l 1,1,-1
 -31 -200 l 1,2,-1
 29 -262 l 1,3,-1
 -25 -319 l 1,0,-1
-209 -319 m 1,4,-1
 -269 -256 l 1,5,-1
 -215 -200 l 1,6,-1
 -154 -262 l 1,7,-1
 -209 -319 l 1,4,-1
-116 -444 m 1,8,-1
 -176 -382 l 1,9,-1
 -121 -325 l 1,10,-1
 -62 -388 l 1,11,-1
 -116 -444 l 1,8,-1
EndSplineSet
Validated: 1
EndChar

StartChar: question
Encoding: 63 63 23
Width: 0
Flags: W
LayerCount: 2
Fore
SplineSet
-104 -319 m 1,0,1
 -151 -372 -151 -372 -217 -392 c 128,-1,2
 -283 -412 -283 -412 -353 -412 c 0,3,4
 -376 -412 -376 -412 -408.5 -408.5 c 128,-1,5
 -441 -405 -441 -405 -478 -399.5 c 128,-1,6
 -515 -394 -515 -394 -554 -387.5 c 128,-1,7
 -593 -381 -593 -381 -630 -375.5 c 128,-1,8
 -667 -370 -667 -370 -699 -366.5 c 128,-1,9
 -731 -363 -731 -363 -754 -363 c 0,10,11
 -762 -363 -762 -363 -772 -365 c 128,-1,12
 -782 -367 -782 -367 -793 -369.5 c 128,-1,13
 -804 -372 -804 -372 -814.5 -375 c 128,-1,14
 -825 -378 -825 -378 -832 -380 c 1,15,16
 -810 -358 -810 -358 -783 -344 c 128,-1,17
 -756 -330 -756 -330 -726.5 -322 c 128,-1,18
 -697 -314 -697 -314 -665.5 -311 c 128,-1,19
 -634 -308 -634 -308 -603 -308 c 256,20,21
 -572 -308 -572 -308 -520.5 -314 c 128,-1,22
 -469 -320 -469 -320 -414 -327 c 128,-1,23
 -359 -334 -359 -334 -307.5 -340 c 128,-1,24
 -256 -346 -256 -346 -224 -346 c 0,25,26
 -211 -346 -211 -346 -195.5 -343.5 c 128,-1,27
 -180 -341 -180 -341 -163.5 -337 c 128,-1,28
 -147 -333 -147 -333 -131.5 -328.5 c 128,-1,29
 -116 -324 -116 -324 -104 -319 c 1,0,1
EndSplineSet
Validated: 1
EndChar

StartChar: at
Encoding: 64 64 24
Width: 909
Flags: W
LayerCount: 2
Fore
SplineSet
152 -312 m 1,0,1
 127 -333 127 -333 95.5 -355 c 128,-1,2
 64 -377 64 -377 35 -388 c 1,3,4
 40 -366 40 -366 43 -315 c 128,-1,5
 46 -264 46 -264 47.5 -197.5 c 128,-1,6
 49 -131 49 -131 49.5 -54.5 c 128,-1,7
 50 22 50 22 50 94 c 2,8,-1
 50 670 l 2,9,10
 50 700 50 700 39 722 c 128,-1,11
 28 744 28 744 0 755 c 1,12,13
 15 768 15 768 33 783 c 128,-1,14
 51 798 51 798 71 810.5 c 128,-1,15
 91 823 91 823 111.5 832.5 c 128,-1,16
 132 842 132 842 152 845 c 1,17,-1
 152 312 l 1,18,19
 177 338 177 338 201 361 c 128,-1,20
 225 384 225 384 251 401 c 128,-1,21
 277 418 277 418 308 427.5 c 128,-1,22
 339 437 339 437 378 437 c 0,23,24
 401 437 401 437 422 428 c 128,-1,25
 443 419 443 419 461 405 c 128,-1,26
 479 391 479 391 494 372.5 c 128,-1,27
 509 354 509 354 520 335 c 1,28,29
 544 358 544 358 566 377 c 128,-1,30
 588 396 588 396 611.5 409.5 c 128,-1,31
 635 423 635 423 662.5 430 c 128,-1,32
 690 437 690 437 725 437 c 0,33,34
 753 437 753 437 780 424.5 c 128,-1,35
 807 412 807 412 828.5 391 c 128,-1,36
 850 370 850 370 863 343.5 c 128,-1,37
 876 317 876 317 876 289 c 0,38,39
 876 265 876 265 865.5 233.5 c 128,-1,40
 855 202 855 202 837.5 169 c 128,-1,41
 820 136 820 136 796.5 104 c 128,-1,42
 773 72 773 72 746.5 46.5 c 128,-1,43
 720 21 720 21 692.5 5.5 c 128,-1,44
 665 -10 665 -10 639 -10 c 0,45,46
 631 -10 631 -10 621.5 -3 c 128,-1,47
 612 4 612 4 603 12 c 0,48,49
 592 22 592 22 581 34 c 1,50,-1
 637 98 l 1,51,52
 654 86 654 86 672.5 77 c 128,-1,53
 691 68 691 68 712 68 c 256,54,55
 733 68 733 68 750 79 c 128,-1,56
 767 90 767 90 779 107 c 128,-1,57
 791 124 791 124 797.5 144 c 128,-1,58
 804 164 804 164 804 182 c 0,59,60
 804 212 804 212 792.5 244.5 c 128,-1,61
 781 277 781 277 760 304 c 128,-1,62
 739 331 739 331 710.5 348.5 c 128,-1,63
 682 366 682 366 649 366 c 0,64,65
 637 366 637 366 616.5 359.5 c 128,-1,66
 596 353 596 353 576.5 342.5 c 128,-1,67
 557 332 557 332 542.5 318.5 c 128,-1,68
 528 305 528 305 528 291 c 0,69,70
 528 267 528 267 518 235.5 c 128,-1,71
 508 204 508 204 490.5 170.5 c 128,-1,72
 473 137 473 137 449.5 104.5 c 128,-1,73
 426 72 426 72 400 46.5 c 128,-1,74
 374 21 374 21 346 5.5 c 128,-1,75
 318 -10 318 -10 292 -10 c 0,76,77
 284 -10 284 -10 274.5 -3 c 128,-1,78
 265 4 265 4 256 12 c 0,79,80
 245 22 245 22 234 34 c 1,81,-1
 290 98 l 1,82,83
 307 86 307 86 325.5 77 c 128,-1,84
 344 68 344 68 364 68 c 0,85,86
 385 68 385 68 402 79 c 128,-1,87
 419 90 419 90 431 107 c 128,-1,88
 443 124 443 124 449.5 144 c 128,-1,89
 456 164 456 164 456 182 c 0,90,91
 456 212 456 212 444.5 244.5 c 128,-1,92
 433 277 433 277 412.5 304 c 128,-1,93
 392 331 392 331 364 348.5 c 128,-1,94
 336 366 336 366 302 366 c 0,95,96
 282 366 282 366 261.5 357.5 c 128,-1,97
 241 349 241 349 221 336 c 128,-1,98
 201 323 201 323 183.5 308.5 c 128,-1,99
 166 294 166 294 152 281 c 1,100,-1
 152 -312 l 1,0,1
EndSplineSet
Validated: 1
EndChar

StartChar: A
Encoding: 65 65 25
Width: 584
Flags: W
LayerCount: 2
Fore
SplineSet
487 -253 m 2,0,1
 487 -283 487 -283 498 -305 c 128,-1,2
 509 -327 509 -327 537 -338 c 1,3,4
 522 -351 522 -351 504 -365.5 c 128,-1,5
 486 -380 486 -380 466 -393 c 128,-1,6
 446 -406 446 -406 425.5 -415.5 c 128,-1,7
 405 -425 405 -425 385 -428 c 1,8,-1
 385 105 l 1,9,10
 359 79 359 79 334.5 56 c 128,-1,11
 310 33 310 33 283 16 c 128,-1,12
 256 -1 256 -1 225 -10.5 c 128,-1,13
 194 -20 194 -20 154 -20 c 0,14,15
 127 -20 127 -20 99.5 -7.5 c 128,-1,16
 72 5 72 5 50 26 c 128,-1,17
 28 47 28 47 14 73.5 c 128,-1,18
 0 100 0 100 0 128 c 0,19,20
 0 152 0 152 10.5 183.5 c 128,-1,21
 21 215 21 215 39.5 248.5 c 128,-1,22
 58 282 58 282 82 314 c 128,-1,23
 106 346 106 346 133 371 c 128,-1,24
 160 396 160 396 188 411.5 c 128,-1,25
 216 427 216 427 242 427 c 0,26,27
 250 427 250 427 260 420 c 128,-1,28
 270 413 270 413 279 405 c 0,29,30
 290 395 290 395 301 383 c 1,31,-1
 244 319 l 1,32,33
 227 331 227 331 208 340 c 128,-1,34
 189 349 189 349 168 349 c 256,35,36
 147 349 147 349 129.5 338 c 128,-1,37
 112 327 112 327 100 310.5 c 128,-1,38
 88 294 88 294 81 274 c 128,-1,39
 74 254 74 254 74 236 c 0,40,41
 74 204 74 204 86 171.5 c 128,-1,42
 98 139 98 139 119 112.5 c 128,-1,43
 140 86 140 86 169 69 c 128,-1,44
 198 52 198 52 232 52 c 0,45,46
 252 52 252 52 273 60.5 c 128,-1,47
 294 69 294 69 314.5 81.5 c 128,-1,48
 335 94 335 94 353 109 c 128,-1,49
 371 124 371 124 385 137 c 1,50,-1
 385 670 l 2,51,52
 385 700 385 700 374.5 722 c 128,-1,53
 364 744 364 744 335 755 c 1,54,55
 350 768 350 768 368 783 c 128,-1,56
 386 798 386 798 406 810.5 c 128,-1,57
 426 823 426 823 446.5 832.5 c 128,-1,58
 467 842 467 842 487 845 c 1,59,-1
 487 -253 l 2,0,1
EndSplineSet
Validated: 1
EndChar

StartChar: B
Encoding: 66 66 26
Width: 0
Flags: W
LayerCount: 2
Fore
SplineSet
-117 634 m 1,0,-1
 -185 703 l 1,1,-1
 -123 765 l 1,2,-1
 -55 696 l 1,3,-1
 -117 634 l 1,0,-1
EndSplineSet
Validated: 1
EndChar

StartChar: C
Encoding: 67 67 27
Width: 0
Flags: W
LayerCount: 2
Fore
SplineSet
-119 720 m 1,0,-1
 -178 782 l 1,1,-1
 -124 839 l 1,2,-1
 -64 776 l 1,3,-1
 -119 720 l 1,0,-1
-25 595 m 1,4,-1
 -86 657 l 1,5,-1
 -31 713 l 1,6,-1
 29 651 l 1,7,-1
 -25 595 l 1,4,-1
-209 595 m 1,8,-1
 -269 657 l 1,9,-1
 -215 713 l 1,10,-1
 -154 651 l 1,11,-1
 -209 595 l 1,8,-1
EndSplineSet
Validated: 1
EndChar

StartChar: D
Encoding: 68 68 28
Width: 0
Flags: W
LayerCount: 2
Fore
SplineSet
-239 720 m 1,0,-1
 -298 782 l 1,1,-1
 -244 839 l 1,2,-1
 -184 776 l 1,3,-1
 -239 720 l 1,0,-1
-145 595 m 1,4,-1
 -206 657 l 1,5,-1
 -151 713 l 1,6,-1
 -91 651 l 1,7,-1
 -145 595 l 1,4,-1
-329 595 m 1,8,-1
 -389 657 l 1,9,-1
 -335 713 l 1,10,-1
 -274 651 l 1,11,-1
 -329 595 l 1,8,-1
EndSplineSet
Validated: 1
EndChar

StartChar: E
Encoding: 69 69 29
Width: 0
Flags: W
LayerCount: 2
Fore
SplineSet
-286 720 m 1,0,-1
 -345 782 l 1,1,-1
 -291 839 l 1,2,-1
 -231 776 l 1,3,-1
 -286 720 l 1,0,-1
-192 595 m 1,4,-1
 -253 657 l 1,5,-1
 -198 713 l 1,6,-1
 -138 651 l 1,7,-1
 -192 595 l 1,4,-1
-376 595 m 1,8,-1
 -436 657 l 1,9,-1
 -382 713 l 1,10,-1
 -321 651 l 1,11,-1
 -376 595 l 1,8,-1
EndSplineSet
Validated: 1
EndChar

StartChar: F
Encoding: 70 70 30
Width: 0
Flags: W
LayerCount: 2
Fore
SplineSet
125 958 m 1,0,1
 125 945 125 945 107 920.5 c 128,-1,2
 89 896 89 896 60 865.5 c 128,-1,3
 31 835 31 835 -6.5 800.5 c 128,-1,4
 -44 766 -44 766 -83.5 731.5 c 128,-1,5
 -123 697 -123 697 -161 665.5 c 128,-1,6
 -199 634 -199 634 -229.5 609.5 c 128,-1,7
 -260 585 -260 585 -279 570 c 128,-1,8
 -298 555 -298 555 -300 554 c 0,9,10
 -304 552 -304 552 -306 557 c 128,-1,11
 -308 562 -308 562 -303 567 c 0,12,13
 -301 569 -301 569 -277.5 590.5 c 128,-1,14
 -254 612 -254 612 -220 644 c 128,-1,15
 -186 676 -186 676 -146.5 714 c 128,-1,16
 -107 752 -107 752 -73.5 788.5 c 128,-1,17
 -40 825 -40 825 -18 855 c 128,-1,18
 4 885 4 885 4 900 c 1,19,-1
 125 958 l 1,0,1
EndSplineSet
Validated: 1
EndChar

StartChar: G
Encoding: 71 71 31
Width: 0
Flags: W
LayerCount: 2
Fore
SplineSet
-247 634 m 1,0,-1
 -315 702 l 1,1,-1
 -253 765 l 1,2,-1
 -185 696 l 1,3,-1
 -247 634 l 1,0,-1
EndSplineSet
Validated: 1
EndChar

StartChar: H
Encoding: 72 72 32
Width: 0
Flags: W
LayerCount: 2
Fore
SplineSet
222 926 m 0,0,1
 222 906 222 906 210 884.5 c 128,-1,2
 198 863 198 863 184 846 c 0,3,4
 167 826 167 826 146 806 c 1,5,6
 138 837 138 837 122 862 c 0,7,8
 108 883 108 883 86 900.5 c 128,-1,9
 64 918 64 918 29 918 c 0,10,11
 -34 918 -34 918 -87 893.5 c 128,-1,12
 -140 869 -140 869 -182 827 c 128,-1,13
 -224 785 -224 785 -255 729.5 c 128,-1,14
 -286 674 -286 674 -304 612 c 0,15,16
 -306 607 -306 607 -310 607 c 0,17,18
 -317 607 -317 607 -317 617 c 0,19,20
 -312 644 -312 644 -296 682 c 128,-1,21
 -280 720 -280 720 -253.5 761.5 c 128,-1,22
 -227 803 -227 803 -192 844 c 128,-1,23
 -157 885 -157 885 -113.5 917.5 c 128,-1,24
 -70 950 -70 950 -19.5 970 c 128,-1,25
 31 990 31 990 87 990 c 0,26,27
 121 990 121 990 146.5 982 c 128,-1,28
 172 974 172 974 188.5 963.5 c 128,-1,29
 205 953 205 953 213.5 942.5 c 128,-1,30
 222 932 222 932 222 926 c 0,0,1
EndSplineSet
Validated: 1
EndChar

StartChar: I
Encoding: 73 73 33
Width: 499
Flags: W
LayerCount: 2
Fore
SplineSet
457 283 m 0,0,1
 457 211 457 211 431.5 135.5 c 128,-1,2
 406 60 406 60 367 -12 c 128,-1,3
 328 -84 328 -84 281 -148.5 c 128,-1,4
 234 -213 234 -213 191 -264.5 c 128,-1,5
 148 -316 148 -316 114.5 -351.5 c 128,-1,6
 81 -387 81 -387 69 -399 c 0,7,8
 62 -406 62 -406 59 -406 c 0,9,10
 57 -406 57 -406 57 -403 c 0,11,12
 57 -401 57 -401 59 -399 c 0,13,14
 66 -391 66 -391 93 -358 c 128,-1,15
 120 -325 120 -325 156 -276.5 c 128,-1,16
 192 -228 192 -228 232 -167.5 c 128,-1,17
 272 -107 272 -107 306 -42.5 c 128,-1,18
 340 22 340 22 362 86.5 c 128,-1,19
 384 151 384 151 384 207 c 0,20,21
 384 240 384 240 366.5 271 c 128,-1,22
 349 302 349 302 321.5 325.5 c 128,-1,23
 294 349 294 349 260.5 363 c 128,-1,24
 227 377 227 377 196 377 c 0,25,26
 178 377 178 377 157.5 370.5 c 128,-1,27
 137 364 137 364 120 352 c 128,-1,28
 103 340 103 340 91.5 322.5 c 128,-1,29
 80 305 80 305 80 284 c 0,30,31
 80 264 80 264 89.5 240 c 128,-1,32
 99 216 99 216 111 200 c 1,33,-1
 46 163 l 1,34,35
 40 166 40 166 32.5 173 c 128,-1,36
 25 180 25 180 17.5 188.5 c 128,-1,37
 10 197 10 197 5 206 c 128,-1,38
 0 215 0 215 0 222 c 0,39,40
 0 248 0 248 16 275 c 128,-1,41
 32 302 32 302 58 327.5 c 128,-1,42
 84 353 84 353 117 375 c 128,-1,43
 150 397 150 397 184 414 c 128,-1,44
 218 431 218 431 250 440.5 c 128,-1,45
 282 450 282 450 306 450 c 0,46,47
 334 450 334 450 361.5 434 c 128,-1,48
 389 418 389 418 410 393.5 c 128,-1,49
 431 369 431 369 444 339.5 c 128,-1,50
 457 310 457 310 457 283 c 0,0,1
EndSplineSet
Validated: 1
EndChar

StartChar: J
Encoding: 74 74 34
Width: 0
Flags: W
LayerCount: 2
Fore
SplineSet
15 958 m 0,0,1
 15 884 15 884 -18 821 c 128,-1,2
 -51 758 -51 758 -102 707 c 0,3,4
 -119 690 -119 690 -152 664 c 128,-1,5
 -185 638 -185 638 -222.5 613.5 c 128,-1,6
 -260 589 -260 589 -297 571.5 c 128,-1,7
 -334 554 -334 554 -360 554 c 0,8,9
 -368 554 -368 554 -368 561 c 0,10,11
 -368 565 -368 565 -363 567 c 0,12,13
 -301 585 -301 585 -245 616 c 128,-1,14
 -189 647 -189 647 -147 689 c 128,-1,15
 -105 731 -105 731 -80.5 784 c 128,-1,16
 -56 837 -56 837 -56 900 c 0,17,18
 -56 935 -56 935 -74 957 c 128,-1,19
 -92 979 -92 979 -113 993 c 0,20,21
 -138 1009 -138 1009 -169 1017 c 1,22,23
 -150 1035 -150 1035 -130 1050 c 0,24,25
 -113 1062 -113 1062 -91.5 1072.5 c 128,-1,26
 -70 1083 -70 1083 -50 1083 c 0,27,28
 -44 1083 -44 1083 -33.5 1076.5 c 128,-1,29
 -23 1070 -23 1070 -12 1055 c 128,-1,30
 -1 1040 -1 1040 7 1016 c 128,-1,31
 15 992 15 992 15 958 c 0,0,1
EndSplineSet
Validated: 1
EndChar

StartChar: K
Encoding: 75 75 35
Width: 492
Flags: W
LayerCount: 2
Fore
SplineSet
233 797 m 0,0,1
 188 762 188 762 153 724 c 0,2,3
 138 708 138 708 123.5 689.5 c 128,-1,4
 109 671 109 671 98 651 c 128,-1,5
 87 631 87 631 80 610.5 c 128,-1,6
 73 590 73 590 73 570 c 0,7,8
 73 537 73 537 86 506 c 128,-1,9
 99 475 99 475 121 452 c 128,-1,10
 143 429 143 429 171.5 415 c 128,-1,11
 200 401 200 401 232 401 c 0,12,13
 240 401 240 401 251 402.5 c 128,-1,14
 262 404 262 404 272 406 c 128,-1,15
 282 408 282 408 290 409.5 c 128,-1,16
 298 411 298 411 301 411 c 0,17,18
 309 411 309 411 313 407 c 128,-1,19
 317 403 317 403 312 398 c 0,20,21
 310 396 310 396 292 391.5 c 128,-1,22
 274 387 274 387 247.5 378 c 128,-1,23
 221 369 221 369 190.5 355 c 128,-1,24
 160 341 160 341 134 320.5 c 128,-1,25
 108 300 108 300 90.5 272.5 c 128,-1,26
 73 245 73 245 73 209 c 0,27,28
 73 175 73 175 91 146.5 c 128,-1,29
 109 118 109 118 136.5 97.5 c 128,-1,30
 164 77 164 77 197.5 65.5 c 128,-1,31
 231 54 231 54 262 54 c 0,32,33
 280 54 280 54 300.5 61 c 128,-1,34
 321 68 321 68 337.5 80 c 128,-1,35
 354 92 354 92 365 109.5 c 128,-1,36
 376 127 376 127 376 148 c 256,37,38
 376 169 376 169 367 188 c 128,-1,39
 358 207 358 207 345 224 c 1,40,-1
 410 281 l 1,41,42
 422 270 422 270 432 259 c 0,43,44
 440 250 440 250 447 240 c 128,-1,45
 454 230 454 230 454 222 c 0,46,47
 454 196 454 196 438.5 168 c 128,-1,48
 423 140 423 140 398 113 c 128,-1,49
 373 86 373 86 340.5 62 c 128,-1,50
 308 38 308 38 275 19.5 c 128,-1,51
 242 1 242 1 210.5 -9.5 c 128,-1,52
 179 -20 179 -20 155 -20 c 0,53,54
 127 -20 127 -20 99 -6.5 c 128,-1,55
 71 7 71 7 49 28.5 c 128,-1,56
 27 50 27 50 13.5 77.5 c 128,-1,57
 0 105 0 105 0 133 c 0,58,59
 0 168 0 168 7.5 196 c 128,-1,60
 15 224 15 224 29 248 c 128,-1,61
 43 272 43 272 62 293.5 c 128,-1,62
 81 315 81 315 105 339 c 1,63,64
 86 349 86 349 67 366 c 128,-1,65
 48 383 48 383 33 404 c 128,-1,66
 18 425 18 425 9 448 c 128,-1,67
 0 471 0 471 0 494 c 0,68,69
 0 521 0 521 9.5 548.5 c 128,-1,70
 19 576 19 576 35 603 c 128,-1,71
 51 630 51 630 71.5 655 c 128,-1,72
 92 680 92 680 113 702 c 0,73,74
 162 754 162 754 226 802 c 0,75,76
 231 805 231 805 233.5 802 c 128,-1,77
 236 799 236 799 233 797 c 0,0,1
EndSplineSet
Validated: 1
EndChar

StartChar: L
Encoding: 76 76 36
Width: 0
Flags: W
LayerCount: 2
Fore
SplineSet
-457 -131 m 1,0,-1
 -525 -62 l 1,1,-1
 -463 0 l 1,2,-1
 -395 -69 l 1,3,-1
 -457 -131 l 1,0,-1
EndSplineSet
Validated: 1
EndChar

StartChar: M
Encoding: 77 77 37
Width: 0
Flags: W
LayerCount: 2
Fore
SplineSet
285 958 m 0,0,1
 285 884 285 884 252 821 c 128,-1,2
 219 758 219 758 168 707 c 0,3,4
 151 690 151 690 118 664 c 128,-1,5
 85 638 85 638 47.5 613.5 c 128,-1,6
 10 589 10 589 -27 571.5 c 128,-1,7
 -64 554 -64 554 -90 554 c 0,8,9
 -98 554 -98 554 -98 561 c 0,10,11
 -98 565 -98 565 -93 567 c 0,12,13
 -31 585 -31 585 25 616 c 128,-1,14
 81 647 81 647 123 689 c 128,-1,15
 165 731 165 731 189.5 784 c 128,-1,16
 214 837 214 837 214 900 c 0,17,18
 214 935 214 935 196 957 c 128,-1,19
 178 979 178 979 157 993 c 0,20,21
 132 1009 132 1009 101 1017 c 1,22,23
 120 1035 120 1035 140 1050 c 0,24,25
 157 1062 157 1062 178.5 1072.5 c 128,-1,26
 200 1083 200 1083 220 1083 c 0,27,28
 226 1083 226 1083 236.5 1076.5 c 128,-1,29
 247 1070 247 1070 258 1055 c 128,-1,30
 269 1040 269 1040 277 1016 c 128,-1,31
 285 992 285 992 285 958 c 0,0,1
EndSplineSet
Validated: 1
EndChar

StartChar: N
Encoding: 78 78 38
Width: 0
Flags: W
LayerCount: 2
Fore
SplineSet
442 926 m 0,0,1
 442 906 442 906 430 884.5 c 128,-1,2
 418 863 418 863 404 846 c 0,3,4
 387 826 387 826 366 806 c 1,5,6
 358 837 358 837 342 862 c 0,7,8
 328 883 328 883 306 900.5 c 128,-1,9
 284 918 284 918 249 918 c 0,10,11
 186 918 186 918 133 893.5 c 128,-1,12
 80 869 80 869 38 827 c 128,-1,13
 -4 785 -4 785 -35 729.5 c 128,-1,14
 -66 674 -66 674 -84 612 c 0,15,16
 -86 607 -86 607 -90 607 c 0,17,18
 -97 607 -97 607 -97 617 c 0,19,20
 -92 644 -92 644 -76 682 c 128,-1,21
 -60 720 -60 720 -33.5 761.5 c 128,-1,22
 -7 803 -7 803 28 844 c 128,-1,23
 63 885 63 885 106.5 917.5 c 128,-1,24
 150 950 150 950 200.5 970 c 128,-1,25
 251 990 251 990 307 990 c 0,26,27
 341 990 341 990 366.5 982 c 128,-1,28
 392 974 392 974 408.5 963.5 c 128,-1,29
 425 953 425 953 433.5 942.5 c 128,-1,30
 442 932 442 932 442 926 c 0,0,1
EndSplineSet
Validated: 1
EndChar

StartChar: O
Encoding: 79 79 39
Width: 0
Flags: W
LayerCount: 2
Fore
SplineSet
-177 -331 m 1,0,-1
 -245 -262 l 1,1,-1
 -183 -200 l 1,2,-1
 -115 -269 l 1,3,-1
 -177 -331 l 1,0,-1
EndSplineSet
Validated: 1
EndChar

StartChar: P
Encoding: 80 80 40
Width: 0
Flags: W
LayerCount: 2
Fore
SplineSet
-104 571 m 1,0,1
 -151 518 -151 518 -217 498 c 128,-1,2
 -283 478 -283 478 -353 478 c 0,3,4
 -376 478 -376 478 -408.5 481.5 c 128,-1,5
 -441 485 -441 485 -478 490.5 c 128,-1,6
 -515 496 -515 496 -554 502.5 c 128,-1,7
 -593 509 -593 509 -630 514.5 c 128,-1,8
 -667 520 -667 520 -699 523.5 c 128,-1,9
 -731 527 -731 527 -754 527 c 0,10,11
 -762 527 -762 527 -772 525 c 128,-1,12
 -782 523 -782 523 -793 520.5 c 128,-1,13
 -804 518 -804 518 -814.5 515 c 128,-1,14
 -825 512 -825 512 -832 510 c 1,15,16
 -810 532 -810 532 -783 546 c 128,-1,17
 -756 560 -756 560 -726.5 568 c 128,-1,18
 -697 576 -697 576 -665.5 579 c 128,-1,19
 -634 582 -634 582 -603 582 c 256,20,21
 -572 582 -572 582 -520.5 576 c 128,-1,22
 -469 570 -469 570 -414 563 c 128,-1,23
 -359 556 -359 556 -307.5 550 c 128,-1,24
 -256 544 -256 544 -224 544 c 0,25,26
 -211 544 -211 544 -195.5 546.5 c 128,-1,27
 -180 549 -180 549 -163.5 553 c 128,-1,28
 -147 557 -147 557 -131.5 561.5 c 128,-1,29
 -116 566 -116 566 -104 571 c 1,0,1
EndSplineSet
Validated: 1
EndChar

StartChar: Q
Encoding: 81 81 41
Width: 624
Flags: W
LayerCount: 2
Fore
SplineSet
590 105 m 1,0,1
 585 91 585 91 572 72.5 c 128,-1,2
 559 54 559 54 545 38 c 0,3,4
 529 19 529 19 510 0 c 1,5,-1
 152 0 l 1,6,-1
 152 -312 l 1,7,8
 127 -333 127 -333 95.5 -355 c 128,-1,9
 64 -377 64 -377 35 -388 c 1,10,11
 38 -373 38 -373 40.5 -327 c 128,-1,12
 43 -281 43 -281 44.5 -215 c 128,-1,13
 46 -149 46 -149 47 -67 c 128,-1,14
 48 15 48 15 49 101.5 c 128,-1,15
 50 188 50 188 50 274.5 c 128,-1,16
 50 361 50 361 50 437 c 2,17,-1
 50 670 l 2,18,19
 50 700 50 700 39 722 c 128,-1,20
 28 744 28 744 0 755 c 1,21,22
 15 768 15 768 33 783 c 128,-1,23
 51 798 51 798 71 810.5 c 128,-1,24
 91 823 91 823 111.5 832.5 c 128,-1,25
 132 842 132 842 152 845 c 1,26,-1
 152 312 l 1,27,28
 178 338 178 338 202.5 361 c 128,-1,29
 227 384 227 384 254 401 c 128,-1,30
 281 418 281 418 312 427.5 c 128,-1,31
 343 437 343 437 383 437 c 0,32,33
 410 437 410 437 437.5 424.5 c 128,-1,34
 465 412 465 412 487 391 c 128,-1,35
 509 370 509 370 523 343.5 c 128,-1,36
 537 317 537 317 537 289 c 0,37,38
 537 270 537 270 530 245.5 c 128,-1,39
 523 221 523 221 511 195 c 128,-1,40
 499 169 499 169 482 142 c 128,-1,41
 465 115 465 115 446 91 c 1,42,43
 491 93 491 93 527 96 c 128,-1,44
 563 99 563 99 590 105 c 1,0,1
463 182 m 0,45,46
 463 213 463 213 451 245.5 c 128,-1,47
 439 278 439 278 418 305 c 128,-1,48
 397 332 397 332 368 349 c 128,-1,49
 339 366 339 366 305 366 c 0,50,51
 285 366 285 366 264 357.5 c 128,-1,52
 243 349 243 349 222.5 336.5 c 128,-1,53
 202 324 202 324 184 309 c 128,-1,54
 166 294 166 294 152 281 c 1,55,-1
 152 91 l 1,56,57
 215 91 215 91 286 90.5 c 128,-1,58
 357 90 357 90 423 90 c 1,59,60
 442 108 442 108 452.5 133.5 c 128,-1,61
 463 159 463 159 463 182 c 0,45,46
EndSplineSet
Validated: 1
EndChar

StartChar: R
Encoding: 82 82 42
Width: 0
Flags: W
LayerCount: 2
Fore
SplineSet
95 958 m 1,0,1
 95 945 95 945 77 920.5 c 128,-1,2
 59 896 59 896 30 865.5 c 128,-1,3
 1 835 1 835 -36.5 800.5 c 128,-1,4
 -74 766 -74 766 -113.5 731.5 c 128,-1,5
 -153 697 -153 697 -191 665.5 c 128,-1,6
 -229 634 -229 634 -259.5 609.5 c 128,-1,7
 -290 585 -290 585 -309 570 c 128,-1,8
 -328 555 -328 555 -330 554 c 0,9,10
 -334 552 -334 552 -336 557 c 128,-1,11
 -338 562 -338 562 -333 567 c 0,12,13
 -331 569 -331 569 -307.5 590.5 c 128,-1,14
 -284 612 -284 612 -250 644 c 128,-1,15
 -216 676 -216 676 -176.5 714 c 128,-1,16
 -137 752 -137 752 -103.5 788.5 c 128,-1,17
 -70 825 -70 825 -48 855 c 128,-1,18
 -26 885 -26 885 -26 900 c 1,19,-1
 95 958 l 1,0,1
EndSplineSet
Validated: 1
EndChar

StartChar: S
Encoding: 83 83 43
Width: 924
Flags: W
LayerCount: 2
Fore
SplineSet
574 52 m 0,0,1
 594 52 594 52 614.5 60.5 c 128,-1,2
 635 69 635 69 655 81.5 c 128,-1,3
 675 94 675 94 692.5 109 c 128,-1,4
 710 124 710 124 724 137 c 1,5,-1
 724 670 l 2,6,7
 724 700 724 700 713.5 722 c 128,-1,8
 703 744 703 744 674 755 c 1,9,10
 689 768 689 768 707 783 c 128,-1,11
 725 798 725 798 745 810.5 c 128,-1,12
 765 823 765 823 785.5 832.5 c 128,-1,13
 806 842 806 842 826 845 c 1,14,-1
 826 -253 l 2,15,16
 826 -283 826 -283 837 -305 c 128,-1,17
 848 -327 848 -327 876 -338 c 1,18,19
 861 -351 861 -351 843 -365.5 c 128,-1,20
 825 -380 825 -380 805 -393 c 128,-1,21
 785 -406 785 -406 764.5 -415.5 c 128,-1,22
 744 -425 744 -425 724 -428 c 1,23,-1
 724 105 l 1,24,25
 699 79 699 79 675 56.5 c 128,-1,26
 651 34 651 34 625 17 c 128,-1,27
 599 0 599 0 568 -10 c 128,-1,28
 537 -20 537 -20 498 -20 c 0,29,30
 475 -20 475 -20 453.5 -11 c 128,-1,31
 432 -2 432 -2 414 12 c 128,-1,32
 396 26 396 26 381 44.5 c 128,-1,33
 366 63 366 63 356 82 c 1,34,35
 332 59 332 59 310 40 c 128,-1,36
 288 21 288 21 264.5 7.5 c 128,-1,37
 241 -6 241 -6 213.5 -13 c 128,-1,38
 186 -20 186 -20 151 -20 c 0,39,40
 123 -20 123 -20 96 -7.5 c 128,-1,41
 69 5 69 5 47.5 26 c 128,-1,42
 26 47 26 47 13 73.5 c 128,-1,43
 0 100 0 100 0 128 c 0,44,45
 0 152 0 152 10.5 183.5 c 128,-1,46
 21 215 21 215 38.5 248 c 128,-1,47
 56 281 56 281 79.5 313 c 128,-1,48
 103 345 103 345 129.5 370.5 c 128,-1,49
 156 396 156 396 183.5 411.5 c 128,-1,50
 211 427 211 427 237 427 c 0,51,52
 244 427 244 427 254 420 c 128,-1,53
 264 413 264 413 273 405 c 0,54,55
 284 395 284 395 295 383 c 1,56,-1
 239 319 l 1,57,58
 222 331 222 331 203.5 340 c 128,-1,59
 185 349 185 349 164 349 c 256,60,61
 143 349 143 349 126 338 c 128,-1,62
 109 327 109 327 97 310 c 128,-1,63
 85 293 85 293 78.5 273.5 c 128,-1,64
 72 254 72 254 72 236 c 0,65,66
 72 205 72 205 83.5 172.5 c 128,-1,67
 95 140 95 140 116 113 c 128,-1,68
 137 86 137 86 165.5 69 c 128,-1,69
 194 52 194 52 227 52 c 0,70,71
 239 52 239 52 259.5 58.5 c 128,-1,72
 280 65 280 65 299.5 75.5 c 128,-1,73
 319 86 319 86 333 99 c 128,-1,74
 347 112 347 112 347 126 c 0,75,76
 347 150 347 150 357.5 181.5 c 128,-1,77
 368 213 368 213 385.5 246.5 c 128,-1,78
 403 280 403 280 426.5 312.5 c 128,-1,79
 450 345 450 345 476 370.5 c 128,-1,80
 502 396 502 396 530 411.5 c 128,-1,81
 558 427 558 427 584 427 c 0,82,83
 591 427 591 427 601 420 c 128,-1,84
 611 413 611 413 620 405 c 0,85,86
 631 395 631 395 642 383 c 1,87,-1
 586 319 l 1,88,89
 569 331 569 331 550.5 340 c 128,-1,90
 532 349 532 349 512 349 c 0,91,92
 491 349 491 349 474 338 c 128,-1,93
 457 327 457 327 445 310 c 128,-1,94
 433 293 433 293 426.5 273.5 c 128,-1,95
 420 254 420 254 420 236 c 0,96,97
 420 205 420 205 431.5 172.5 c 128,-1,98
 443 140 443 140 463.5 113 c 128,-1,99
 484 86 484 86 512 69 c 128,-1,100
 540 52 540 52 574 52 c 0,0,1
EndSplineSet
Validated: 1
EndChar

StartChar: T
Encoding: 84 84 44
Width: 0
Flags: W
LayerCount: 2
Fore
SplineSet
-287 634 m 1,0,-1
 -355 702 l 1,1,-1
 -293 765 l 1,2,-1
 -225 696 l 1,3,-1
 -287 634 l 1,0,-1
EndSplineSet
Validated: 1
EndChar

StartChar: U
Encoding: 85 85 45
Width: 0
Flags: W
LayerCount: 2
Fore
SplineSet
35 958 m 0,0,1
 35 884 35 884 2 821 c 128,-1,2
 -31 758 -31 758 -82 707 c 0,3,4
 -99 690 -99 690 -132 664 c 128,-1,5
 -165 638 -165 638 -202.5 613.5 c 128,-1,6
 -240 589 -240 589 -277 571.5 c 128,-1,7
 -314 554 -314 554 -340 554 c 0,8,9
 -348 554 -348 554 -348 561 c 0,10,11
 -348 565 -348 565 -343 567 c 0,12,13
 -281 585 -281 585 -225 616 c 128,-1,14
 -169 647 -169 647 -127 689 c 128,-1,15
 -85 731 -85 731 -60.5 784 c 128,-1,16
 -36 837 -36 837 -36 900 c 0,17,18
 -36 935 -36 935 -54 957 c 128,-1,19
 -72 979 -72 979 -93 993 c 0,20,21
 -118 1009 -118 1009 -149 1017 c 1,22,23
 -130 1035 -130 1035 -110 1050 c 0,24,25
 -93 1062 -93 1062 -71.5 1072.5 c 128,-1,26
 -50 1083 -50 1083 -30 1083 c 0,27,28
 -24 1083 -24 1083 -13.5 1076.5 c 128,-1,29
 -3 1070 -3 1070 8 1055 c 128,-1,30
 19 1040 19 1040 27 1016 c 128,-1,31
 35 992 35 992 35 958 c 0,0,1
EndSplineSet
Validated: 1
EndChar

StartChar: V
Encoding: 86 86 46
Width: 0
Flags: W
LayerCount: 2
Fore
SplineSet
185 998 m 1,0,1
 185 985 185 985 171 959.5 c 128,-1,2
 157 934 157 934 134 901 c 128,-1,3
 111 868 111 868 81.5 831 c 128,-1,4
 52 794 52 794 21 757 c 128,-1,5
 -10 720 -10 720 -40 685.5 c 128,-1,6
 -70 651 -70 651 -93.5 624.5 c 128,-1,7
 -117 598 -117 598 -132.5 581.5 c 128,-1,8
 -148 565 -148 565 -150 564 c 0,9,10
 -154 562 -154 562 -157.5 566 c 128,-1,11
 -161 570 -161 570 -156 575 c 0,12,13
 -154 577 -154 577 -136 599 c 128,-1,14
 -118 621 -118 621 -92.5 654.5 c 128,-1,15
 -67 688 -67 688 -38 728 c 128,-1,16
 -9 768 -9 768 16 805.5 c 128,-1,17
 41 843 41 843 57.5 874 c 128,-1,18
 74 905 74 905 74 920 c 1,19,-1
 185 998 l 1,0,1
EndSplineSet
Validated: 1
EndChar

StartChar: W
Encoding: 87 87 47
Width: 962
Flags: W
LayerCount: 2
Fore
SplineSet
152 -312 m 1,0,1
 127 -333 127 -333 95.5 -355 c 128,-1,2
 64 -377 64 -377 35 -388 c 1,3,4
 40 -366 40 -366 43 -315 c 128,-1,5
 46 -264 46 -264 47.5 -197.5 c 128,-1,6
 49 -131 49 -131 49.5 -54.5 c 128,-1,7
 50 22 50 22 50 94 c 2,8,-1
 50 670 l 2,9,10
 50 700 50 700 39 722 c 128,-1,11
 28 744 28 744 0 755 c 1,12,13
 15 768 15 768 33 783 c 128,-1,14
 51 798 51 798 71 810.5 c 128,-1,15
 91 823 91 823 111.5 832.5 c 128,-1,16
 132 842 132 842 152 845 c 1,17,-1
 152 312 l 1,18,19
 177 338 177 338 201 361 c 128,-1,20
 225 384 225 384 251 401 c 128,-1,21
 277 418 277 418 308 427.5 c 128,-1,22
 339 437 339 437 378 437 c 0,23,24
 401 437 401 437 422 428 c 128,-1,25
 443 419 443 419 461 405 c 128,-1,26
 479 391 479 391 494 372.5 c 128,-1,27
 509 354 509 354 520 335 c 1,28,29
 544 358 544 358 566 377 c 128,-1,30
 588 396 588 396 611.5 409.5 c 128,-1,31
 635 423 635 423 662.5 430 c 128,-1,32
 690 437 690 437 725 437 c 0,33,34
 753 437 753 437 780 424.5 c 128,-1,35
 807 412 807 412 828.5 391 c 128,-1,36
 850 370 850 370 863 343.5 c 128,-1,37
 876 317 876 317 876 289 c 0,38,39
 876 249 876 249 849 196.5 c 128,-1,40
 822 144 822 144 781 94 c 1,41,42
 832 96 832 96 872 98.5 c 128,-1,43
 912 101 912 101 929 105 c 1,44,45
 924 91 924 91 911 72.5 c 128,-1,46
 898 54 898 54 884 38 c 0,47,48
 868 19 868 19 849 0 c 1,49,-1
 152 0 l 1,50,-1
 152 -312 l 1,0,1
804 182 m 0,51,52
 804 212 804 212 792.5 244.5 c 128,-1,53
 781 277 781 277 760 304 c 128,-1,54
 739 331 739 331 710.5 348.5 c 128,-1,55
 682 366 682 366 649 366 c 0,56,57
 637 366 637 366 616.5 359.5 c 128,-1,58
 596 353 596 353 576.5 342.5 c 128,-1,59
 557 332 557 332 542.5 318.5 c 128,-1,60
 528 305 528 305 528 291 c 0,61,62
 528 250 528 250 500 195.5 c 128,-1,63
 472 141 472 141 430 90 c 1,64,65
 512 90 512 90 593 90.5 c 128,-1,66
 674 91 674 91 756 93 c 1,67,68
 779 110 779 110 791.5 133 c 128,-1,69
 804 156 804 156 804 182 c 0,51,52
456 182 m 0,70,71
 456 212 456 212 444.5 244.5 c 128,-1,72
 433 277 433 277 412.5 304 c 128,-1,73
 392 331 392 331 364 348.5 c 128,-1,74
 336 366 336 366 302 366 c 0,75,76
 282 366 282 366 261.5 357.5 c 128,-1,77
 241 349 241 349 221 336 c 128,-1,78
 201 323 201 323 183.5 308.5 c 128,-1,79
 166 294 166 294 152 281 c 1,80,-1
 152 91 l 1,81,-1
 403 91 l 1,82,83
 428 106 428 106 442 130.5 c 128,-1,84
 456 155 456 155 456 182 c 0,70,71
EndSplineSet
Validated: 1
EndChar

StartChar: X
Encoding: 88 88 48
Width: 924
Flags: W
LayerCount: 2
Fore
SplineSet
724 670 m 2,0,1
 724 700 724 700 713.5 722 c 128,-1,2
 703 744 703 744 674 755 c 1,3,4
 689 768 689 768 707 783 c 128,-1,5
 725 798 725 798 745 810.5 c 128,-1,6
 765 823 765 823 785.5 832.5 c 128,-1,7
 806 842 806 842 826 845 c 1,8,-1
 826 -253 l 2,9,10
 826 -283 826 -283 837 -305 c 128,-1,11
 848 -327 848 -327 876 -338 c 1,12,13
 861 -351 861 -351 843 -365.5 c 128,-1,14
 825 -380 825 -380 805 -393 c 128,-1,15
 785 -406 785 -406 764.5 -415.5 c 128,-1,16
 744 -425 744 -425 724 -428 c 1,17,-1
 724 105 l 1,18,19
 699 79 699 79 675 56.5 c 128,-1,20
 651 34 651 34 625 17 c 128,-1,21
 599 0 599 0 568 -10 c 128,-1,22
 537 -20 537 -20 498 -20 c 0,23,24
 475 -20 475 -20 453.5 -11 c 128,-1,25
 432 -2 432 -2 414 12 c 128,-1,26
 396 26 396 26 381 44.5 c 128,-1,27
 366 63 366 63 356 82 c 1,28,29
 332 59 332 59 310 40 c 128,-1,30
 288 21 288 21 264.5 7.5 c 128,-1,31
 241 -6 241 -6 213.5 -13 c 128,-1,32
 186 -20 186 -20 151 -20 c 0,33,34
 123 -20 123 -20 96 -7.5 c 128,-1,35
 69 5 69 5 47.5 26 c 128,-1,36
 26 47 26 47 13 73.5 c 128,-1,37
 0 100 0 100 0 128 c 0,38,39
 0 148 0 148 7.5 174 c 128,-1,40
 15 200 15 200 28.5 227.5 c 128,-1,41
 42 255 42 255 59.5 283.5 c 128,-1,42
 77 312 77 312 98 337 c 1,43,-1
 0 337 l 1,44,45
 4 357 4 357 15.5 379 c 128,-1,46
 27 401 27 401 41.5 420.5 c 128,-1,47
 56 440 56 440 70 455 c 128,-1,48
 84 470 84 470 94 477 c 1,49,50
 105 449 105 449 122 438 c 128,-1,51
 139 427 139 427 169 427 c 2,52,-1
 410 427 l 2,53,54
 489 427 489 427 567.5 427.5 c 128,-1,55
 646 428 646 428 724 430 c 1,56,-1
 724 670 l 2,0,1
125 337 m 1,57,58
 100 321 100 321 86 291.5 c 128,-1,59
 72 262 72 262 72 236 c 0,60,61
 72 205 72 205 83.5 172.5 c 128,-1,62
 95 140 95 140 116 113 c 128,-1,63
 137 86 137 86 165.5 69 c 128,-1,64
 194 52 194 52 227 52 c 0,65,66
 239 52 239 52 259.5 58.5 c 128,-1,67
 280 65 280 65 299.5 75.5 c 128,-1,68
 319 86 319 86 333 99 c 128,-1,69
 347 112 347 112 347 126 c 0,70,71
 347 146 347 146 354.5 172 c 128,-1,72
 362 198 362 198 375.5 226.5 c 128,-1,73
 389 255 389 255 406.5 283.5 c 128,-1,74
 424 312 424 312 445 337 c 1,75,-1
 125 337 l 1,57,58
473 337 m 1,76,77
 448 321 448 321 434 291.5 c 128,-1,78
 420 262 420 262 420 236 c 0,79,80
 420 205 420 205 431.5 172.5 c 128,-1,81
 443 140 443 140 463.5 113 c 128,-1,82
 484 86 484 86 512 69 c 128,-1,83
 540 52 540 52 574 52 c 0,84,85
 594 52 594 52 614.5 60.5 c 128,-1,86
 635 69 635 69 655 81.5 c 128,-1,87
 675 94 675 94 692.5 109 c 128,-1,88
 710 124 710 124 724 137 c 1,89,-1
 724 337 l 1,90,-1
 473 337 l 1,76,77
EndSplineSet
Validated: 1
EndChar

StartChar: Y
Encoding: 89 89 49
Width: 0
Flags: W
LayerCount: 2
Fore
SplineSet
222 926 m 0,0,1
 222 906 222 906 210 884.5 c 128,-1,2
 198 863 198 863 184 846 c 0,3,4
 167 826 167 826 146 806 c 1,5,6
 138 837 138 837 122 862 c 0,7,8
 108 883 108 883 86 900.5 c 128,-1,9
 64 918 64 918 29 918 c 0,10,11
 -34 918 -34 918 -87 893.5 c 128,-1,12
 -140 869 -140 869 -182 827 c 128,-1,13
 -224 785 -224 785 -255 729.5 c 128,-1,14
 -286 674 -286 674 -304 612 c 0,15,16
 -306 607 -306 607 -310 607 c 0,17,18
 -317 607 -317 607 -317 617 c 0,19,20
 -312 644 -312 644 -296 682 c 128,-1,21
 -280 720 -280 720 -253.5 761.5 c 128,-1,22
 -227 803 -227 803 -192 844 c 128,-1,23
 -157 885 -157 885 -113.5 917.5 c 128,-1,24
 -70 950 -70 950 -19.5 970 c 128,-1,25
 31 990 31 990 87 990 c 0,26,27
 121 990 121 990 146.5 982 c 128,-1,28
 172 974 172 974 188.5 963.5 c 128,-1,29
 205 953 205 953 213.5 942.5 c 128,-1,30
 222 932 222 932 222 926 c 0,0,1
EndSplineSet
Validated: 1
EndChar

StartChar: Z
Encoding: 90 90 50
Width: 584
Flags: W
LayerCount: 2
Fore
SplineSet
385 105 m 1,0,1
 359 79 359 79 334.5 56 c 128,-1,2
 310 33 310 33 283 16 c 128,-1,3
 256 -1 256 -1 225 -10.5 c 128,-1,4
 194 -20 194 -20 154 -20 c 0,5,6
 127 -20 127 -20 99.5 -7.5 c 128,-1,7
 72 5 72 5 50 26 c 128,-1,8
 28 47 28 47 14 73.5 c 128,-1,9
 0 100 0 100 0 128 c 0,10,11
 0 149 0 149 8 175 c 128,-1,12
 16 201 16 201 29.5 228.5 c 128,-1,13
 43 256 43 256 61.5 284 c 128,-1,14
 80 312 80 312 101 337 c 1,15,-1
 0 337 l 1,16,17
 4 357 4 357 15.5 379 c 128,-1,18
 27 401 27 401 41.5 420.5 c 128,-1,19
 56 440 56 440 70 455 c 128,-1,20
 84 470 84 470 94 477 c 1,21,22
 105 449 105 449 122 438 c 128,-1,23
 139 427 139 427 169 427 c 2,24,-1
 385 427 l 1,25,-1
 385 670 l 2,26,27
 385 700 385 700 374.5 722 c 128,-1,28
 364 744 364 744 335 755 c 1,29,30
 350 768 350 768 368 783 c 128,-1,31
 386 798 386 798 406 810.5 c 128,-1,32
 426 823 426 823 446.5 832.5 c 128,-1,33
 467 842 467 842 487 845 c 1,34,-1
 487 -253 l 2,35,36
 487 -283 487 -283 498 -305 c 128,-1,37
 509 -327 509 -327 537 -338 c 1,38,39
 522 -351 522 -351 504 -365.5 c 128,-1,40
 486 -380 486 -380 466 -393 c 128,-1,41
 446 -406 446 -406 425.5 -415.5 c 128,-1,42
 405 -425 405 -425 385 -428 c 1,43,-1
 385 105 l 1,0,1
128 337 m 1,44,45
 103 321 103 321 88.5 292 c 128,-1,46
 74 263 74 263 74 236 c 0,47,48
 74 204 74 204 86 171.5 c 128,-1,49
 98 139 98 139 119 112.5 c 128,-1,50
 140 86 140 86 169 69 c 128,-1,51
 198 52 198 52 232 52 c 0,52,53
 252 52 252 52 273 60.5 c 128,-1,54
 294 69 294 69 314.5 81.5 c 128,-1,55
 335 94 335 94 353 109 c 128,-1,56
 371 124 371 124 385 137 c 1,57,-1
 385 337 l 1,58,-1
 128 337 l 1,44,45
EndSplineSet
Validated: 1
EndChar

StartChar: bracketleft
Encoding: 91 91 51
Width: 0
Flags: W
LayerCount: 2
Fore
SplineSet
-32 577 m 1,0,1
 -37 562 -37 562 -56.5 547 c 128,-1,2
 -76 532 -76 532 -97 519 c 0,3,4
 -122 504 -122 504 -152 491 c 1,5,-1
 -411 491 l 2,6,7
 -462 491 -462 491 -502 487.5 c 128,-1,8
 -542 484 -542 484 -559 479 c 1,9,10
 -554 493 -554 493 -534.5 508.5 c 128,-1,11
 -515 524 -515 524 -494 537 c 0,12,13
 -469 552 -469 552 -439 565 c 1,14,-1
 -180 565 l 2,15,16
 -129 565 -129 565 -89 568.5 c 128,-1,17
 -49 572 -49 572 -32 577 c 1,0,1
EndSplineSet
Validated: 1
EndChar

StartChar: backslash
Encoding: 92 92 52
Width: 649
Flags: W
LayerCount: 2
Fore
SplineSet
619 213 m 1,0,1
 596 187 596 187 570 170.5 c 128,-1,2
 544 154 544 154 515.5 145 c 128,-1,3
 487 136 487 136 455.5 133 c 128,-1,4
 424 130 424 130 389 130 c 0,5,6
 347 130 347 130 305.5 137.5 c 128,-1,7
 264 145 264 145 223.5 154.5 c 128,-1,8
 183 164 183 164 141.5 171.5 c 128,-1,9
 100 179 100 179 58 179 c 0,10,11
 27 179 27 179 0 172 c 1,12,13
 22 194 22 194 46 206.5 c 128,-1,14
 70 219 70 219 96 225 c 128,-1,15
 122 231 122 231 150 232.5 c 128,-1,16
 178 234 178 234 209 234 c 0,17,18
 248 234 248 234 286.5 228 c 128,-1,19
 325 222 325 222 363.5 215 c 128,-1,20
 402 208 402 208 440.5 202 c 128,-1,21
 479 196 479 196 518 196 c 0,22,23
 544 196 544 196 569 200 c 128,-1,24
 594 204 594 204 619 213 c 1,0,1
EndSplineSet
Validated: 1
EndChar

StartChar: bracketright
Encoding: 93 93 53
Width: 476
Flags: W
LayerCount: 2
Fore
SplineSet
430 97 m 0,0,1
 430 96 430 96 428 92 c 0,2,3
 414 74 414 74 393.5 54 c 128,-1,4
 373 34 373 34 346 17.5 c 128,-1,5
 319 1 319 1 287.5 -9.5 c 128,-1,6
 256 -20 256 -20 222 -20 c 0,7,8
 181 -20 181 -20 141.5 -11.5 c 128,-1,9
 102 -3 102 -3 70.5 16.5 c 128,-1,10
 39 36 39 36 19.5 67.5 c 128,-1,11
 0 99 0 99 0 146 c 0,12,13
 0 194 0 194 16.5 234.5 c 128,-1,14
 33 275 33 275 60 307 c 128,-1,15
 87 339 87 339 120 363 c 128,-1,16
 153 387 153 387 186 403 c 128,-1,17
 219 419 219 419 248 427 c 128,-1,18
 277 435 277 435 296 435 c 0,19,20
 332 435 332 435 365.5 421.5 c 128,-1,21
 399 408 399 408 428 387 c 1,22,-1
 357 304 l 1,23,24
 344 313 344 313 327 322 c 128,-1,25
 310 331 310 331 292 338 c 128,-1,26
 274 345 274 345 256 349.5 c 128,-1,27
 238 354 238 354 222 354 c 0,28,29
 178 354 178 354 148.5 343.5 c 128,-1,30
 119 333 119 333 102 314 c 128,-1,31
 85 295 85 295 78 270 c 128,-1,32
 71 245 71 245 71 217 c 0,33,34
 71 174 71 174 92.5 143 c 128,-1,35
 114 112 114 112 147.5 91.5 c 128,-1,36
 181 71 181 71 221.5 61.5 c 128,-1,37
 262 52 262 52 300 52 c 0,38,39
 328 52 328 52 347 57 c 128,-1,40
 366 62 366 62 380 69 c 128,-1,41
 394 76 394 76 404 84 c 128,-1,42
 414 92 414 92 423 99 c 0,43,44
 425 101 425 101 427 101 c 0,45,46
 430 101 430 101 430 97 c 0,0,1
EndSplineSet
Validated: 1
EndChar

StartChar: asciicircum
Encoding: 94 94 54
Width: 0
Flags: W
LayerCount: 2
Fore
SplineSet
102 926 m 0,0,1
 102 906 102 906 90 884.5 c 128,-1,2
 78 863 78 863 64 846 c 0,3,4
 47 826 47 826 26 806 c 1,5,6
 18 837 18 837 2 862 c 0,7,8
 -12 883 -12 883 -34 900.5 c 128,-1,9
 -56 918 -56 918 -91 918 c 0,10,11
 -154 918 -154 918 -207 893.5 c 128,-1,12
 -260 869 -260 869 -302 827 c 128,-1,13
 -344 785 -344 785 -375 729.5 c 128,-1,14
 -406 674 -406 674 -424 612 c 0,15,16
 -426 607 -426 607 -430 607 c 0,17,18
 -437 607 -437 607 -437 617 c 0,19,20
 -432 644 -432 644 -416 682 c 128,-1,21
 -400 720 -400 720 -373.5 761.5 c 128,-1,22
 -347 803 -347 803 -312 844 c 128,-1,23
 -277 885 -277 885 -233.5 917.5 c 128,-1,24
 -190 950 -190 950 -139.5 970 c 128,-1,25
 -89 990 -89 990 -33 990 c 0,26,27
 1 990 1 990 26.5 982 c 128,-1,28
 52 974 52 974 68.5 963.5 c 128,-1,29
 85 953 85 953 93.5 942.5 c 128,-1,30
 102 932 102 932 102 926 c 0,0,1
EndSplineSet
Validated: 1
EndChar

StartChar: underscore
Encoding: 95 95 55
Width: 357
Flags: W
LayerCount: 2
Fore
SplineSet
-196 -89 m 1,0,-1
 201 -89 l 2,1,2
 222 -89 222 -89 242 -96.5 c 128,-1,3
 262 -104 262 -104 277 -117.5 c 128,-1,4
 292 -131 292 -131 301 -150.5 c 128,-1,5
 310 -170 310 -170 310 -193 c 0,6,7
 310 -232 310 -232 287 -274.5 c 128,-1,8
 264 -317 264 -317 229 -352 c 128,-1,9
 194 -387 194 -387 151 -410 c 128,-1,10
 108 -433 108 -433 68 -433 c 0,11,12
 48 -433 48 -433 26 -426 c 128,-1,13
 4 -419 4 -419 -14 -405.5 c 128,-1,14
 -32 -392 -32 -392 -44 -373 c 128,-1,15
 -56 -354 -56 -354 -57 -330 c 1,16,-1
 51 -295 l 1,17,18
 52 -310 52 -310 58.5 -324 c 128,-1,19
 65 -338 65 -338 75.5 -349 c 128,-1,20
 86 -360 86 -360 100 -366.5 c 128,-1,21
 114 -373 114 -373 129 -373 c 0,22,23
 147 -373 147 -373 164.5 -365.5 c 128,-1,24
 182 -358 182 -358 195.5 -344.5 c 128,-1,25
 209 -331 209 -331 217 -313 c 128,-1,26
 225 -295 225 -295 225 -273 c 256,27,28
 225 -251 225 -251 215.5 -233.5 c 128,-1,29
 206 -216 206 -216 189.5 -203.5 c 128,-1,30
 173 -191 173 -191 150.5 -184.5 c 128,-1,31
 128 -178 128 -178 103 -178 c 2,32,-1
 -244 -179 l 1,33,-1
 -196 -89 l 1,0,-1
EndSplineSet
Validated: 1
EndChar

StartChar: grave
Encoding: 96 96 56
Width: 242
Flags: W
LayerCount: 2
Fore
SplineSet
172 58 m 1,0,1
 147 37 147 37 115.5 15 c 128,-1,2
 84 -7 84 -7 55 -18 c 1,3,4
 60 5 60 5 63 23.5 c 128,-1,5
 66 42 66 42 67.5 62.5 c 128,-1,6
 69 83 69 83 69.5 107.5 c 128,-1,7
 70 132 70 132 70 166 c 2,8,-1
 70 280 l 2,9,10
 70 310 70 310 59 332 c 128,-1,11
 48 354 48 354 20 365 c 1,12,13
 35 378 35 378 53 393 c 128,-1,14
 71 408 71 408 91 420.5 c 128,-1,15
 111 433 111 433 131.5 442.5 c 128,-1,16
 152 452 152 452 172 455 c 1,17,-1
 172 58 l 1,0,1
EndSplineSet
Validated: 1
EndChar

StartChar: a
Encoding: 97 97 57
Width: 584
Flags: W
LayerCount: 2
Fore
SplineSet
537 -338 m 1,0,1
 522 -351 522 -351 504 -365.5 c 128,-1,2
 486 -380 486 -380 466 -393 c 128,-1,3
 446 -406 446 -406 425.5 -415.5 c 128,-1,4
 405 -425 405 -425 385 -428 c 1,5,-1
 385 105 l 1,6,7
 359 79 359 79 334.5 56 c 128,-1,8
 310 33 310 33 283 16 c 128,-1,9
 256 -1 256 -1 225 -10.5 c 128,-1,10
 194 -20 194 -20 154 -20 c 0,11,12
 127 -20 127 -20 99.5 -7.5 c 128,-1,13
 72 5 72 5 50 26 c 128,-1,14
 28 47 28 47 14 73.5 c 128,-1,15
 0 100 0 100 0 128 c 0,16,17
 0 152 0 152 10.5 183.5 c 128,-1,18
 21 215 21 215 39.5 248.5 c 128,-1,19
 58 282 58 282 82 314 c 128,-1,20
 106 346 106 346 133 371 c 128,-1,21
 160 396 160 396 188 411.5 c 128,-1,22
 216 427 216 427 242 427 c 0,23,24
 250 427 250 427 260 420 c 128,-1,25
 270 413 270 413 279 405 c 0,26,27
 290 395 290 395 301 383 c 1,28,-1
 244 319 l 1,29,30
 227 331 227 331 208 340 c 128,-1,31
 189 349 189 349 168 349 c 256,32,33
 147 349 147 349 129.5 338 c 128,-1,34
 112 327 112 327 100 310.5 c 128,-1,35
 88 294 88 294 81 274 c 128,-1,36
 74 254 74 254 74 236 c 0,37,38
 74 204 74 204 86 171.5 c 128,-1,39
 98 139 98 139 119 112.5 c 128,-1,40
 140 86 140 86 169 69 c 128,-1,41
 198 52 198 52 232 52 c 0,42,43
 252 52 252 52 273 60.5 c 128,-1,44
 294 69 294 69 314.5 81.5 c 128,-1,45
 335 94 335 94 353 109 c 128,-1,46
 371 124 371 124 385 137 c 1,47,-1
 385 360 l 1,48,49
 410 380 410 380 441.5 402.5 c 128,-1,50
 473 425 473 425 502 436 c 1,51,52
 497 414 497 414 494 363.5 c 128,-1,53
 491 313 491 313 489.5 246 c 128,-1,54
 488 179 488 179 487.5 102.5 c 128,-1,55
 487 26 487 26 487 -47 c 2,56,-1
 487 -253 l 2,57,58
 487 -283 487 -283 498 -305 c 128,-1,59
 509 -327 509 -327 537 -338 c 1,0,1
EndSplineSet
Validated: 1
EndChar

StartChar: b
Encoding: 98 98 58
Width: 953
Flags: W
LayerCount: 2
Fore
SplineSet
906 443 m 1,0,1
 901 429 901 429 889 412 c 128,-1,2
 877 395 877 395 864 379.5 c 128,-1,3
 851 364 851 364 840.5 352.5 c 128,-1,4
 830 341 830 341 827 338 c 0,5,6
 827 331 827 331 826.5 322 c 128,-1,7
 826 313 826 313 826 293 c 128,-1,8
 826 273 826 273 826 238 c 128,-1,9
 826 203 826 203 826 146 c 0,10,11
 826 117 826 117 837 100 c 128,-1,12
 848 83 848 83 876 72 c 1,13,14
 861 58 861 58 843 43.5 c 128,-1,15
 825 29 825 29 805 16 c 128,-1,16
 785 3 785 3 764.5 -6 c 128,-1,17
 744 -15 744 -15 724 -18 c 1,18,-1
 724 105 l 1,19,20
 699 79 699 79 675 56.5 c 128,-1,21
 651 34 651 34 625 17 c 128,-1,22
 599 0 599 0 568 -10 c 128,-1,23
 537 -20 537 -20 498 -20 c 0,24,25
 475 -20 475 -20 453.5 -11 c 128,-1,26
 432 -2 432 -2 414 12 c 128,-1,27
 396 26 396 26 381 44.5 c 128,-1,28
 366 63 366 63 356 82 c 1,29,30
 332 59 332 59 310 40 c 128,-1,31
 288 21 288 21 264.5 7.5 c 128,-1,32
 241 -6 241 -6 213.5 -13 c 128,-1,33
 186 -20 186 -20 151 -20 c 0,34,35
 123 -20 123 -20 96 -7.5 c 128,-1,36
 69 5 69 5 47.5 26 c 128,-1,37
 26 47 26 47 13 73.5 c 128,-1,38
 0 100 0 100 0 128 c 0,39,40
 0 148 0 148 7.5 174 c 128,-1,41
 15 200 15 200 28.5 227.5 c 128,-1,42
 42 255 42 255 59.5 283.5 c 128,-1,43
 77 312 77 312 98 337 c 1,44,-1
 0 337 l 1,45,46
 4 357 4 357 15.5 379 c 128,-1,47
 27 401 27 401 41.5 420.5 c 128,-1,48
 56 440 56 440 70 455 c 128,-1,49
 84 470 84 470 94 477 c 1,50,51
 105 449 105 449 122 438 c 128,-1,52
 139 427 139 427 169 427 c 2,53,-1
 386 427 l 2,54,55
 417 427 417 427 463 427 c 128,-1,56
 509 427 509 427 560.5 427.5 c 128,-1,57
 612 428 612 428 665.5 429 c 128,-1,58
 719 430 719 430 766 432 c 128,-1,59
 813 434 813 434 850 436.5 c 128,-1,60
 887 439 887 439 906 443 c 1,0,1
724 337 m 1,61,-1
 473 337 l 1,62,63
 448 321 448 321 434 291.5 c 128,-1,64
 420 262 420 262 420 236 c 0,65,66
 420 205 420 205 431.5 172.5 c 128,-1,67
 443 140 443 140 463.5 113 c 128,-1,68
 484 86 484 86 512 69 c 128,-1,69
 540 52 540 52 574 52 c 0,70,71
 594 52 594 52 614.5 60.5 c 128,-1,72
 635 69 635 69 655 81.5 c 128,-1,73
 675 94 675 94 692.5 109 c 128,-1,74
 710 124 710 124 724 137 c 1,75,-1
 724 337 l 1,61,-1
125 337 m 1,76,77
 100 321 100 321 86 291.5 c 128,-1,78
 72 262 72 262 72 236 c 0,79,80
 72 205 72 205 83.5 172.5 c 128,-1,81
 95 140 95 140 116 113 c 128,-1,82
 137 86 137 86 165.5 69 c 128,-1,83
 194 52 194 52 227 52 c 0,84,85
 239 52 239 52 259.5 58.5 c 128,-1,86
 280 65 280 65 299.5 75.5 c 128,-1,87
 319 86 319 86 333 99 c 128,-1,88
 347 112 347 112 347 126 c 0,89,90
 347 146 347 146 354.5 172 c 128,-1,91
 362 198 362 198 375.5 226.5 c 128,-1,92
 389 255 389 255 406.5 283.5 c 128,-1,93
 424 312 424 312 445 337 c 1,94,-1
 125 337 l 1,76,77
EndSplineSet
Validated: 1
EndChar

StartChar: c
Encoding: 99 99 59
Width: 584
Flags: W
LayerCount: 2
Fore
SplineSet
537 71 m 1,0,1
 522 58 522 58 504 43.5 c 128,-1,2
 486 29 486 29 466 16 c 128,-1,3
 446 3 446 3 425.5 -6 c 128,-1,4
 405 -15 405 -15 385 -18 c 1,5,-1
 385 105 l 1,6,7
 359 79 359 79 334.5 56 c 128,-1,8
 310 33 310 33 283 16 c 128,-1,9
 256 -1 256 -1 225 -10.5 c 128,-1,10
 194 -20 194 -20 154 -20 c 0,11,12
 127 -20 127 -20 99.5 -7.5 c 128,-1,13
 72 5 72 5 50 26 c 128,-1,14
 28 47 28 47 14 73.5 c 128,-1,15
 0 100 0 100 0 128 c 0,16,17
 0 149 0 149 8 175 c 128,-1,18
 16 201 16 201 29.5 228.5 c 128,-1,19
 43 256 43 256 61.5 284 c 128,-1,20
 80 312 80 312 101 337 c 1,21,-1
 0 337 l 1,22,23
 4 357 4 357 15.5 379 c 128,-1,24
 27 401 27 401 41.5 420.5 c 128,-1,25
 56 440 56 440 70 455 c 128,-1,26
 84 470 84 470 94 477 c 1,27,28
 105 449 105 449 122 438 c 128,-1,29
 139 427 139 427 169 427 c 2,30,-1
 385 427 l 1,31,-1
 385 670 l 2,32,33
 385 700 385 700 374.5 722 c 128,-1,34
 364 744 364 744 335 755 c 1,35,36
 350 768 350 768 368 783 c 128,-1,37
 386 798 386 798 406 810.5 c 128,-1,38
 426 823 426 823 446.5 832.5 c 128,-1,39
 467 842 467 842 487 845 c 1,40,-1
 487 146 l 2,41,42
 487 117 487 117 498 99.5 c 128,-1,43
 509 82 509 82 537 71 c 1,0,1
128 337 m 1,44,45
 103 321 103 321 88.5 292 c 128,-1,46
 74 263 74 263 74 236 c 0,47,48
 74 204 74 204 86 171.5 c 128,-1,49
 98 139 98 139 119 112.5 c 128,-1,50
 140 86 140 86 169 69 c 128,-1,51
 198 52 198 52 232 52 c 0,52,53
 252 52 252 52 273 60.5 c 128,-1,54
 294 69 294 69 314.5 81.5 c 128,-1,55
 335 94 335 94 353 109 c 128,-1,56
 371 124 371 124 385 137 c 1,57,-1
 385 337 l 1,58,-1
 128 337 l 1,44,45
EndSplineSet
Validated: 1
EndChar

StartChar: d
Encoding: 100 100 60
Width: 584
Flags: W
LayerCount: 2
Fore
SplineSet
537 71 m 1,0,1
 522 58 522 58 504 43.5 c 128,-1,2
 486 29 486 29 466 16 c 128,-1,3
 446 3 446 3 425.5 -6 c 128,-1,4
 405 -15 405 -15 385 -18 c 1,5,-1
 385 105 l 1,6,7
 359 79 359 79 334.5 56 c 128,-1,8
 310 33 310 33 283 16 c 128,-1,9
 256 -1 256 -1 225 -10.5 c 128,-1,10
 194 -20 194 -20 154 -20 c 0,11,12
 127 -20 127 -20 99.5 -7.5 c 128,-1,13
 72 5 72 5 50 26 c 128,-1,14
 28 47 28 47 14 73.5 c 128,-1,15
 0 100 0 100 0 128 c 0,16,17
 0 152 0 152 10.5 183.5 c 128,-1,18
 21 215 21 215 39.5 248.5 c 128,-1,19
 58 282 58 282 82 314 c 128,-1,20
 106 346 106 346 133 371 c 128,-1,21
 160 396 160 396 188 411.5 c 128,-1,22
 216 427 216 427 242 427 c 0,23,24
 250 427 250 427 260 420 c 128,-1,25
 270 413 270 413 279 405 c 0,26,27
 290 395 290 395 301 383 c 1,28,-1
 244 319 l 1,29,30
 227 331 227 331 208 340 c 128,-1,31
 189 349 189 349 168 349 c 256,32,33
 147 349 147 349 129.5 338 c 128,-1,34
 112 327 112 327 100 310.5 c 128,-1,35
 88 294 88 294 81 274 c 128,-1,36
 74 254 74 254 74 236 c 0,37,38
 74 204 74 204 86 171.5 c 128,-1,39
 98 139 98 139 119 112.5 c 128,-1,40
 140 86 140 86 169 69 c 128,-1,41
 198 52 198 52 232 52 c 0,42,43
 252 52 252 52 273 60.5 c 128,-1,44
 294 69 294 69 314.5 81.5 c 128,-1,45
 335 94 335 94 353 109 c 128,-1,46
 371 124 371 124 385 137 c 1,47,-1
 385 670 l 2,48,49
 385 700 385 700 374.5 722 c 128,-1,50
 364 744 364 744 335 755 c 1,51,52
 350 768 350 768 368 783 c 128,-1,53
 386 798 386 798 406 810.5 c 128,-1,54
 426 823 426 823 446.5 832.5 c 128,-1,55
 467 842 467 842 487 845 c 1,56,-1
 487 146 l 2,57,58
 487 117 487 117 498 99.5 c 128,-1,59
 509 82 509 82 537 71 c 1,0,1
EndSplineSet
Validated: 1
EndChar

StartChar: e
Encoding: 101 101 61
Width: 629
Flags: W
LayerCount: 2
Fore
SplineSet
590 105 m 1,0,1
 585 91 585 91 572 72.5 c 128,-1,2
 559 54 559 54 545 38 c 0,3,4
 529 19 529 19 510 0 c 1,5,-1
 0 0 l 1,6,7
 5 21 5 21 17.5 44 c 128,-1,8
 30 67 30 67 45 87 c 1,9,10
 47 124 47 124 48 169.5 c 128,-1,11
 49 215 49 215 49.5 264 c 128,-1,12
 50 313 50 313 50 364 c 128,-1,13
 50 415 50 415 50 464 c 2,14,-1
 50 670 l 2,15,16
 50 700 50 700 39 722 c 128,-1,17
 28 744 28 744 0 755 c 1,18,19
 15 768 15 768 33 783 c 128,-1,20
 51 798 51 798 71 810.5 c 128,-1,21
 91 823 91 823 111.5 832.5 c 128,-1,22
 132 842 132 842 152 845 c 1,23,-1
 152 312 l 1,24,25
 178 338 178 338 202.5 361 c 128,-1,26
 227 384 227 384 254 401 c 128,-1,27
 281 418 281 418 312 427.5 c 128,-1,28
 343 437 343 437 383 437 c 0,29,30
 410 437 410 437 437.5 424.5 c 128,-1,31
 465 412 465 412 487 391 c 128,-1,32
 509 370 509 370 523 343.5 c 128,-1,33
 537 317 537 317 537 289 c 0,34,35
 537 270 537 270 530 245.5 c 128,-1,36
 523 221 523 221 511 195 c 128,-1,37
 499 169 499 169 482 142 c 128,-1,38
 465 115 465 115 446 91 c 1,39,40
 491 93 491 93 527 96 c 128,-1,41
 563 99 563 99 590 105 c 1,0,1
463 182 m 0,42,43
 463 213 463 213 451 245.5 c 128,-1,44
 439 278 439 278 418 305 c 128,-1,45
 397 332 397 332 368 349 c 128,-1,46
 339 366 339 366 305 366 c 0,47,48
 285 366 285 366 264 357.5 c 128,-1,49
 243 349 243 349 222.5 336.5 c 128,-1,50
 202 324 202 324 184 309 c 128,-1,51
 166 294 166 294 152 281 c 1,52,-1
 152 91 l 1,53,54
 200 91 200 91 248 90.5 c 128,-1,55
 296 90 296 90 344 90 c 2,56,-1
 423 90 l 1,57,58
 442 108 442 108 452.5 133.5 c 128,-1,59
 463 159 463 159 463 182 c 0,42,43
EndSplineSet
Validated: 1
EndChar

StartChar: f
Encoding: 102 102 62
Width: 924
Flags: W
LayerCount: 2
Fore
SplineSet
876 71 m 1,0,1
 861 58 861 58 843 43.5 c 128,-1,2
 825 29 825 29 805 16 c 128,-1,3
 785 3 785 3 764.5 -6 c 128,-1,4
 744 -15 744 -15 724 -18 c 1,5,-1
 724 105 l 1,6,7
 699 79 699 79 675 56.5 c 128,-1,8
 651 34 651 34 625 17 c 128,-1,9
 599 0 599 0 568 -10 c 128,-1,10
 537 -20 537 -20 498 -20 c 0,11,12
 475 -20 475 -20 453.5 -11 c 128,-1,13
 432 -2 432 -2 414 12 c 128,-1,14
 396 26 396 26 381 44.5 c 128,-1,15
 366 63 366 63 356 82 c 1,16,17
 332 59 332 59 310 40 c 128,-1,18
 288 21 288 21 264.5 7.5 c 128,-1,19
 241 -6 241 -6 213.5 -13 c 128,-1,20
 186 -20 186 -20 151 -20 c 0,21,22
 123 -20 123 -20 96 -7.5 c 128,-1,23
 69 5 69 5 47.5 26 c 128,-1,24
 26 47 26 47 13 73.5 c 128,-1,25
 0 100 0 100 0 128 c 0,26,27
 0 152 0 152 10.5 183.5 c 128,-1,28
 21 215 21 215 38.5 248 c 128,-1,29
 56 281 56 281 79.5 313 c 128,-1,30
 103 345 103 345 129.5 370.5 c 128,-1,31
 156 396 156 396 183.5 411.5 c 128,-1,32
 211 427 211 427 237 427 c 0,33,34
 244 427 244 427 254 420 c 128,-1,35
 264 413 264 413 273 405 c 0,36,37
 284 395 284 395 295 383 c 1,38,-1
 239 319 l 1,39,40
 222 331 222 331 203.5 340 c 128,-1,41
 185 349 185 349 164 349 c 256,42,43
 143 349 143 349 126 338 c 128,-1,44
 109 327 109 327 97 310 c 128,-1,45
 85 293 85 293 78.5 273.5 c 128,-1,46
 72 254 72 254 72 236 c 0,47,48
 72 205 72 205 83.5 172.5 c 128,-1,49
 95 140 95 140 116 113 c 128,-1,50
 137 86 137 86 165.5 69 c 128,-1,51
 194 52 194 52 227 52 c 0,52,53
 239 52 239 52 259.5 58.5 c 128,-1,54
 280 65 280 65 299.5 75.5 c 128,-1,55
 319 86 319 86 333 99 c 128,-1,56
 347 112 347 112 347 126 c 0,57,58
 347 150 347 150 357.5 181.5 c 128,-1,59
 368 213 368 213 385.5 246.5 c 128,-1,60
 403 280 403 280 426.5 312.5 c 128,-1,61
 450 345 450 345 476 370.5 c 128,-1,62
 502 396 502 396 530 411.5 c 128,-1,63
 558 427 558 427 584 427 c 0,64,65
 591 427 591 427 601 420 c 128,-1,66
 611 413 611 413 620 405 c 0,67,68
 631 395 631 395 642 383 c 1,69,-1
 586 319 l 1,70,71
 569 331 569 331 550.5 340 c 128,-1,72
 532 349 532 349 512 349 c 0,73,74
 491 349 491 349 474 338 c 128,-1,75
 457 327 457 327 445 310 c 128,-1,76
 433 293 433 293 426.5 273.5 c 128,-1,77
 420 254 420 254 420 236 c 0,78,79
 420 205 420 205 431.5 172.5 c 128,-1,80
 443 140 443 140 463.5 113 c 128,-1,81
 484 86 484 86 512 69 c 128,-1,82
 540 52 540 52 574 52 c 0,83,84
 594 52 594 52 614.5 60.5 c 128,-1,85
 635 69 635 69 655 81.5 c 128,-1,86
 675 94 675 94 692.5 109 c 128,-1,87
 710 124 710 124 724 137 c 1,88,-1
 724 670 l 2,89,90
 724 700 724 700 713.5 722 c 128,-1,91
 703 744 703 744 674 755 c 1,92,93
 689 768 689 768 707 783 c 128,-1,94
 725 798 725 798 745 810.5 c 128,-1,95
 765 823 765 823 785.5 832.5 c 128,-1,96
 806 842 806 842 826 845 c 1,97,-1
 826 146 l 2,98,99
 826 117 826 117 837 99.5 c 128,-1,100
 848 82 848 82 876 71 c 1,0,1
EndSplineSet
Validated: 1
EndChar

StartChar: g
Encoding: 103 103 63
Width: 924
Flags: W
LayerCount: 2
Fore
SplineSet
876 72 m 1,0,1
 861 58 861 58 843 43.5 c 128,-1,2
 825 29 825 29 805 16 c 128,-1,3
 785 3 785 3 764.5 -6 c 128,-1,4
 744 -15 744 -15 724 -18 c 1,5,-1
 724 105 l 1,6,7
 699 79 699 79 675 56.5 c 128,-1,8
 651 34 651 34 625 17 c 128,-1,9
 599 0 599 0 568 -10 c 128,-1,10
 537 -20 537 -20 498 -20 c 0,11,12
 475 -20 475 -20 453.5 -11 c 128,-1,13
 432 -2 432 -2 414 12 c 128,-1,14
 396 26 396 26 381 44.5 c 128,-1,15
 366 63 366 63 356 82 c 1,16,17
 332 59 332 59 310 40 c 128,-1,18
 288 21 288 21 264.5 7.5 c 128,-1,19
 241 -6 241 -6 213.5 -13 c 128,-1,20
 186 -20 186 -20 151 -20 c 0,21,22
 123 -20 123 -20 96 -7.5 c 128,-1,23
 69 5 69 5 47.5 26 c 128,-1,24
 26 47 26 47 13 73.5 c 128,-1,25
 0 100 0 100 0 128 c 0,26,27
 0 152 0 152 10.5 183.5 c 128,-1,28
 21 215 21 215 38.5 248 c 128,-1,29
 56 281 56 281 79.5 313 c 128,-1,30
 103 345 103 345 129.5 370.5 c 128,-1,31
 156 396 156 396 183.5 411.5 c 128,-1,32
 211 427 211 427 237 427 c 0,33,34
 244 427 244 427 254 420 c 128,-1,35
 264 413 264 413 273 405 c 0,36,37
 284 395 284 395 295 383 c 1,38,-1
 239 319 l 1,39,40
 222 331 222 331 203.5 340 c 128,-1,41
 185 349 185 349 164 349 c 256,42,43
 143 349 143 349 126 338 c 128,-1,44
 109 327 109 327 97 310 c 128,-1,45
 85 293 85 293 78.5 273.5 c 128,-1,46
 72 254 72 254 72 236 c 0,47,48
 72 205 72 205 83.5 172.5 c 128,-1,49
 95 140 95 140 116 113 c 128,-1,50
 137 86 137 86 165.5 69 c 128,-1,51
 194 52 194 52 227 52 c 0,52,53
 239 52 239 52 259.5 58.5 c 128,-1,54
 280 65 280 65 299.5 75.5 c 128,-1,55
 319 86 319 86 333 99 c 128,-1,56
 347 112 347 112 347 126 c 0,57,58
 347 150 347 150 357.5 181.5 c 128,-1,59
 368 213 368 213 385.5 246.5 c 128,-1,60
 403 280 403 280 426.5 312.5 c 128,-1,61
 450 345 450 345 476 370.5 c 128,-1,62
 502 396 502 396 530 411.5 c 128,-1,63
 558 427 558 427 584 427 c 0,64,65
 591 427 591 427 601 420 c 128,-1,66
 611 413 611 413 620 405 c 0,67,68
 631 395 631 395 642 383 c 1,69,-1
 586 319 l 1,70,71
 569 331 569 331 550.5 340 c 128,-1,72
 532 349 532 349 512 349 c 0,73,74
 491 349 491 349 474 338 c 128,-1,75
 457 327 457 327 445 310 c 128,-1,76
 433 293 433 293 426.5 273.5 c 128,-1,77
 420 254 420 254 420 236 c 0,78,79
 420 205 420 205 431.5 172.5 c 128,-1,80
 443 140 443 140 463.5 113 c 128,-1,81
 484 86 484 86 512 69 c 128,-1,82
 540 52 540 52 574 52 c 0,83,84
 594 52 594 52 614.5 60.5 c 128,-1,85
 635 69 635 69 655 81.5 c 128,-1,86
 675 94 675 94 692.5 109 c 128,-1,87
 710 124 710 124 724 137 c 1,88,-1
 724 359 l 1,89,90
 749 379 749 379 780.5 401.5 c 128,-1,91
 812 424 812 424 841 435 c 1,92,93
 836 413 836 413 833 396 c 128,-1,94
 830 379 830 379 828.5 361.5 c 128,-1,95
 827 344 827 344 826.5 323 c 128,-1,96
 826 302 826 302 826 272 c 2,97,-1
 826 146 l 2,98,99
 826 117 826 117 837 100 c 128,-1,100
 848 83 848 83 876 72 c 1,0,1
EndSplineSet
Validated: 1
EndChar

StartChar: h
Encoding: 104 104 64
Width: 584
Flags: W
LayerCount: 2
Fore
SplineSet
537 71 m 1,0,1
 522 58 522 58 504 43.5 c 128,-1,2
 486 29 486 29 466 16 c 128,-1,3
 446 3 446 3 425.5 -6 c 128,-1,4
 405 -15 405 -15 385 -18 c 1,5,-1
 385 105 l 1,6,7
 359 79 359 79 334.5 56 c 128,-1,8
 310 33 310 33 283 16 c 128,-1,9
 256 -1 256 -1 225 -10.5 c 128,-1,10
 194 -20 194 -20 154 -20 c 0,11,12
 127 -20 127 -20 99.5 -7.5 c 128,-1,13
 72 5 72 5 50 26 c 128,-1,14
 28 47 28 47 14 73.5 c 128,-1,15
 0 100 0 100 0 128 c 0,16,17
 0 152 0 152 10.5 183.5 c 128,-1,18
 21 215 21 215 39.5 248.5 c 128,-1,19
 58 282 58 282 82 314 c 128,-1,20
 106 346 106 346 133 371 c 128,-1,21
 160 396 160 396 188 411.5 c 128,-1,22
 216 427 216 427 242 427 c 0,23,24
 250 427 250 427 260 420 c 128,-1,25
 270 413 270 413 279 405 c 0,26,27
 290 395 290 395 301 383 c 1,28,-1
 244 319 l 1,29,30
 227 331 227 331 208 340 c 128,-1,31
 189 349 189 349 168 349 c 256,32,33
 147 349 147 349 129.5 338 c 128,-1,34
 112 327 112 327 100 310.5 c 128,-1,35
 88 294 88 294 81 274 c 128,-1,36
 74 254 74 254 74 236 c 0,37,38
 74 204 74 204 86 171.5 c 128,-1,39
 98 139 98 139 119 112.5 c 128,-1,40
 140 86 140 86 169 69 c 128,-1,41
 198 52 198 52 232 52 c 0,42,43
 252 52 252 52 273 60.5 c 128,-1,44
 294 69 294 69 314.5 81.5 c 128,-1,45
 335 94 335 94 353 109 c 128,-1,46
 371 124 371 124 385 137 c 1,47,-1
 385 359 l 1,48,49
 410 379 410 379 441.5 401.5 c 128,-1,50
 473 424 473 424 502 435 c 1,51,52
 497 413 497 413 494 396 c 128,-1,53
 491 379 491 379 489.5 361.5 c 128,-1,54
 488 344 488 344 487.5 323 c 128,-1,55
 487 302 487 302 487 272 c 2,56,-1
 487 146 l 2,57,58
 487 117 487 117 498 99.5 c 128,-1,59
 509 82 509 82 537 71 c 1,0,1
EndSplineSet
Validated: 1
EndChar

StartChar: i
Encoding: 105 105 65
Width: 500
Flags: W
LayerCount: 2
Fore
SplineSet
315 65 m 2,0,1
 329 78 329 78 342.5 96 c 128,-1,2
 356 114 356 114 366.5 134.5 c 128,-1,3
 377 155 377 155 383.5 176.5 c 128,-1,4
 390 198 390 198 390 218 c 0,5,6
 390 252 390 252 373 281 c 128,-1,7
 356 310 356 310 329 331 c 128,-1,8
 302 352 302 352 269.5 364 c 128,-1,9
 237 376 237 376 206 376 c 0,10,11
 188 376 188 376 167.5 369 c 128,-1,12
 147 362 147 362 130.5 350 c 128,-1,13
 114 338 114 338 103 320.5 c 128,-1,14
 92 303 92 303 92 282 c 256,15,16
 92 261 92 261 101 242 c 128,-1,17
 110 223 110 223 123 206 c 1,18,-1
 58 149 l 1,19,20
 46 160 46 160 36 171 c 0,21,22
 28 180 28 180 21 190 c 128,-1,23
 14 200 14 200 14 208 c 0,24,25
 14 234 14 234 29.5 262 c 128,-1,26
 45 290 45 290 70 317 c 128,-1,27
 95 344 95 344 127.5 368 c 128,-1,28
 160 392 160 392 193 410.5 c 128,-1,29
 226 429 226 429 257.5 439.5 c 128,-1,30
 289 450 289 450 313 450 c 0,31,32
 341 450 341 450 367.5 436 c 128,-1,33
 394 422 394 422 415 400 c 128,-1,34
 436 378 436 378 448.5 350.5 c 128,-1,35
 461 323 461 323 461 296 c 0,36,37
 461 256 461 256 453 225.5 c 128,-1,38
 445 195 445 195 430.5 168.5 c 128,-1,39
 416 142 416 142 395.5 117 c 128,-1,40
 375 92 375 92 350 65 c 2,41,-1
 70 -239 l 2,42,43
 59 -251 59 -251 51 -265.5 c 128,-1,44
 43 -280 43 -280 43 -297 c 0,45,46
 43 -307 43 -307 47 -318.5 c 128,-1,47
 51 -330 51 -330 57 -341.5 c 128,-1,48
 63 -353 63 -353 70.5 -363 c 128,-1,49
 78 -373 78 -373 84 -381 c 1,50,-1
 8 -418 l 1,51,52
 3 -415 3 -415 -5 -408 c 128,-1,53
 -13 -401 -13 -401 -20 -392.5 c 128,-1,54
 -27 -384 -27 -384 -32 -375 c 128,-1,55
 -37 -366 -37 -366 -37 -359 c 0,56,57
 -37 -342 -37 -342 -28.5 -325.5 c 128,-1,58
 -20 -309 -20 -309 -6.5 -292.5 c 128,-1,59
 7 -276 7 -276 23.5 -259 c 128,-1,60
 40 -242 40 -242 57 -223 c 2,61,-1
 315 65 l 2,0,1
EndSplineSet
Validated: 1
EndChar

StartChar: j
Encoding: 106 106 66
Width: 822
Flags: W
LayerCount: 2
Fore
SplineSet
822 441 m 1,0,1
 817 426 817 426 796 408.5 c 128,-1,2
 775 391 775 391 752 375 c 0,3,4
 725 357 725 357 692 339 c 1,5,-1
 365 339 l 2,6,7
 363 338 363 338 347 327.5 c 128,-1,8
 331 317 331 317 308 297.5 c 128,-1,9
 285 278 285 278 259.5 249 c 128,-1,10
 234 220 234 220 212 181.5 c 128,-1,11
 190 143 190 143 175.5 94.5 c 128,-1,12
 161 46 161 46 161 -12 c 0,13,14
 161 -100 161 -100 194 -162.5 c 128,-1,15
 227 -225 227 -225 273.5 -265 c 128,-1,16
 320 -305 320 -305 368.5 -323.5 c 128,-1,17
 417 -342 417 -342 449 -342 c 0,18,19
 482 -342 482 -342 513.5 -330.5 c 128,-1,20
 545 -319 545 -319 570 -300.5 c 128,-1,21
 595 -282 595 -282 610 -258.5 c 128,-1,22
 625 -235 625 -235 625 -210 c 0,23,24
 625 -189 625 -189 615.5 -165 c 128,-1,25
 606 -141 606 -141 594 -125 c 1,26,-1
 669 -89 l 1,27,28
 679 -100 679 -100 687 -111 c 0,29,30
 694 -120 694 -120 699.5 -130 c 128,-1,31
 705 -140 705 -140 705 -147 c 0,32,33
 705 -176 705 -176 688 -205.5 c 128,-1,34
 671 -235 671 -235 643 -262.5 c 128,-1,35
 615 -290 615 -290 578 -314 c 128,-1,36
 541 -338 541 -338 501.5 -356 c 128,-1,37
 462 -374 462 -374 422.5 -384.5 c 128,-1,38
 383 -395 383 -395 349 -395 c 0,39,40
 311 -395 311 -395 264 -380.5 c 128,-1,41
 217 -366 217 -366 175.5 -331 c 128,-1,42
 134 -296 134 -296 106 -236.5 c 128,-1,43
 78 -177 78 -177 78 -88 c 0,44,45
 78 -38 78 -38 89.5 6.5 c 128,-1,46
 101 51 101 51 119.5 90.5 c 128,-1,47
 138 130 138 130 162 163.5 c 128,-1,48
 186 197 186 197 211 225 c 0,49,50
 270 289 270 289 345 339 c 1,51,-1
 148 339 l 2,52,53
 97 339 97 339 57 335.5 c 128,-1,54
 17 332 17 332 0 327 c 1,55,56
 5 341 5 341 26 359 c 128,-1,57
 47 377 47 377 70 393 c 0,58,59
 97 411 97 411 130 429 c 1,60,-1
 674 429 l 2,61,62
 725 429 725 429 765 432.5 c 128,-1,63
 805 436 805 436 822 441 c 1,0,1
EndSplineSet
Validated: 1
EndChar

StartChar: k
Encoding: 107 107 67
Width: 480
Flags: W
LayerCount: 2
Fore
SplineSet
71 212 m 0,0,1
 71 178 71 178 88 149 c 128,-1,2
 105 120 105 120 132 99 c 128,-1,3
 159 78 159 78 191.5 66 c 128,-1,4
 224 54 224 54 255 54 c 0,5,6
 273 54 273 54 293.5 61 c 128,-1,7
 314 68 314 68 330.5 80 c 128,-1,8
 347 92 347 92 358 109.5 c 128,-1,9
 369 127 369 127 369 148 c 256,10,11
 369 169 369 169 360 188 c 128,-1,12
 351 207 351 207 338 224 c 1,13,-1
 403 281 l 1,14,15
 415 270 415 270 425 259 c 0,16,17
 433 250 433 250 440 240 c 128,-1,18
 447 230 447 230 447 222 c 0,19,20
 447 196 447 196 431.5 168 c 128,-1,21
 416 140 416 140 391 113 c 128,-1,22
 366 86 366 86 333.5 62 c 128,-1,23
 301 38 301 38 268 19.5 c 128,-1,24
 235 1 235 1 203.5 -9.5 c 128,-1,25
 172 -20 172 -20 148 -20 c 0,26,27
 131 -20 131 -20 116.5 -33.5 c 128,-1,28
 102 -47 102 -47 92 -66.5 c 128,-1,29
 82 -86 82 -86 76.5 -106.5 c 128,-1,30
 71 -127 71 -127 71 -141 c 0,31,32
 71 -175 71 -175 88 -204 c 128,-1,33
 105 -233 105 -233 132 -254 c 128,-1,34
 159 -275 159 -275 191.5 -287 c 128,-1,35
 224 -299 224 -299 255 -299 c 0,36,37
 273 -299 273 -299 293.5 -292 c 128,-1,38
 314 -285 314 -285 330.5 -273 c 128,-1,39
 347 -261 347 -261 358 -243.5 c 128,-1,40
 369 -226 369 -226 369 -205 c 256,41,42
 369 -184 369 -184 360 -165 c 128,-1,43
 351 -146 351 -146 338 -129 c 1,44,-1
 403 -72 l 1,45,46
 415 -83 415 -83 425 -94 c 0,47,48
 433 -103 433 -103 440 -113 c 128,-1,49
 447 -123 447 -123 447 -131 c 0,50,51
 447 -157 447 -157 431.5 -185 c 128,-1,52
 416 -213 416 -213 391 -240 c 128,-1,53
 366 -267 366 -267 333.5 -291 c 128,-1,54
 301 -315 301 -315 268 -333.5 c 128,-1,55
 235 -352 235 -352 203.5 -362.5 c 128,-1,56
 172 -373 172 -373 148 -373 c 0,57,58
 120 -373 120 -373 93.5 -359 c 128,-1,59
 67 -345 67 -345 46 -323 c 128,-1,60
 25 -301 25 -301 12.5 -273.5 c 128,-1,61
 0 -246 0 -246 0 -219 c 0,62,63
 0 -148 0 -148 28 -100.5 c 128,-1,64
 56 -53 56 -53 101 -9 c 1,65,66
 80 0 80 0 62 15.5 c 128,-1,67
 44 31 44 31 30 50 c 128,-1,68
 16 69 16 69 8 91 c 128,-1,69
 0 113 0 113 0 134 c 0,70,71
 0 174 0 174 8 204.5 c 128,-1,72
 16 235 16 235 30.5 261.5 c 128,-1,73
 45 288 45 288 65.5 313 c 128,-1,74
 86 338 86 338 111 365 c 2,75,-1
 391 669 l 2,76,77
 402 681 402 681 410 695.5 c 128,-1,78
 418 710 418 710 418 727 c 0,79,80
 418 737 418 737 414 748.5 c 128,-1,81
 410 760 410 760 404 771 c 128,-1,82
 398 782 398 782 390.5 792.5 c 128,-1,83
 383 803 383 803 377 811 c 1,84,-1
 453 848 l 1,85,86
 458 845 458 845 466 838 c 128,-1,87
 474 831 474 831 481 822.5 c 128,-1,88
 488 814 488 814 493 805 c 128,-1,89
 498 796 498 796 498 789 c 0,90,91
 498 772 498 772 489.5 755.5 c 128,-1,92
 481 739 481 739 467.5 722.5 c 128,-1,93
 454 706 454 706 437 689 c 128,-1,94
 420 672 420 672 404 653 c 2,95,-1
 146 365 l 2,96,97
 133 351 133 351 120 333 c 128,-1,98
 107 315 107 315 96 294.5 c 128,-1,99
 85 274 85 274 78 253 c 128,-1,100
 71 232 71 232 71 212 c 0,0,1
EndSplineSet
Validated: 1
EndChar

StartChar: m
Encoding: 109 109 68
Width: 865
Flags: W
LayerCount: 2
Fore
SplineSet
368 -13 m 0,0,1
 403 -13 403 -13 424.5 -10.5 c 128,-1,2
 446 -8 446 -8 462 -5.5 c 128,-1,3
 478 -3 478 -3 494 -0.5 c 128,-1,4
 510 2 510 2 534 2 c 0,5,6
 574 2 574 2 603 -9 c 128,-1,7
 632 -20 632 -20 651 -38 c 128,-1,8
 670 -56 670 -56 679 -79 c 128,-1,9
 688 -102 688 -102 688 -126 c 0,10,11
 688 -147 688 -147 677.5 -175.5 c 128,-1,12
 667 -204 667 -204 648.5 -234 c 128,-1,13
 630 -264 630 -264 606 -293 c 128,-1,14
 582 -322 582 -322 555 -344.5 c 128,-1,15
 528 -367 528 -367 500 -381 c 128,-1,16
 472 -395 472 -395 446 -395 c 0,17,18
 438 -395 438 -395 428 -388 c 128,-1,19
 418 -381 418 -381 409 -373 c 0,20,21
 398 -363 398 -363 387 -351 c 1,22,-1
 444 -286 l 1,23,24
 461 -299 461 -299 480 -308 c 128,-1,25
 499 -317 499 -317 520 -317 c 256,26,27
 541 -317 541 -317 558.5 -309.5 c 128,-1,28
 576 -302 576 -302 588 -290 c 128,-1,29
 600 -278 600 -278 607 -263 c 128,-1,30
 614 -248 614 -248 614 -233 c 0,31,32
 614 -206 614 -206 605 -177 c 128,-1,33
 596 -148 596 -148 576.5 -124 c 128,-1,34
 557 -100 557 -100 527 -84.5 c 128,-1,35
 497 -69 497 -69 456 -69 c 0,36,37
 433 -69 433 -69 415 -72 c 128,-1,38
 397 -75 397 -75 377.5 -78 c 128,-1,39
 358 -81 358 -81 335.5 -84 c 128,-1,40
 313 -87 313 -87 281 -87 c 0,41,42
 253 -87 253 -87 226.5 -73 c 128,-1,43
 200 -59 200 -59 179 -37 c 128,-1,44
 158 -15 158 -15 145.5 12.5 c 128,-1,45
 133 40 133 40 133 67 c 0,46,47
 133 147 133 147 173 217 c 128,-1,48
 213 287 213 287 273 339 c 1,49,-1
 148 339 l 2,50,51
 97 339 97 339 57 335.5 c 128,-1,52
 17 332 17 332 0 327 c 1,53,54
 5 341 5 341 26 359 c 128,-1,55
 47 377 47 377 70 393 c 0,56,57
 97 411 97 411 130 429 c 1,58,-1
 674 429 l 2,59,60
 725 429 725 429 765 432.5 c 128,-1,61
 805 436 805 436 822 441 c 1,62,63
 817 426 817 426 796 408.5 c 128,-1,64
 775 391 775 391 752 375 c 0,65,66
 725 357 725 357 692 339 c 1,67,-1
 305 339 l 1,68,69
 288 325 288 325 270 304.5 c 128,-1,70
 252 284 252 284 237.5 259 c 128,-1,71
 223 234 223 234 213.5 205 c 128,-1,72
 204 176 204 176 204 145 c 0,73,74
 204 111 204 111 218 82 c 128,-1,75
 232 53 232 53 255 32 c 128,-1,76
 278 11 278 11 307.5 -1 c 128,-1,77
 337 -13 337 -13 368 -13 c 0,0,1
EndSplineSet
Validated: 1
EndChar

StartChar: n
Encoding: 110 110 69
Width: 635
Flags: W
LayerCount: 2
Fore
SplineSet
590 443 m 1,0,1
 585 428 585 428 572 410 c 128,-1,2
 559 392 559 392 545 375 c 0,3,4
 529 356 529 356 510 337 c 1,5,-1
 488 337 l 1,6,7
 487 323 487 323 487 307.5 c 128,-1,8
 487 292 487 292 487 272 c 2,9,-1
 487 146 l 2,10,11
 487 117 487 117 498 99.5 c 128,-1,12
 509 82 509 82 537 71 c 1,13,14
 522 58 522 58 504 43.5 c 128,-1,15
 486 29 486 29 466 16 c 128,-1,16
 446 3 446 3 425.5 -6 c 128,-1,17
 405 -15 405 -15 385 -18 c 1,18,-1
 385 105 l 1,19,20
 359 79 359 79 334.5 56 c 128,-1,21
 310 33 310 33 283 16 c 128,-1,22
 256 -1 256 -1 225 -10.5 c 128,-1,23
 194 -20 194 -20 154 -20 c 0,24,25
 127 -20 127 -20 99.5 -7.5 c 128,-1,26
 72 5 72 5 50 26 c 128,-1,27
 28 47 28 47 14 73.5 c 128,-1,28
 0 100 0 100 0 128 c 0,29,30
 0 149 0 149 8 175 c 128,-1,31
 16 201 16 201 29.5 228.5 c 128,-1,32
 43 256 43 256 61.5 284 c 128,-1,33
 80 312 80 312 101 337 c 1,34,-1
 0 337 l 1,35,36
 4 357 4 357 15.5 379 c 128,-1,37
 27 401 27 401 41.5 420.5 c 128,-1,38
 56 440 56 440 70 455 c 128,-1,39
 84 470 84 470 94 477 c 1,40,41
 105 449 105 449 122 438 c 128,-1,42
 139 427 139 427 169 427 c 2,43,-1
 321 427 l 2,44,45
 410 427 410 427 478 429.5 c 128,-1,46
 546 432 546 432 590 443 c 1,0,1
128 337 m 1,47,48
 103 321 103 321 88.5 292 c 128,-1,49
 74 263 74 263 74 236 c 0,50,51
 74 204 74 204 86 171.5 c 128,-1,52
 98 139 98 139 119 112.5 c 128,-1,53
 140 86 140 86 169 69 c 128,-1,54
 198 52 198 52 232 52 c 0,55,56
 252 52 252 52 273 60.5 c 128,-1,57
 294 69 294 69 314.5 81.5 c 128,-1,58
 335 94 335 94 353 109 c 128,-1,59
 371 124 371 124 385 137 c 1,60,-1
 385 337 l 1,61,-1
 128 337 l 1,47,48
EndSplineSet
Validated: 1
EndChar

StartChar: o
Encoding: 111 111 70
Width: 608
Flags: W
LayerCount: 2
Fore
SplineSet
864 -65 m 0,0,1
 864 -83 864 -83 851.5 -100 c 128,-1,2
 839 -117 839 -117 822 -133 c 128,-1,3
 805 -149 805 -149 785.5 -161.5 c 128,-1,4
 766 -174 766 -174 753 -183 c 1,5,6
 765 -155 765 -155 765 -123 c 0,7,8
 765 -69 765 -69 739 -36 c 128,-1,9
 713 -3 713 -3 655 -3 c 0,10,11
 619 -3 619 -3 587.5 -4.5 c 128,-1,12
 556 -6 556 -6 523.5 -7.5 c 128,-1,13
 491 -9 491 -9 454 -11.5 c 128,-1,14
 417 -14 417 -14 371 -15.5 c 128,-1,15
 325 -17 325 -17 267 -18.5 c 128,-1,16
 209 -20 209 -20 133 -20 c 0,17,18
 108 -20 108 -20 84 -6.5 c 128,-1,19
 60 7 60 7 41.5 27.5 c 128,-1,20
 23 48 23 48 11.5 73 c 128,-1,21
 0 98 0 98 0 122 c 0,22,23
 0 179 0 179 24.5 235.5 c 128,-1,24
 49 292 49 292 90 336.5 c 128,-1,25
 131 381 131 381 185 409 c 128,-1,26
 239 437 239 437 299 437 c 0,27,28
 338 437 338 437 369 428 c 128,-1,29
 400 419 400 419 409 396 c 1,30,-1
 409 670 l 2,31,32
 409 700 409 700 398 722 c 128,-1,33
 387 744 387 744 359 755 c 1,34,35
 374 768 374 768 392 783 c 128,-1,36
 410 798 410 798 430 810.5 c 128,-1,37
 450 823 450 823 470.5 832.5 c 128,-1,38
 491 842 491 842 511 845 c 1,39,-1
 511 58 l 1,40,-1
 677 58 l 2,41,42
 712 58 712 58 745.5 55 c 128,-1,43
 779 52 779 52 805.5 39.5 c 128,-1,44
 832 27 832 27 848 2.5 c 128,-1,45
 864 -22 864 -22 864 -65 c 0,0,1
408 256 m 1,46,47
 385 308 385 308 338 337.5 c 128,-1,48
 291 367 291 367 208 367 c 0,49,50
 175 367 175 367 151 352.5 c 128,-1,51
 127 338 127 338 111.5 314 c 128,-1,52
 96 290 96 290 88.5 259.5 c 128,-1,53
 81 229 81 229 81 196 c 0,54,55
 81 169 81 169 91.5 142 c 128,-1,56
 102 115 102 115 120.5 93.5 c 128,-1,57
 139 72 139 72 163.5 59 c 128,-1,58
 188 46 188 46 217 46 c 0,59,60
 240 46 240 46 260 47 c 128,-1,61
 280 48 280 48 301 49 c 128,-1,62
 322 50 322 50 346 51.5 c 128,-1,63
 370 53 370 53 402 55 c 1,64,65
 404 94 404 94 405.5 146 c 128,-1,66
 407 198 407 198 408 256 c 1,46,47
EndSplineSet
Validated: 1
EndChar

StartChar: p
Encoding: 112 112 71
Width: 0
Flags: W
LayerCount: 2
Fore
SplineSet
-31 561 m 1,0,1
 -54 535 -54 535 -78 518.5 c 128,-1,2
 -102 502 -102 502 -128.5 493 c 128,-1,3
 -155 484 -155 484 -185 481 c 128,-1,4
 -215 478 -215 478 -250 478 c 0,5,6
 -289 478 -289 478 -315.5 486 c 128,-1,7
 -342 494 -342 494 -367 503 c 128,-1,8
 -392 512 -392 512 -420.5 520 c 128,-1,9
 -449 528 -449 528 -491 528 c 0,10,11
 -506 528 -506 528 -525.5 526.5 c 128,-1,12
 -545 525 -545 525 -559 520 c 1,13,14
 -537 542 -537 542 -514 554.5 c 128,-1,15
 -491 567 -491 567 -466.5 573.5 c 128,-1,16
 -442 580 -442 580 -416 581.5 c 128,-1,17
 -390 583 -390 583 -363 583 c 0,18,19
 -335 583 -335 583 -309 577 c 128,-1,20
 -283 571 -283 571 -256 564 c 128,-1,21
 -229 557 -229 557 -201 551 c 128,-1,22
 -173 545 -173 545 -141 545 c 0,23,24
 -115 545 -115 545 -85 548.5 c 128,-1,25
 -55 552 -55 552 -31 561 c 1,0,1
EndSplineSet
Validated: 1
EndChar

StartChar: q
Encoding: 113 113 72
Width: 628
Flags: W
LayerCount: 2
Fore
SplineSet
590 105 m 1,0,1
 585 91 585 91 572 72.5 c 128,-1,2
 559 54 559 54 545 38 c 0,3,4
 529 19 529 19 510 0 c 1,5,-1
 152 0 l 1,6,-1
 152 -312 l 1,7,8
 127 -333 127 -333 95.5 -355 c 128,-1,9
 64 -377 64 -377 35 -388 c 1,10,11
 40 -366 40 -366 43 -317 c 128,-1,12
 46 -268 46 -268 47.5 -204 c 128,-1,13
 49 -140 49 -140 49.5 -66.5 c 128,-1,14
 50 7 50 7 50 78 c 2,15,-1
 50 280 l 2,16,17
 50 310 50 310 39 332 c 128,-1,18
 28 354 28 354 0 365 c 1,19,20
 15 378 15 378 33 393 c 128,-1,21
 51 408 51 408 71 420.5 c 128,-1,22
 91 433 91 433 111.5 442.5 c 128,-1,23
 132 452 132 452 152 455 c 1,24,-1
 152 312 l 1,25,26
 178 338 178 338 202.5 361 c 128,-1,27
 227 384 227 384 254 401 c 128,-1,28
 281 418 281 418 312 427.5 c 128,-1,29
 343 437 343 437 383 437 c 0,30,31
 410 437 410 437 437.5 424.5 c 128,-1,32
 465 412 465 412 487 391 c 128,-1,33
 509 370 509 370 523 343.5 c 128,-1,34
 537 317 537 317 537 289 c 0,35,36
 537 270 537 270 530 245.5 c 128,-1,37
 523 221 523 221 511 195 c 128,-1,38
 499 169 499 169 482 142 c 128,-1,39
 465 115 465 115 446 91 c 1,40,41
 491 93 491 93 527 96 c 128,-1,42
 563 99 563 99 590 105 c 1,0,1
463 182 m 0,43,44
 463 213 463 213 451 245.5 c 128,-1,45
 439 278 439 278 418 305 c 128,-1,46
 397 332 397 332 368 349 c 128,-1,47
 339 366 339 366 305 366 c 0,48,49
 285 366 285 366 264 357.5 c 128,-1,50
 243 349 243 349 222.5 336.5 c 128,-1,51
 202 324 202 324 184 309 c 128,-1,52
 166 294 166 294 152 281 c 1,53,-1
 152 91 l 1,54,55
 196 91 196 91 245.5 90.5 c 128,-1,56
 295 90 295 90 344 90 c 2,57,-1
 423 90 l 1,58,59
 442 108 442 108 452.5 133.5 c 128,-1,60
 463 159 463 159 463 182 c 0,43,44
EndSplineSet
Validated: 1
EndChar

StartChar: r
Encoding: 114 114 73
Width: 968
Flags: W
LayerCount: 2
Fore
SplineSet
929 105 m 1,0,1
 924 91 924 91 911 72.5 c 128,-1,2
 898 54 898 54 884 38 c 0,3,4
 868 19 868 19 849 0 c 1,5,-1
 0 0 l 1,6,7
 5 21 5 21 17.5 44 c 128,-1,8
 30 67 30 67 45 87 c 1,9,10
 47 124 47 124 48 169.5 c 128,-1,11
 49 215 49 215 49.5 264 c 128,-1,12
 50 313 50 313 50 364 c 128,-1,13
 50 415 50 415 50 464 c 2,14,-1
 50 670 l 2,15,16
 50 700 50 700 39 722 c 128,-1,17
 28 744 28 744 0 755 c 1,18,19
 15 768 15 768 33 783 c 128,-1,20
 51 798 51 798 71 810.5 c 128,-1,21
 91 823 91 823 111.5 832.5 c 128,-1,22
 132 842 132 842 152 845 c 1,23,-1
 152 312 l 1,24,25
 177 338 177 338 201 361 c 128,-1,26
 225 384 225 384 251 401 c 128,-1,27
 277 418 277 418 308 427.5 c 128,-1,28
 339 437 339 437 378 437 c 0,29,30
 401 437 401 437 422 428 c 128,-1,31
 443 419 443 419 461 405 c 128,-1,32
 479 391 479 391 494 372.5 c 128,-1,33
 509 354 509 354 520 335 c 1,34,35
 544 358 544 358 566 377 c 128,-1,36
 588 396 588 396 611.5 409.5 c 128,-1,37
 635 423 635 423 662.5 430 c 128,-1,38
 690 437 690 437 725 437 c 0,39,40
 753 437 753 437 780 424.5 c 128,-1,41
 807 412 807 412 828.5 391 c 128,-1,42
 850 370 850 370 863 343.5 c 128,-1,43
 876 317 876 317 876 289 c 0,44,45
 876 249 876 249 849 196.5 c 128,-1,46
 822 144 822 144 781 94 c 1,47,48
 832 96 832 96 872 98.5 c 128,-1,49
 912 101 912 101 929 105 c 1,0,1
804 182 m 0,50,51
 804 212 804 212 792.5 244.5 c 128,-1,52
 781 277 781 277 760 304 c 128,-1,53
 739 331 739 331 710.5 348.5 c 128,-1,54
 682 366 682 366 649 366 c 0,55,56
 637 366 637 366 616.5 359.5 c 128,-1,57
 596 353 596 353 576.5 342.5 c 128,-1,58
 557 332 557 332 542.5 318.5 c 128,-1,59
 528 305 528 305 528 291 c 0,60,61
 528 250 528 250 500 195.5 c 128,-1,62
 472 141 472 141 430 90 c 1,63,64
 512 90 512 90 593 90.5 c 128,-1,65
 674 91 674 91 756 93 c 1,66,67
 779 110 779 110 791.5 133 c 128,-1,68
 804 156 804 156 804 182 c 0,50,51
456 182 m 0,69,70
 456 212 456 212 444.5 244.5 c 128,-1,71
 433 277 433 277 412.5 304 c 128,-1,72
 392 331 392 331 364 348.5 c 128,-1,73
 336 366 336 366 302 366 c 0,74,75
 282 366 282 366 261.5 357.5 c 128,-1,76
 241 349 241 349 221 336 c 128,-1,77
 201 323 201 323 183.5 308.5 c 128,-1,78
 166 294 166 294 152 281 c 1,79,-1
 152 91 l 1,80,-1
 403 91 l 1,81,82
 428 106 428 106 442 130.5 c 128,-1,83
 456 155 456 155 456 182 c 0,69,70
EndSplineSet
Validated: 1
EndChar

StartChar: s
Encoding: 115 115 74
Width: 924
Flags: W
LayerCount: 2
Fore
SplineSet
876 -338 m 1,0,1
 861 -351 861 -351 843 -365.5 c 128,-1,2
 825 -380 825 -380 805 -393 c 128,-1,3
 785 -406 785 -406 764.5 -415.5 c 128,-1,4
 744 -425 744 -425 724 -428 c 1,5,-1
 724 105 l 1,6,7
 699 79 699 79 675 56.5 c 128,-1,8
 651 34 651 34 625 17 c 128,-1,9
 599 0 599 0 568 -10 c 128,-1,10
 537 -20 537 -20 498 -20 c 0,11,12
 475 -20 475 -20 453.5 -11 c 128,-1,13
 432 -2 432 -2 414 12 c 128,-1,14
 396 26 396 26 381 44.5 c 128,-1,15
 366 63 366 63 356 82 c 1,16,17
 332 59 332 59 310 40 c 128,-1,18
 288 21 288 21 264.5 7.5 c 128,-1,19
 241 -6 241 -6 213.5 -13 c 128,-1,20
 186 -20 186 -20 151 -20 c 0,21,22
 123 -20 123 -20 96 -7.5 c 128,-1,23
 69 5 69 5 47.5 26 c 128,-1,24
 26 47 26 47 13 73.5 c 128,-1,25
 0 100 0 100 0 128 c 0,26,27
 0 152 0 152 10.5 183.5 c 128,-1,28
 21 215 21 215 38.5 248 c 128,-1,29
 56 281 56 281 79.5 313 c 128,-1,30
 103 345 103 345 129.5 370.5 c 128,-1,31
 156 396 156 396 183.5 411.5 c 128,-1,32
 211 427 211 427 237 427 c 0,33,34
 244 427 244 427 254 420 c 128,-1,35
 264 413 264 413 273 405 c 0,36,37
 284 395 284 395 295 383 c 1,38,-1
 239 319 l 1,39,40
 222 331 222 331 203.5 340 c 128,-1,41
 185 349 185 349 164 349 c 256,42,43
 143 349 143 349 126 338 c 128,-1,44
 109 327 109 327 97 310 c 128,-1,45
 85 293 85 293 78.5 273.5 c 128,-1,46
 72 254 72 254 72 236 c 0,47,48
 72 205 72 205 83.5 172.5 c 128,-1,49
 95 140 95 140 116 113 c 128,-1,50
 137 86 137 86 165.5 69 c 128,-1,51
 194 52 194 52 227 52 c 0,52,53
 239 52 239 52 259.5 58.5 c 128,-1,54
 280 65 280 65 299.5 75.5 c 128,-1,55
 319 86 319 86 333 99 c 128,-1,56
 347 112 347 112 347 126 c 0,57,58
 347 150 347 150 357.5 181.5 c 128,-1,59
 368 213 368 213 385.5 246.5 c 128,-1,60
 403 280 403 280 426.5 312.5 c 128,-1,61
 450 345 450 345 476 370.5 c 128,-1,62
 502 396 502 396 530 411.5 c 128,-1,63
 558 427 558 427 584 427 c 0,64,65
 591 427 591 427 601 420 c 128,-1,66
 611 413 611 413 620 405 c 0,67,68
 631 395 631 395 642 383 c 1,69,-1
 586 319 l 1,70,71
 569 331 569 331 550.5 340 c 128,-1,72
 532 349 532 349 512 349 c 0,73,74
 491 349 491 349 474 338 c 128,-1,75
 457 327 457 327 445 310 c 128,-1,76
 433 293 433 293 426.5 273.5 c 128,-1,77
 420 254 420 254 420 236 c 0,78,79
 420 205 420 205 431.5 172.5 c 128,-1,80
 443 140 443 140 463.5 113 c 128,-1,81
 484 86 484 86 512 69 c 128,-1,82
 540 52 540 52 574 52 c 0,83,84
 594 52 594 52 614.5 60.5 c 128,-1,85
 635 69 635 69 655 81.5 c 128,-1,86
 675 94 675 94 692.5 109 c 128,-1,87
 710 124 710 124 724 137 c 1,88,-1
 724 360 l 1,89,90
 749 380 749 380 780.5 402.5 c 128,-1,91
 812 425 812 425 841 436 c 1,92,93
 836 414 836 414 833 363.5 c 128,-1,94
 830 313 830 313 828.5 246 c 128,-1,95
 827 179 827 179 826.5 102.5 c 128,-1,96
 826 26 826 26 826 -47 c 2,97,-1
 826 -253 l 2,98,99
 826 -283 826 -283 837 -305 c 128,-1,100
 848 -327 848 -327 876 -338 c 1,0,1
EndSplineSet
Validated: 1
EndChar

StartChar: t
Encoding: 116 116 75
Width: 976
Flags: W
LayerCount: 2
Fore
SplineSet
929 105 m 1,0,1
 924 91 924 91 911 72.5 c 128,-1,2
 898 54 898 54 884 38 c 0,3,4
 868 19 868 19 849 0 c 1,5,-1
 0 0 l 1,6,7
 5 23 5 23 19 47.5 c 128,-1,8
 33 72 33 72 49 93 c 1,9,10
 50 108 50 108 50 125 c 128,-1,11
 50 142 50 142 50 162 c 2,12,-1
 50 290 l 2,13,14
 50 320 50 320 39 342 c 128,-1,15
 28 364 28 364 0 375 c 1,16,17
 15 388 15 388 33 403 c 128,-1,18
 51 418 51 418 71 430.5 c 128,-1,19
 91 443 91 443 111.5 452.5 c 128,-1,20
 132 462 132 462 152 465 c 1,21,-1
 152 312 l 1,22,23
 177 338 177 338 201 361 c 128,-1,24
 225 384 225 384 251 401 c 128,-1,25
 277 418 277 418 308 427.5 c 128,-1,26
 339 437 339 437 378 437 c 0,27,28
 401 437 401 437 422 428 c 128,-1,29
 443 419 443 419 461 405 c 128,-1,30
 479 391 479 391 494 372.5 c 128,-1,31
 509 354 509 354 520 335 c 1,32,33
 544 358 544 358 566 377 c 128,-1,34
 588 396 588 396 611.5 409.5 c 128,-1,35
 635 423 635 423 662.5 430 c 128,-1,36
 690 437 690 437 725 437 c 0,37,38
 753 437 753 437 780 424.5 c 128,-1,39
 807 412 807 412 828.5 391 c 128,-1,40
 850 370 850 370 863 343.5 c 128,-1,41
 876 317 876 317 876 289 c 0,42,43
 876 249 876 249 849 196.5 c 128,-1,44
 822 144 822 144 781 94 c 1,45,46
 832 96 832 96 872 98.5 c 128,-1,47
 912 101 912 101 929 105 c 1,0,1
804 182 m 0,48,49
 804 212 804 212 792.5 244.5 c 128,-1,50
 781 277 781 277 760 304 c 128,-1,51
 739 331 739 331 710.5 348.5 c 128,-1,52
 682 366 682 366 649 366 c 0,53,54
 637 366 637 366 616.5 359.5 c 128,-1,55
 596 353 596 353 576.5 342.5 c 128,-1,56
 557 332 557 332 542.5 318.5 c 128,-1,57
 528 305 528 305 528 291 c 0,58,59
 528 250 528 250 500 195.5 c 128,-1,60
 472 141 472 141 430 90 c 1,61,62
 512 90 512 90 593 90.5 c 128,-1,63
 674 91 674 91 756 93 c 1,64,65
 779 110 779 110 791.5 133 c 128,-1,66
 804 156 804 156 804 182 c 0,48,49
456 182 m 0,67,68
 456 212 456 212 444.5 244.5 c 128,-1,69
 433 277 433 277 412.5 304 c 128,-1,70
 392 331 392 331 364 348.5 c 128,-1,71
 336 366 336 366 302 366 c 0,72,73
 282 366 282 366 261.5 357.5 c 128,-1,74
 241 349 241 349 221 336 c 128,-1,75
 201 323 201 323 183.5 308.5 c 128,-1,76
 166 294 166 294 152 281 c 1,77,-1
 152 91 l 1,78,-1
 403 91 l 1,79,80
 428 106 428 106 442 130.5 c 128,-1,81
 456 155 456 155 456 182 c 0,67,68
EndSplineSet
Validated: 1
EndChar

StartChar: u
Encoding: 117 117 76
Width: 631
Flags: W
LayerCount: 2
Fore
SplineSet
300 352 m 0,0,1
 296 349 296 349 290 348 c 128,-1,2
 284 347 284 347 280.5 349 c 128,-1,3
 277 351 277 351 278 355.5 c 128,-1,4
 279 360 279 360 288 368 c 0,5,6
 336 405 336 405 387 427.5 c 128,-1,7
 438 450 438 450 476 450 c 0,8,9
 497 450 497 450 517 440 c 128,-1,10
 537 430 537 430 553 410 c 128,-1,11
 569 390 569 390 578.5 361 c 128,-1,12
 588 332 588 332 588 293 c 0,13,14
 588 242 588 242 567.5 192 c 128,-1,15
 547 142 547 142 510.5 85.5 c 128,-1,16
 474 29 474 29 422.5 -38 c 128,-1,17
 371 -105 371 -105 308 -190 c 0,18,19
 279 -230 279 -230 261 -274.5 c 128,-1,20
 243 -319 243 -319 243 -371 c 0,21,22
 243 -406 243 -406 260.5 -428 c 128,-1,23
 278 -450 278 -450 299 -464 c 0,24,25
 324 -480 324 -480 356 -488 c 1,26,27
 337 -507 337 -507 317 -521 c 0,28,29
 300 -534 300 -534 278.5 -544 c 128,-1,30
 257 -554 257 -554 237 -554 c 0,31,32
 231 -554 231 -554 220.5 -547.5 c 128,-1,33
 210 -541 210 -541 199 -526 c 128,-1,34
 188 -511 188 -511 180 -487.5 c 128,-1,35
 172 -464 172 -464 172 -429 c 0,36,37
 172 -392 172 -392 180 -361.5 c 128,-1,38
 188 -331 188 -331 203 -302.5 c 128,-1,39
 218 -274 218 -274 240 -243.5 c 128,-1,40
 262 -213 262 -213 290 -176 c 2,41,-1
 358 -81 l 1,42,-1
 251 93 l 1,43,-1
 141 -25 l 2,44,45
 122 -45 122 -45 119.5 -64 c 128,-1,46
 117 -83 117 -83 121 -97 c 0,47,48
 125 -114 125 -114 137 -129 c 1,49,-1
 26 -197 l 1,50,51
 20 -174 20 -174 23 -149 c 0,52,53
 25 -128 25 -128 35.5 -101.5 c 128,-1,54
 46 -75 46 -75 72 -49 c 2,55,-1
 237 115 l 1,56,57
 183 202 183 202 147 258 c 128,-1,58
 111 314 111 314 89.5 347 c 128,-1,59
 68 380 68 380 59.5 392.5 c 128,-1,60
 51 405 51 405 51 405 c 1,61,62
 58 411 58 411 75 417.5 c 128,-1,63
 92 424 92 424 112 430.5 c 128,-1,64
 132 437 132 437 152.5 442.5 c 128,-1,65
 173 448 173 448 188 451 c 1,66,67
 194 422 194 422 206.5 390 c 128,-1,68
 219 358 219 358 245 310 c 128,-1,69
 271 262 271 262 313.5 191 c 128,-1,70
 356 120 356 120 421 13 c 1,71,72
 462 76 462 76 488.5 129 c 128,-1,73
 515 182 515 182 515 217 c 0,74,75
 515 250 515 250 501 279.5 c 128,-1,76
 487 309 487 309 465 330.5 c 128,-1,77
 443 352 443 352 416.5 364.5 c 128,-1,78
 390 377 390 377 366 377 c 0,79,80
 331 377 331 377 300 352 c 0,0,1
EndSplineSet
Validated: 33
EndChar

StartChar: v
Encoding: 118 118 77
Width: 924
Flags: W
LayerCount: 2
Fore
SplineSet
876 72 m 1,0,1
 861 58 861 58 843 43.5 c 128,-1,2
 825 29 825 29 805 16 c 128,-1,3
 785 3 785 3 764.5 -6 c 128,-1,4
 744 -15 744 -15 724 -18 c 1,5,-1
 724 105 l 1,6,7
 699 79 699 79 675 56.5 c 128,-1,8
 651 34 651 34 625 17 c 128,-1,9
 599 0 599 0 568 -10 c 128,-1,10
 537 -20 537 -20 498 -20 c 0,11,12
 475 -20 475 -20 453.5 -11 c 128,-1,13
 432 -2 432 -2 414 12 c 128,-1,14
 396 26 396 26 381 44.5 c 128,-1,15
 366 63 366 63 356 82 c 1,16,17
 332 59 332 59 310 40 c 128,-1,18
 288 21 288 21 264.5 7.5 c 128,-1,19
 241 -6 241 -6 213.5 -13 c 128,-1,20
 186 -20 186 -20 151 -20 c 0,21,22
 123 -20 123 -20 96 -7.5 c 128,-1,23
 69 5 69 5 47.5 26 c 128,-1,24
 26 47 26 47 13 73.5 c 128,-1,25
 0 100 0 100 0 128 c 0,26,27
 0 148 0 148 7.5 174 c 128,-1,28
 15 200 15 200 28.5 227.5 c 128,-1,29
 42 255 42 255 59.5 283.5 c 128,-1,30
 77 312 77 312 98 337 c 1,31,-1
 0 337 l 1,32,33
 4 357 4 357 15.5 379 c 128,-1,34
 27 401 27 401 41.5 420.5 c 128,-1,35
 56 440 56 440 70 455 c 128,-1,36
 84 470 84 470 94 477 c 1,37,38
 105 449 105 449 122 438 c 128,-1,39
 139 427 139 427 169 427 c 2,40,-1
 410 427 l 2,41,42
 489 427 489 427 567.5 427.5 c 128,-1,43
 646 428 646 428 724 430 c 1,44,-1
 724 670 l 2,45,46
 724 700 724 700 713.5 722 c 128,-1,47
 703 744 703 744 674 755 c 1,48,49
 689 768 689 768 707 783 c 128,-1,50
 725 798 725 798 745 810.5 c 128,-1,51
 765 823 765 823 785.5 832.5 c 128,-1,52
 806 842 806 842 826 845 c 1,53,-1
 826 146 l 2,54,55
 826 117 826 117 837 100 c 128,-1,56
 848 83 848 83 876 72 c 1,0,1
473 337 m 1,57,58
 448 321 448 321 434 291.5 c 128,-1,59
 420 262 420 262 420 236 c 0,60,61
 420 205 420 205 431.5 172.5 c 128,-1,62
 443 140 443 140 463.5 113 c 128,-1,63
 484 86 484 86 512 69 c 128,-1,64
 540 52 540 52 574 52 c 0,65,66
 594 52 594 52 614.5 60.5 c 128,-1,67
 635 69 635 69 655 81.5 c 128,-1,68
 675 94 675 94 692.5 109 c 128,-1,69
 710 124 710 124 724 137 c 1,70,-1
 724 337 l 1,71,-1
 473 337 l 1,57,58
125 337 m 1,72,73
 100 321 100 321 86 291.5 c 128,-1,74
 72 262 72 262 72 236 c 0,75,76
 72 205 72 205 83.5 172.5 c 128,-1,77
 95 140 95 140 116 113 c 128,-1,78
 137 86 137 86 165.5 69 c 128,-1,79
 194 52 194 52 227 52 c 0,80,81
 239 52 239 52 259.5 58.5 c 128,-1,82
 280 65 280 65 299.5 75.5 c 128,-1,83
 319 86 319 86 333 99 c 128,-1,84
 347 112 347 112 347 126 c 0,85,86
 347 146 347 146 354.5 172 c 128,-1,87
 362 198 362 198 375.5 226.5 c 128,-1,88
 389 255 389 255 406.5 283.5 c 128,-1,89
 424 312 424 312 445 337 c 1,90,-1
 125 337 l 1,72,73
EndSplineSet
Validated: 1
EndChar

StartChar: w
Encoding: 119 119 78
Width: 967
Flags: W
LayerCount: 2
Fore
SplineSet
929 105 m 1,0,1
 924 91 924 91 911 72.5 c 128,-1,2
 898 54 898 54 884 38 c 0,3,4
 868 19 868 19 849 0 c 1,5,-1
 152 0 l 1,6,-1
 152 -312 l 1,7,8
 127 -333 127 -333 95.5 -355 c 128,-1,9
 64 -377 64 -377 35 -388 c 1,10,11
 40 -366 40 -366 43 -317 c 128,-1,12
 46 -268 46 -268 47.5 -204 c 128,-1,13
 49 -140 49 -140 49.5 -66.5 c 128,-1,14
 50 7 50 7 50 78 c 2,15,-1
 50 280 l 2,16,17
 50 310 50 310 39 332 c 128,-1,18
 28 354 28 354 0 365 c 1,19,20
 15 378 15 378 33 393 c 128,-1,21
 51 408 51 408 71 420.5 c 128,-1,22
 91 433 91 433 111.5 442.5 c 128,-1,23
 132 452 132 452 152 455 c 1,24,-1
 152 312 l 1,25,26
 177 338 177 338 201 361 c 128,-1,27
 225 384 225 384 251 401 c 128,-1,28
 277 418 277 418 308 427.5 c 128,-1,29
 339 437 339 437 378 437 c 0,30,31
 401 437 401 437 422 428 c 128,-1,32
 443 419 443 419 461 405 c 128,-1,33
 479 391 479 391 494 372.5 c 128,-1,34
 509 354 509 354 520 335 c 1,35,36
 544 358 544 358 566 377 c 128,-1,37
 588 396 588 396 611.5 409.5 c 128,-1,38
 635 423 635 423 662.5 430 c 128,-1,39
 690 437 690 437 725 437 c 0,40,41
 753 437 753 437 780 424.5 c 128,-1,42
 807 412 807 412 828.5 391 c 128,-1,43
 850 370 850 370 863 343.5 c 128,-1,44
 876 317 876 317 876 289 c 0,45,46
 876 249 876 249 849 196.5 c 128,-1,47
 822 144 822 144 781 94 c 1,48,49
 832 96 832 96 872 98.5 c 128,-1,50
 912 101 912 101 929 105 c 1,0,1
804 182 m 0,51,52
 804 212 804 212 792.5 244.5 c 128,-1,53
 781 277 781 277 760 304 c 128,-1,54
 739 331 739 331 710.5 348.5 c 128,-1,55
 682 366 682 366 649 366 c 0,56,57
 637 366 637 366 616.5 359.5 c 128,-1,58
 596 353 596 353 576.5 342.5 c 128,-1,59
 557 332 557 332 542.5 318.5 c 128,-1,60
 528 305 528 305 528 291 c 0,61,62
 528 250 528 250 500 195.5 c 128,-1,63
 472 141 472 141 430 90 c 1,64,65
 512 90 512 90 593 90.5 c 128,-1,66
 674 91 674 91 756 93 c 1,67,68
 779 110 779 110 791.5 133 c 128,-1,69
 804 156 804 156 804 182 c 0,51,52
456 182 m 0,70,71
 456 212 456 212 444.5 244.5 c 128,-1,72
 433 277 433 277 412.5 304 c 128,-1,73
 392 331 392 331 364 348.5 c 128,-1,74
 336 366 336 366 302 366 c 0,75,76
 282 366 282 366 261.5 357.5 c 128,-1,77
 241 349 241 349 221 336 c 128,-1,78
 201 323 201 323 183.5 308.5 c 128,-1,79
 166 294 166 294 152 281 c 1,80,-1
 152 91 l 1,81,-1
 403 91 l 1,82,83
 428 106 428 106 442 130.5 c 128,-1,84
 456 155 456 155 456 182 c 0,70,71
EndSplineSet
Validated: 1
EndChar

StartChar: braceleft
Encoding: 123 123 79
Width: 0
Flags: W
LayerCount: 2
Fore
SplineSet
-72 589 m 1,0,1
 -77 574 -77 574 -96.5 559 c 128,-1,2
 -116 544 -116 544 -137 531 c 0,3,4
 -162 516 -162 516 -192 503 c 1,5,-1
 -681 503 l 2,6,7
 -732 503 -732 503 -772 499.5 c 128,-1,8
 -812 496 -812 496 -829 491 c 1,9,10
 -824 505 -824 505 -804.5 520.5 c 128,-1,11
 -785 536 -785 536 -764 549 c 0,12,13
 -739 564 -739 564 -709 577 c 1,14,-1
 -220 577 l 2,15,16
 -169 577 -169 577 -129 580.5 c 128,-1,17
 -89 584 -89 584 -72 589 c 1,0,1
EndSplineSet
Validated: 1
EndChar

StartChar: bar
Encoding: 124 124 80
Width: 0
Flags: W
LayerCount: 2
Fore
SplineSet
-359 -226 m 0,0,1
 -353 -218 -353 -218 -349.5 -223.5 c 128,-1,2
 -346 -229 -346 -229 -351 -234 c 0,3,4
 -353 -236 -353 -236 -364 -247.5 c 128,-1,5
 -375 -259 -375 -259 -392 -272 c 128,-1,6
 -409 -285 -409 -285 -430.5 -295 c 128,-1,7
 -452 -305 -452 -305 -476 -305 c 0,8,9
 -503 -305 -503 -305 -522.5 -295 c 128,-1,10
 -542 -285 -542 -285 -554.5 -269 c 128,-1,11
 -567 -253 -567 -253 -573.5 -232 c 128,-1,12
 -580 -211 -580 -211 -580 -190 c 0,13,14
 -580 -124 -580 -124 -520.5 -62.5 c 128,-1,15
 -461 -1 -461 -1 -361 44 c 0,16,17
 -356 46 -356 46 -351 45 c 128,-1,18
 -346 44 -346 44 -343.5 41 c 128,-1,19
 -341 38 -341 38 -341 34.5 c 128,-1,20
 -341 31 -341 31 -346 28 c 0,21,22
 -389 5 -389 5 -419.5 -17.5 c 128,-1,23
 -450 -40 -450 -40 -470 -62.5 c 128,-1,24
 -490 -85 -490 -85 -499.5 -109.5 c 128,-1,25
 -509 -134 -509 -134 -509 -162 c 0,26,27
 -509 -179 -509 -179 -503 -194.5 c 128,-1,28
 -497 -210 -497 -210 -486.5 -222 c 128,-1,29
 -476 -234 -476 -234 -462 -241 c 128,-1,30
 -448 -248 -448 -248 -432 -248 c 0,31,32
 -400 -248 -400 -248 -382 -240 c 128,-1,33
 -364 -232 -364 -232 -359 -226 c 0,0,1
EndSplineSet
Validated: 1
EndChar

StartChar: braceright
Encoding: 125 125 81
Width: 0
Flags: W
LayerCount: 2
Fore
SplineSet
-137 121 m 0,0,1
 -173 57 -173 57 -211.5 -11.5 c 128,-1,2
 -250 -80 -250 -80 -280.5 -143.5 c 128,-1,3
 -311 -207 -311 -207 -327 -259.5 c 128,-1,4
 -343 -312 -343 -312 -334 -345 c 0,5,6
 -330 -362 -330 -362 -320 -375 c 128,-1,7
 -310 -388 -310 -388 -296.5 -396.5 c 128,-1,8
 -283 -405 -283 -405 -267.5 -408 c 128,-1,9
 -252 -411 -252 -411 -237 -407 c 0,10,11
 -214 -401 -214 -401 -195.5 -388 c 128,-1,12
 -177 -375 -177 -375 -167 -358 c 128,-1,13
 -157 -341 -157 -341 -156.5 -321.5 c 128,-1,14
 -156 -302 -156 -302 -169 -283 c 1,15,-1
 -122 -202 l 1,16,17
 -108 -231 -108 -231 -115.5 -273.5 c 128,-1,18
 -123 -316 -123 -316 -144 -357.5 c 128,-1,19
 -165 -399 -165 -399 -194.5 -431 c 128,-1,20
 -224 -463 -224 -463 -254 -471 c 0,21,22
 -280 -478 -280 -478 -302.5 -474 c 128,-1,23
 -325 -470 -325 -470 -343.5 -458 c 128,-1,24
 -362 -446 -362 -446 -374.5 -428.5 c 128,-1,25
 -387 -411 -387 -411 -393 -390 c 0,26,27
 -399 -368 -399 -368 -395 -336 c 128,-1,28
 -391 -304 -391 -304 -366 -247 c 128,-1,29
 -341 -190 -341 -190 -291 -99.5 c 128,-1,30
 -241 -9 -241 -9 -156 132 c 0,31,32
 -150 141 -150 141 -141 135.5 c 128,-1,33
 -132 130 -132 130 -137 121 c 0,0,1
EndSplineSet
Validated: 33
EndChar

StartChar: asciitilde
Encoding: 126 126 82
Width: 242
Flags: W
LayerCount: 2
Fore
SplineSet
172 -352 m 1,0,1
 147 -372 147 -372 115.5 -394.5 c 128,-1,2
 84 -417 84 -417 55 -428 c 1,3,4
 60 -405 60 -405 63 -348.5 c 128,-1,5
 66 -292 66 -292 67.5 -217.5 c 128,-1,6
 69 -143 69 -143 69.5 -59 c 128,-1,7
 70 25 70 25 70 102 c 2,8,-1
 70 280 l 2,9,10
 70 310 70 310 59 332 c 128,-1,11
 48 354 48 354 20 365 c 1,12,13
 35 378 35 378 53 393 c 128,-1,14
 71 408 71 408 91 420.5 c 128,-1,15
 111 433 111 433 131.5 442.5 c 128,-1,16
 152 452 152 452 172 455 c 1,17,-1
 172 -352 l 1,0,1
EndSplineSet
Validated: 1
EndChar

StartChar: quotesinglbase
Encoding: 8218 8218 84
Width: 0
Flags: W
LayerCount: 2
Fore
SplineSet
-575 -12 m 2,0,1
 -575 -8 -575 -8 -559 7.5 c 128,-1,2
 -543 23 -543 23 -516.5 46.5 c 128,-1,3
 -490 70 -490 70 -456 98.5 c 128,-1,4
 -422 127 -422 127 -386.5 156 c 128,-1,5
 -351 185 -351 185 -316.5 212.5 c 128,-1,6
 -282 240 -282 240 -254.5 262 c 128,-1,7
 -227 284 -227 284 -209.5 297.5 c 128,-1,8
 -192 311 -192 311 -190 312 c 0,9,10
 -186 314 -186 314 -184 309 c 128,-1,11
 -182 304 -182 304 -187 299 c 0,12,13
 -189 297 -189 297 -209.5 278 c 128,-1,14
 -230 259 -230 259 -259.5 232 c 128,-1,15
 -289 205 -289 205 -323.5 173.5 c 128,-1,16
 -358 142 -358 142 -387 114.5 c 128,-1,17
 -416 87 -416 87 -435 67.5 c 128,-1,18
 -454 48 -454 48 -454 46 c 2,19,-1
 -575 -12 l 2,0,1
-455 -22 m 1,20,21
 -455 -17 -455 -17 -427 8.5 c 128,-1,22
 -399 34 -399 34 -357 70 c 128,-1,23
 -315 106 -315 106 -266 146 c 128,-1,24
 -217 186 -217 186 -174 220 c 128,-1,25
 -131 254 -131 254 -102 277 c 128,-1,26
 -73 300 -73 300 -70 302 c 0,27,28
 -66 304 -66 304 -64 299 c 128,-1,29
 -62 294 -62 294 -67 289 c 0,30,31
 -69 287 -69 287 -89.5 268 c 128,-1,32
 -110 249 -110 249 -139.5 222 c 128,-1,33
 -169 195 -169 195 -203.5 163.5 c 128,-1,34
 -238 132 -238 132 -267 104.5 c 128,-1,35
 -296 77 -296 77 -315 57.5 c 128,-1,36
 -334 38 -334 38 -334 36 c 2,37,-1
 -455 -22 l 1,20,21
EndSplineSet
Validated: 1
EndChar

StartChar: florin
Encoding: 402 402 85
Width: 0
Flags: W
LayerCount: 2
Fore
SplineSet
-775 -372 m 1,0,1
 -775 -364 -775 -364 -752.5 -342 c 128,-1,2
 -730 -320 -730 -320 -695.5 -291 c 128,-1,3
 -661 -262 -661 -262 -621 -230.5 c 128,-1,4
 -581 -199 -581 -199 -546 -172 c 128,-1,5
 -511 -145 -511 -145 -487 -127.5 c 128,-1,6
 -463 -110 -463 -110 -460 -108 c 0,7,8
 -456 -106 -456 -106 -454 -111 c 128,-1,9
 -452 -116 -452 -116 -457 -121 c 0,10,11
 -459 -123 -459 -123 -474.5 -136.5 c 128,-1,12
 -490 -150 -490 -150 -512 -170 c 128,-1,13
 -534 -190 -534 -190 -558.5 -213 c 128,-1,14
 -583 -236 -583 -236 -604.5 -257 c 128,-1,15
 -626 -278 -626 -278 -640 -293.5 c 128,-1,16
 -654 -309 -654 -309 -654 -314 c 1,17,-1
 -775 -372 l 1,0,1
-625 -382 m 1,18,19
 -625 -374 -625 -374 -602.5 -352 c 128,-1,20
 -580 -330 -580 -330 -545.5 -301 c 128,-1,21
 -511 -272 -511 -272 -471 -240.5 c 128,-1,22
 -431 -209 -431 -209 -396 -182 c 128,-1,23
 -361 -155 -361 -155 -337 -137.5 c 128,-1,24
 -313 -120 -313 -120 -310 -118 c 0,25,26
 -306 -116 -306 -116 -304 -121 c 128,-1,27
 -302 -126 -302 -126 -307 -131 c 0,28,29
 -309 -133 -309 -133 -324.5 -146.5 c 128,-1,30
 -340 -160 -340 -160 -362 -180 c 128,-1,31
 -384 -200 -384 -200 -408.5 -223 c 128,-1,32
 -433 -246 -433 -246 -454.5 -267 c 128,-1,33
 -476 -288 -476 -288 -490 -303.5 c 128,-1,34
 -504 -319 -504 -319 -504 -324 c 1,35,-1
 -625 -382 l 1,18,19
EndSplineSet
Validated: 1
EndChar

StartChar: quotedblbase
Encoding: 8222 8222 86
Width: 0
Flags: W
LayerCount: 2
Fore
SplineSet
-735 -372 m 1,0,1
 -735 -364 -735 -364 -712.5 -342 c 128,-1,2
 -690 -320 -690 -320 -655.5 -291 c 128,-1,3
 -621 -262 -621 -262 -581 -230.5 c 128,-1,4
 -541 -199 -541 -199 -506 -172 c 128,-1,5
 -471 -145 -471 -145 -447 -127.5 c 128,-1,6
 -423 -110 -423 -110 -420 -108 c 0,7,8
 -416 -106 -416 -106 -414 -111 c 128,-1,9
 -412 -116 -412 -116 -417 -121 c 0,10,11
 -419 -123 -419 -123 -434.5 -136.5 c 128,-1,12
 -450 -150 -450 -150 -472 -170 c 128,-1,13
 -494 -190 -494 -190 -518.5 -213 c 128,-1,14
 -543 -236 -543 -236 -564.5 -257 c 128,-1,15
 -586 -278 -586 -278 -600 -293.5 c 128,-1,16
 -614 -309 -614 -309 -614 -314 c 1,17,-1
 -735 -372 l 1,0,1
-595 -382 m 1,18,19
 -595 -374 -595 -374 -572.5 -352 c 128,-1,20
 -550 -330 -550 -330 -515.5 -301 c 128,-1,21
 -481 -272 -481 -272 -441 -240.5 c 128,-1,22
 -401 -209 -401 -209 -366 -182 c 128,-1,23
 -331 -155 -331 -155 -307 -137.5 c 128,-1,24
 -283 -120 -283 -120 -280 -118 c 0,25,26
 -276 -116 -276 -116 -274 -121 c 128,-1,27
 -272 -126 -272 -126 -277 -131 c 0,28,29
 -279 -133 -279 -133 -294.5 -146.5 c 128,-1,30
 -310 -160 -310 -160 -332 -180 c 128,-1,31
 -354 -200 -354 -200 -378.5 -223 c 128,-1,32
 -403 -246 -403 -246 -424.5 -267 c 128,-1,33
 -446 -288 -446 -288 -460 -303.5 c 128,-1,34
 -474 -319 -474 -319 -474 -324 c 1,35,-1
 -595 -382 l 1,18,19
EndSplineSet
Validated: 1
EndChar

StartChar: ellipsis
Encoding: 8230 8230 87
Width: 0
Flags: W
LayerCount: 2
Fore
SplineSet
-435 -352 m 1,0,1
 -435 -344 -435 -344 -413 -322 c 128,-1,2
 -391 -300 -391 -300 -358 -271 c 128,-1,3
 -325 -242 -325 -242 -286 -210.5 c 128,-1,4
 -247 -179 -247 -179 -213.5 -152 c 128,-1,5
 -180 -125 -180 -125 -156.5 -107.5 c 128,-1,6
 -133 -90 -133 -90 -130 -88 c 0,7,8
 -126 -86 -126 -86 -124 -91 c 128,-1,9
 -122 -96 -122 -96 -127 -101 c 0,10,11
 -129 -103 -129 -103 -143.5 -116.5 c 128,-1,12
 -158 -130 -158 -130 -179 -150 c 128,-1,13
 -200 -170 -200 -170 -223.5 -193 c 128,-1,14
 -247 -216 -247 -216 -267 -237 c 128,-1,15
 -287 -258 -287 -258 -300.5 -273.5 c 128,-1,16
 -314 -289 -314 -289 -314 -294 c 1,17,-1
 -435 -352 l 1,0,1
-355 -402 m 1,18,19
 -355 -394 -355 -394 -333 -372 c 128,-1,20
 -311 -350 -311 -350 -278 -321 c 128,-1,21
 -245 -292 -245 -292 -206 -260.5 c 128,-1,22
 -167 -229 -167 -229 -133.5 -202 c 128,-1,23
 -100 -175 -100 -175 -76.5 -157.5 c 128,-1,24
 -53 -140 -53 -140 -50 -138 c 0,25,26
 -46 -136 -46 -136 -44 -141 c 128,-1,27
 -42 -146 -42 -146 -47 -151 c 0,28,29
 -49 -153 -49 -153 -63.5 -166.5 c 128,-1,30
 -78 -180 -78 -180 -99 -200 c 128,-1,31
 -120 -220 -120 -220 -143.5 -243 c 128,-1,32
 -167 -266 -167 -266 -187 -287 c 128,-1,33
 -207 -308 -207 -308 -220.5 -323.5 c 128,-1,34
 -234 -339 -234 -339 -234 -344 c 1,35,-1
 -355 -402 l 1,18,19
EndSplineSet
Validated: 1
EndChar

StartChar: dagger
Encoding: 8224 8224 88
Width: 0
Flags: W
LayerCount: 2
Fore
SplineSet
-375 -322 m 1,0,1
 -375 -314 -375 -314 -353 -292 c 128,-1,2
 -331 -270 -331 -270 -298 -241 c 128,-1,3
 -265 -212 -265 -212 -226 -180.5 c 128,-1,4
 -187 -149 -187 -149 -153.5 -122 c 128,-1,5
 -120 -95 -120 -95 -96.5 -77.5 c 128,-1,6
 -73 -60 -73 -60 -70 -58 c 0,7,8
 -66 -56 -66 -56 -64 -61 c 128,-1,9
 -62 -66 -62 -66 -67 -71 c 0,10,11
 -69 -73 -69 -73 -83.5 -86.5 c 128,-1,12
 -98 -100 -98 -100 -119 -120 c 128,-1,13
 -140 -140 -140 -140 -163.5 -163 c 128,-1,14
 -187 -186 -187 -186 -207 -207 c 128,-1,15
 -227 -228 -227 -228 -240.5 -243.5 c 128,-1,16
 -254 -259 -254 -259 -254 -264 c 1,17,-1
 -375 -322 l 1,0,1
-305 -382 m 1,18,19
 -305 -374 -305 -374 -283 -352 c 128,-1,20
 -261 -330 -261 -330 -228 -301 c 128,-1,21
 -195 -272 -195 -272 -156 -240.5 c 128,-1,22
 -117 -209 -117 -209 -83.5 -182 c 128,-1,23
 -50 -155 -50 -155 -26.5 -137.5 c 128,-1,24
 -3 -120 -3 -120 0 -118 c 0,25,26
 4 -116 4 -116 6 -121 c 128,-1,27
 8 -126 8 -126 3 -131 c 0,28,29
 1 -133 1 -133 -13.5 -146.5 c 128,-1,30
 -28 -160 -28 -160 -49 -180 c 128,-1,31
 -70 -200 -70 -200 -93.5 -223 c 128,-1,32
 -117 -246 -117 -246 -137 -267 c 128,-1,33
 -157 -288 -157 -288 -170.5 -303.5 c 128,-1,34
 -184 -319 -184 -319 -184 -324 c 1,35,-1
 -305 -382 l 1,18,19
EndSplineSet
Validated: 1
EndChar

StartChar: daggerdbl
Encoding: 8225 8225 89
Width: 540
Flags: W
LayerCount: 2
Fore
SplineSet
289 -137 m 1,0,1
 316 -120 316 -120 337 -99.5 c 128,-1,2
 358 -79 358 -79 370 -57 c 128,-1,3
 382 -35 382 -35 383 -11.5 c 0,4,5
 383.071428571 -9.82142857143 383.071428571 -9.82142857143 383.071428571 -8.14540816327 c 0,6,7
 383.071428571 13.6428571429 383.071428571 13.6428571429 371 35 c 1,8,9
 342 12 342 12 303.5 -4 c 128,-1,10
 265 -20 265 -20 222 -20 c 0,11,12
 181 -20 181 -20 141.5 -11.5 c 128,-1,13
 102 -3 102 -3 70.5 16.5 c 128,-1,14
 39 36 39 36 19.5 67.5 c 128,-1,15
 0 99 0 99 0 146 c 0,16,17
 0 194 0 194 16.5 234.5 c 128,-1,18
 33 275 33 275 60 307 c 128,-1,19
 87 339 87 339 120 363 c 128,-1,20
 153 387 153 387 186 403 c 128,-1,21
 219 419 219 419 248 427 c 128,-1,22
 277 435 277 435 296 435 c 0,23,24
 332 435 332 435 365.5 421.5 c 128,-1,25
 399 408 399 408 428 387 c 1,26,-1
 357 304 l 1,27,28
 344 313 344 313 327 322 c 128,-1,29
 310 331 310 331 292 338 c 128,-1,30
 274 345 274 345 256 349.5 c 128,-1,31
 238 354 238 354 222 354 c 0,32,33
 178 354 178 354 148.5 343.5 c 128,-1,34
 119 333 119 333 102 314 c 128,-1,35
 85 295 85 295 78 270 c 128,-1,36
 71 245 71 245 71 217 c 0,37,38
 71 174 71 174 92.5 143 c 128,-1,39
 114 112 114 112 147.5 91.5 c 128,-1,40
 181 71 181 71 221.5 61.5 c 128,-1,41
 262 52 262 52 300 52 c 0,42,43
 328 52 328 52 347 57 c 128,-1,44
 366 62 366 62 380 69 c 128,-1,45
 394 76 394 76 404 84 c 128,-1,46
 414 92 414 92 423 99 c 0,47,48
 424 99 424 99 425 100 c 0,49,50
 426 100 426 100 426 100.5 c 128,-1,51
 426 101 426 101 427 101 c 0,52,53
 430 101 430 101 430 97 c 0,54,55
 451.186440678 71.5762711864 451.186440678 71.5762711864 451.186440678 39.688882505 c 0,56,57
 451.186440678 33.9491525424 451.186440678 33.9491525424 450.5 28 c 0,58,59
 446 -11 446 -11 423.5 -47 c 128,-1,60
 401 -83 401 -83 365 -110.5 c 128,-1,61
 329 -138 329 -138 292 -146 c 1,62,-1
 289 -146 l 2,63,64
 286 -146 286 -146 286 -143 c 0,65,66
 285 -141 285 -141 287 -139 c 2,67,-1
 289 -137 l 1,68,-1
 289 -137 l 1,0,1
EndSplineSet
Validated: 5
EndChar

StartChar: circumflex
Encoding: 710 710 90
Width: 155
Flags: W
LayerCount: 2
Fore
SplineSet
59 29 m 1,0,-1
 0 72 l 1,1,-1
 53 125 l 1,2,-1
 111 81 l 1,3,-1
 59 29 l 1,0,-1
59 272 m 1,4,-1
 0 315 l 1,5,-1
 53 368 l 1,6,-1
 111 324 l 1,7,-1
 59 272 l 1,4,-1
59 151 m 1,8,-1
 0 194 l 1,9,-1
 53 247 l 1,10,-1
 111 203 l 1,11,-1
 59 151 l 1,8,-1
EndSplineSet
Validated: 1
EndChar

StartChar: perthousand
Encoding: 8240 8240 91
Width: 0
Flags: W
LayerCount: 2
Fore
SplineSet
-805 -512 m 1,0,1
 -805 -499 -805 -499 -787 -474.5 c 128,-1,2
 -769 -450 -769 -450 -740 -419.5 c 128,-1,3
 -711 -389 -711 -389 -673.5 -354.5 c 128,-1,4
 -636 -320 -636 -320 -596.5 -285.5 c 128,-1,5
 -557 -251 -557 -251 -519 -219.5 c 128,-1,6
 -481 -188 -481 -188 -450.5 -163.5 c 128,-1,7
 -420 -139 -420 -139 -401 -124 c 128,-1,8
 -382 -109 -382 -109 -380 -108 c 0,9,10
 -376 -106 -376 -106 -374 -111 c 128,-1,11
 -372 -116 -372 -116 -377 -121 c 0,12,13
 -379 -123 -379 -123 -402.5 -144.5 c 128,-1,14
 -426 -166 -426 -166 -460 -198 c 128,-1,15
 -494 -230 -494 -230 -533.5 -268 c 128,-1,16
 -573 -306 -573 -306 -606.5 -342.5 c 128,-1,17
 -640 -379 -640 -379 -662 -409 c 128,-1,18
 -684 -439 -684 -439 -684 -454 c 1,19,-1
 -805 -512 l 1,0,1
EndSplineSet
Validated: 1
EndChar

StartChar: Scaron
Encoding: 352 352 92
Width: 0
Flags: W
LayerCount: 2
Fore
SplineSet
-705 -512 m 1,0,1
 -705 -499 -705 -499 -687 -474.5 c 128,-1,2
 -669 -450 -669 -450 -640 -419.5 c 128,-1,3
 -611 -389 -611 -389 -573.5 -354.5 c 128,-1,4
 -536 -320 -536 -320 -496.5 -285.5 c 128,-1,5
 -457 -251 -457 -251 -419 -219.5 c 128,-1,6
 -381 -188 -381 -188 -350.5 -163.5 c 128,-1,7
 -320 -139 -320 -139 -301 -124 c 128,-1,8
 -282 -109 -282 -109 -280 -108 c 0,9,10
 -276 -106 -276 -106 -274 -111 c 128,-1,11
 -272 -116 -272 -116 -277 -121 c 0,12,13
 -279 -123 -279 -123 -302.5 -144.5 c 128,-1,14
 -326 -166 -326 -166 -360 -198 c 128,-1,15
 -394 -230 -394 -230 -433.5 -268 c 128,-1,16
 -473 -306 -473 -306 -506.5 -342.5 c 128,-1,17
 -540 -379 -540 -379 -562 -409 c 128,-1,18
 -584 -439 -584 -439 -584 -454 c 1,19,-1
 -705 -512 l 1,0,1
EndSplineSet
Validated: 1
EndChar

StartChar: guilsinglleft
Encoding: 8249 8249 93
Width: 0
Flags: W
LayerCount: 2
Fore
SplineSet
-605 -512 m 1,0,1
 -605 -499 -605 -499 -587 -474.5 c 128,-1,2
 -569 -450 -569 -450 -540 -419.5 c 128,-1,3
 -511 -389 -511 -389 -473.5 -354.5 c 128,-1,4
 -436 -320 -436 -320 -396.5 -285.5 c 128,-1,5
 -357 -251 -357 -251 -319 -219.5 c 128,-1,6
 -281 -188 -281 -188 -250.5 -163.5 c 128,-1,7
 -220 -139 -220 -139 -201 -124 c 128,-1,8
 -182 -109 -182 -109 -180 -108 c 0,9,10
 -176 -106 -176 -106 -174 -111 c 128,-1,11
 -172 -116 -172 -116 -177 -121 c 0,12,13
 -179 -123 -179 -123 -202.5 -144.5 c 128,-1,14
 -226 -166 -226 -166 -260 -198 c 128,-1,15
 -294 -230 -294 -230 -333.5 -268 c 128,-1,16
 -373 -306 -373 -306 -406.5 -342.5 c 128,-1,17
 -440 -379 -440 -379 -462 -409 c 128,-1,18
 -484 -439 -484 -439 -484 -454 c 1,19,-1
 -605 -512 l 1,0,1
EndSplineSet
Validated: 1
EndChar

StartChar: OE
Encoding: 338 338 94
Width: 479
Flags: W
LayerCount: 2
Fore
SplineSet
152 212 m 2,0,1
 152 178 152 178 164 149 c 128,-1,2
 176 120 176 120 197 99 c 128,-1,3
 218 78 218 78 246 66 c 128,-1,4
 274 54 274 54 305 54 c 0,5,6
 315 54 315 54 325 56 c 128,-1,7
 335 58 335 58 348 65 c 128,-1,8
 361 72 361 72 378.5 84 c 128,-1,9
 396 96 396 96 420 117 c 0,10,11
 423 119 423 119 429 119.5 c 128,-1,12
 435 120 435 120 438 116 c 256,13,14
 441 112 441 112 439.5 105.5 c 128,-1,15
 438 99 438 99 434 96 c 0,16,17
 356 34 356 34 297 7 c 128,-1,18
 238 -20 238 -20 198 -20 c 0,19,20
 170 -20 170 -20 143.5 -6 c 128,-1,21
 117 8 117 8 96 30 c 128,-1,22
 75 52 75 52 62.5 79.5 c 128,-1,23
 50 107 50 107 50 134 c 2,24,-1
 50 670 l 2,25,26
 50 700 50 700 39.5 722 c 128,-1,27
 29 744 29 744 0 755 c 1,28,29
 15 768 15 768 33 783 c 128,-1,30
 51 798 51 798 71 810.5 c 128,-1,31
 91 823 91 823 111.5 832.5 c 128,-1,32
 132 842 132 842 152 845 c 1,33,-1
 152 212 l 2,0,1
EndSplineSet
Validated: 1
EndChar

StartChar: quoteleft
Encoding: 8216 8216 95
Width: 0
Flags: W
LayerCount: 2
Fore
SplineSet
-1017 -526 m 0,0,1
 -1017 -506 -1017 -506 -1005 -484.5 c 128,-1,2
 -993 -463 -993 -463 -979 -446 c 0,3,4
 -962 -426 -962 -426 -941 -406 c 1,5,6
 -933 -437 -933 -437 -917 -462 c 0,7,8
 -903 -483 -903 -483 -881 -500.5 c 128,-1,9
 -859 -518 -859 -518 -824 -518 c 0,10,11
 -761 -518 -761 -518 -708 -493.5 c 128,-1,12
 -655 -469 -655 -469 -613 -427 c 128,-1,13
 -571 -385 -571 -385 -540 -329.5 c 128,-1,14
 -509 -274 -509 -274 -491 -212 c 0,15,16
 -489 -207 -489 -207 -485 -207 c 0,17,18
 -478 -207 -478 -207 -478 -217 c 0,19,20
 -483 -244 -483 -244 -499 -282 c 128,-1,21
 -515 -320 -515 -320 -541.5 -361.5 c 128,-1,22
 -568 -403 -568 -403 -603 -444 c 128,-1,23
 -638 -485 -638 -485 -681.5 -517.5 c 128,-1,24
 -725 -550 -725 -550 -775.5 -570 c 128,-1,25
 -826 -590 -826 -590 -882 -590 c 0,26,27
 -916 -590 -916 -590 -941.5 -582.5 c 128,-1,28
 -967 -575 -967 -575 -983.5 -564.5 c 128,-1,29
 -1000 -554 -1000 -554 -1008.5 -543 c 128,-1,30
 -1017 -532 -1017 -532 -1017 -526 c 0,0,1
EndSplineSet
Validated: 1
EndChar

StartChar: quoteright
Encoding: 8217 8217 96
Width: 0
Flags: W
LayerCount: 2
Fore
SplineSet
-837 -526 m 0,0,1
 -837 -506 -837 -506 -825 -484.5 c 128,-1,2
 -813 -463 -813 -463 -799 -446 c 0,3,4
 -782 -426 -782 -426 -761 -406 c 1,5,6
 -753 -437 -753 -437 -737 -462 c 0,7,8
 -723 -483 -723 -483 -701 -500.5 c 128,-1,9
 -679 -518 -679 -518 -644 -518 c 0,10,11
 -581 -518 -581 -518 -528 -493.5 c 128,-1,12
 -475 -469 -475 -469 -433 -427 c 128,-1,13
 -391 -385 -391 -385 -360 -329.5 c 128,-1,14
 -329 -274 -329 -274 -311 -212 c 0,15,16
 -309 -207 -309 -207 -305 -207 c 0,17,18
 -298 -207 -298 -207 -298 -217 c 0,19,20
 -303 -244 -303 -244 -319 -282 c 128,-1,21
 -335 -320 -335 -320 -361.5 -361.5 c 128,-1,22
 -388 -403 -388 -403 -423 -444 c 128,-1,23
 -458 -485 -458 -485 -501.5 -517.5 c 128,-1,24
 -545 -550 -545 -550 -595.5 -570 c 128,-1,25
 -646 -590 -646 -590 -702 -590 c 0,26,27
 -736 -590 -736 -590 -761.5 -582.5 c 128,-1,28
 -787 -575 -787 -575 -803.5 -564.5 c 128,-1,29
 -820 -554 -820 -554 -828.5 -543 c 128,-1,30
 -837 -532 -837 -532 -837 -526 c 0,0,1
EndSplineSet
Validated: 1
EndChar

StartChar: quotedblleft
Encoding: 8220 8220 97
Width: 0
Flags: W
LayerCount: 2
Fore
SplineSet
-795 -526 m 0,0,1
 -795 -506 -795 -506 -783 -484.5 c 128,-1,2
 -771 -463 -771 -463 -757 -446 c 0,3,4
 -740 -426 -740 -426 -719 -406 c 1,5,6
 -711 -437 -711 -437 -695 -462 c 0,7,8
 -681 -483 -681 -483 -659 -500.5 c 128,-1,9
 -637 -518 -637 -518 -602 -518 c 0,10,11
 -539 -518 -539 -518 -486 -493.5 c 128,-1,12
 -433 -469 -433 -469 -391 -427 c 128,-1,13
 -349 -385 -349 -385 -318 -329.5 c 128,-1,14
 -287 -274 -287 -274 -269 -212 c 0,15,16
 -267 -207 -267 -207 -263 -207 c 0,17,18
 -256 -207 -256 -207 -256 -217 c 0,19,20
 -261 -244 -261 -244 -277 -282 c 128,-1,21
 -293 -320 -293 -320 -319.5 -361.5 c 128,-1,22
 -346 -403 -346 -403 -381 -444 c 128,-1,23
 -416 -485 -416 -485 -459.5 -517.5 c 128,-1,24
 -503 -550 -503 -550 -553.5 -570 c 128,-1,25
 -604 -590 -604 -590 -660 -590 c 0,26,27
 -694 -590 -694 -590 -719.5 -582.5 c 128,-1,28
 -745 -575 -745 -575 -761.5 -564.5 c 128,-1,29
 -778 -554 -778 -554 -786.5 -543 c 128,-1,30
 -795 -532 -795 -532 -795 -526 c 0,0,1
EndSplineSet
Validated: 1
EndChar

StartChar: quotedblright
Encoding: 8221 8221 98
Width: 0
Flags: W
LayerCount: 2
Fore
SplineSet
-635 -526 m 0,0,1
 -635 -506 -635 -506 -623 -484.5 c 128,-1,2
 -611 -463 -611 -463 -597 -446 c 0,3,4
 -580 -426 -580 -426 -559 -406 c 1,5,6
 -551 -437 -551 -437 -535 -462 c 0,7,8
 -521 -483 -521 -483 -499 -500.5 c 128,-1,9
 -477 -518 -477 -518 -442 -518 c 0,10,11
 -379 -518 -379 -518 -326 -493.5 c 128,-1,12
 -273 -469 -273 -469 -231 -427 c 128,-1,13
 -189 -385 -189 -385 -158 -329.5 c 128,-1,14
 -127 -274 -127 -274 -109 -212 c 0,15,16
 -107 -207 -107 -207 -103 -207 c 0,17,18
 -96 -207 -96 -207 -96 -217 c 0,19,20
 -101 -244 -101 -244 -117 -282 c 128,-1,21
 -133 -320 -133 -320 -159.5 -361.5 c 128,-1,22
 -186 -403 -186 -403 -221 -444 c 128,-1,23
 -256 -485 -256 -485 -299.5 -517.5 c 128,-1,24
 -343 -550 -343 -550 -393.5 -570 c 128,-1,25
 -444 -590 -444 -590 -500 -590 c 0,26,27
 -534 -590 -534 -590 -559.5 -582.5 c 128,-1,28
 -585 -575 -585 -575 -601.5 -564.5 c 128,-1,29
 -618 -554 -618 -554 -626.5 -543 c 128,-1,30
 -635 -532 -635 -532 -635 -526 c 0,0,1
EndSplineSet
Validated: 1
EndChar

StartChar: bullet
Encoding: 8226 8226 99
Width: 623
Flags: W
LayerCount: 2
Fore
SplineSet
1 -429 m 0,0,1
 1 -402 1 -402 14.5 -372.5 c 128,-1,2
 28 -343 28 -343 51 -311.5 c 128,-1,3
 74 -280 74 -280 104.5 -247 c 128,-1,4
 135 -214 135 -214 170 -181 c 1,5,-1
 170 670 l 2,6,7
 170 700 170 700 159.5 722 c 128,-1,8
 149 744 149 744 120 755 c 1,9,10
 135 768 135 768 153 783 c 128,-1,11
 171 798 171 798 191 810.5 c 128,-1,12
 211 823 211 823 231.5 832.5 c 128,-1,13
 252 842 252 842 272 845 c 1,14,-1
 272 391 l 1,15,16
 316 417 316 417 359.5 433.5 c 128,-1,17
 403 450 403 450 435 450 c 0,18,19
 463 450 463 450 490.5 434 c 128,-1,20
 518 418 518 418 539.5 393.5 c 128,-1,21
 561 369 561 369 574 339.5 c 128,-1,22
 587 310 587 310 587 283 c 0,23,24
 587 246 587 246 565 204.5 c 128,-1,25
 543 163 543 163 506.5 118.5 c 128,-1,26
 470 74 470 74 424 27.5 c 128,-1,27
 378 -19 378 -19 329.5 -64.5 c 128,-1,28
 281 -110 281 -110 235 -153.5 c 128,-1,29
 189 -197 189 -197 152.5 -236.5 c 128,-1,30
 116 -276 116 -276 94 -310 c 128,-1,31
 72 -344 72 -344 72 -371 c 0,32,33
 72 -406 72 -406 89.5 -428 c 128,-1,34
 107 -450 107 -450 128 -464 c 0,35,36
 153 -480 153 -480 185 -488 c 1,37,38
 166 -507 166 -507 146 -521 c 0,39,40
 129 -534 129 -534 107.5 -544 c 128,-1,41
 86 -554 86 -554 66 -554 c 0,42,43
 60 -554 60 -554 49 -547.5 c 128,-1,44
 38 -541 38 -541 27.5 -526 c 128,-1,45
 17 -511 17 -511 9 -487.5 c 128,-1,46
 1 -464 1 -464 1 -429 c 0,0,1
325 377 m 0,47,48
 297 377 297 377 272 365 c 1,49,-1
 272 -86 l 1,50,51
 318 -44 318 -44 361.5 -3 c 128,-1,52
 405 38 405 38 439 75.5 c 128,-1,53
 473 113 473 113 493.5 146.5 c 128,-1,54
 514 180 514 180 514 207 c 0,55,56
 514 240 514 240 496.5 271 c 128,-1,57
 479 302 479 302 451.5 325.5 c 128,-1,58
 424 349 424 349 390.5 363 c 128,-1,59
 357 377 357 377 325 377 c 0,47,48
EndSplineSet
Validated: 1
EndChar

StartChar: endash
Encoding: 8211 8211 100
Width: 921
Flags: W
LayerCount: 2
Fore
SplineSet
0 130 m 0,0,1
 0 176 0 176 28.5 237 c 128,-1,2
 57 298 57 298 108.5 365.5 c 128,-1,3
 160 433 160 433 232 502 c 128,-1,4
 304 571 304 571 392 634 c 128,-1,5
 480 697 480 697 580.5 749.5 c 128,-1,6
 681 802 681 802 790 835 c 0,7,8
 805 842 805 842 823 845 c 1,9,-1
 823 146 l 2,10,11
 823 117 823 117 834 99.5 c 128,-1,12
 845 82 845 82 873 71 c 1,13,14
 858 58 858 58 840 43.5 c 128,-1,15
 822 29 822 29 802 16 c 128,-1,16
 782 3 782 3 761.5 -6 c 128,-1,17
 741 -15 741 -15 721 -18 c 1,18,-1
 721 105 l 1,19,20
 696 79 696 79 672 56.5 c 128,-1,21
 648 34 648 34 622 17 c 128,-1,22
 596 0 596 0 565 -10 c 128,-1,23
 534 -20 534 -20 495 -20 c 0,24,25
 472 -20 472 -20 450.5 -11 c 128,-1,26
 429 -2 429 -2 411 12 c 128,-1,27
 393 26 393 26 378 44.5 c 128,-1,28
 363 63 363 63 353 82 c 1,29,30
 329 59 329 59 307 40 c 128,-1,31
 285 21 285 21 261.5 7.5 c 128,-1,32
 238 -6 238 -6 210.5 -13 c 128,-1,33
 183 -20 183 -20 148 -20 c 0,34,35
 74 -20 74 -20 37 21.5 c 128,-1,36
 0 63 0 63 0 130 c 0,0,1
721 670 m 2,37,38
 721 700 721 700 710.5 722 c 128,-1,39
 700 744 700 744 671 755 c 1,40,41
 530 701 530 701 418 627.5 c 128,-1,42
 306 554 306 554 227.5 477.5 c 128,-1,43
 149 401 149 401 107 329 c 128,-1,44
 65 257 65 257 65 205 c 0,45,46
 65 136 65 136 106.5 94 c 128,-1,47
 148 52 148 52 224 52 c 0,48,49
 236 52 236 52 256.5 58.5 c 128,-1,50
 277 65 277 65 296.5 75.5 c 128,-1,51
 316 86 316 86 330 99 c 128,-1,52
 344 112 344 112 344 126 c 0,53,54
 344 150 344 150 354.5 181.5 c 128,-1,55
 365 213 365 213 382.5 246.5 c 128,-1,56
 400 280 400 280 423.5 312.5 c 128,-1,57
 447 345 447 345 473 370.5 c 128,-1,58
 499 396 499 396 527 411.5 c 128,-1,59
 555 427 555 427 581 427 c 0,60,61
 588 427 588 427 598 420 c 128,-1,62
 608 413 608 413 617 405 c 0,63,64
 628 395 628 395 639 383 c 1,65,-1
 583 319 l 1,66,67
 566 331 566 331 547.5 340 c 128,-1,68
 529 349 529 349 509 349 c 0,69,70
 488 349 488 349 471 338 c 128,-1,71
 454 327 454 327 442 310 c 128,-1,72
 430 293 430 293 423.5 273.5 c 128,-1,73
 417 254 417 254 417 236 c 0,74,75
 417 205 417 205 428.5 172.5 c 128,-1,76
 440 140 440 140 460.5 113 c 128,-1,77
 481 86 481 86 509 69 c 128,-1,78
 537 52 537 52 571 52 c 0,79,80
 591 52 591 52 611.5 60.5 c 128,-1,81
 632 69 632 69 652 81.5 c 128,-1,82
 672 94 672 94 689.5 109 c 128,-1,83
 707 124 707 124 721 137 c 1,84,-1
 721 670 l 2,37,38
EndSplineSet
Validated: 1
EndChar

StartChar: emdash
Encoding: 8212 8212 101
Width: 440
Flags: W
LayerCount: 2
Fore
SplineSet
392 36 m 2,0,1
 392 -9 392 -9 376 -49.5 c 128,-1,2
 360 -90 360 -90 333 -124 c 128,-1,3
 306 -158 306 -158 272 -185 c 128,-1,4
 238 -212 238 -212 202 -231 c 128,-1,5
 166 -250 166 -250 131.5 -260 c 128,-1,6
 97 -270 97 -270 69 -270 c 0,7,8
 59 -270 59 -270 49 -269 c 128,-1,9
 39 -268 39 -268 29 -266 c 1,10,-1
 125 -197 l 2,11,12
 130 -198 130 -198 134.5 -198 c 128,-1,13
 139 -198 139 -198 144 -198 c 0,14,15
 171 -198 171 -198 197.5 -192 c 128,-1,16
 224 -186 224 -186 244 -168.5 c 128,-1,17
 264 -151 264 -151 276.5 -119.5 c 128,-1,18
 289 -88 289 -88 289 -38 c 2,19,-1
 289 339 l 1,20,-1
 148 339 l 2,21,22
 97 339 97 339 57 335.5 c 128,-1,23
 17 332 17 332 0 327 c 1,24,25
 5 341 5 341 26 359 c 128,-1,26
 47 377 47 377 70 393 c 0,27,28
 97 411 97 411 130 429 c 1,29,-1
 392 429 l 1,30,-1
 392 36 l 2,0,1
EndSplineSet
Validated: 1
EndChar

StartChar: tilde
Encoding: 732 732 102
Width: 0
Flags: W
LayerCount: 2
Fore
SplineSet
-389 -414 m 0,0,1
 -389 -397 -389 -397 -394 -377 c 128,-1,2
 -399 -357 -399 -357 -409.5 -340 c 128,-1,3
 -420 -323 -420 -323 -436 -311.5 c 128,-1,4
 -452 -300 -452 -300 -474 -300 c 0,5,6
 -490 -300 -490 -300 -506 -305.5 c 128,-1,7
 -522 -311 -522 -311 -534.5 -321 c 128,-1,8
 -547 -331 -547 -331 -555 -346 c 128,-1,9
 -563 -361 -563 -361 -563 -380 c 0,10,11
 -563 -402 -563 -402 -556.5 -422.5 c 128,-1,12
 -550 -443 -550 -443 -537.5 -459 c 128,-1,13
 -525 -475 -525 -475 -508 -484.5 c 128,-1,14
 -491 -494 -491 -494 -470 -494 c 0,15,16
 -435 -494 -435 -494 -412 -470.5 c 128,-1,17
 -389 -447 -389 -447 -389 -414 c 0,0,1
-533 -534 m 0,18,19
 -568 -534 -568 -534 -588.5 -522 c 128,-1,20
 -609 -510 -609 -510 -617.5 -490.5 c 128,-1,21
 -626 -471 -626 -471 -625.5 -447 c 128,-1,22
 -625 -423 -625 -423 -618 -399 c 0,23,24
 -610 -370 -610 -370 -591.5 -345.5 c 128,-1,25
 -573 -321 -573 -321 -547.5 -303 c 128,-1,26
 -522 -285 -522 -285 -492.5 -275 c 128,-1,27
 -463 -265 -463 -265 -434 -265 c 0,28,29
 -399 -265 -399 -265 -378.5 -277 c 128,-1,30
 -358 -289 -358 -289 -349.5 -308.5 c 128,-1,31
 -341 -328 -341 -328 -341.5 -352 c 128,-1,32
 -342 -376 -342 -376 -349 -400 c 0,33,34
 -357 -429 -357 -429 -375.5 -453.5 c 128,-1,35
 -394 -478 -394 -478 -419.5 -496 c 128,-1,36
 -445 -514 -445 -514 -474.5 -524 c 128,-1,37
 -504 -534 -504 -534 -533 -534 c 0,18,19
EndSplineSet
Validated: 33
EndChar

StartChar: trademark
Encoding: 8482 8482 103
Width: 0
Flags: W
LayerCount: 2
Fore
SplineSet
-289 -414 m 0,0,1
 -289 -397 -289 -397 -294 -377 c 128,-1,2
 -299 -357 -299 -357 -309.5 -340 c 128,-1,3
 -320 -323 -320 -323 -336 -311.5 c 128,-1,4
 -352 -300 -352 -300 -374 -300 c 0,5,6
 -390 -300 -390 -300 -406 -305.5 c 128,-1,7
 -422 -311 -422 -311 -434.5 -321 c 128,-1,8
 -447 -331 -447 -331 -455 -346 c 128,-1,9
 -463 -361 -463 -361 -463 -380 c 0,10,11
 -463 -402 -463 -402 -456.5 -422.5 c 128,-1,12
 -450 -443 -450 -443 -437.5 -459 c 128,-1,13
 -425 -475 -425 -475 -408 -484.5 c 128,-1,14
 -391 -494 -391 -494 -370 -494 c 0,15,16
 -335 -494 -335 -494 -312 -470.5 c 128,-1,17
 -289 -447 -289 -447 -289 -414 c 0,0,1
-433 -534 m 0,18,19
 -468 -534 -468 -534 -488.5 -522 c 128,-1,20
 -509 -510 -509 -510 -517.5 -490.5 c 128,-1,21
 -526 -471 -526 -471 -525.5 -447 c 128,-1,22
 -525 -423 -525 -423 -518 -399 c 0,23,24
 -510 -370 -510 -370 -491.5 -345.5 c 128,-1,25
 -473 -321 -473 -321 -447.5 -303 c 128,-1,26
 -422 -285 -422 -285 -392.5 -275 c 128,-1,27
 -363 -265 -363 -265 -334 -265 c 0,28,29
 -299 -265 -299 -265 -278.5 -277 c 128,-1,30
 -258 -289 -258 -289 -249.5 -308.5 c 128,-1,31
 -241 -328 -241 -328 -241.5 -352 c 128,-1,32
 -242 -376 -242 -376 -249 -400 c 0,33,34
 -257 -429 -257 -429 -275.5 -453.5 c 128,-1,35
 -294 -478 -294 -478 -319.5 -496 c 128,-1,36
 -345 -514 -345 -514 -374.5 -524 c 128,-1,37
 -404 -534 -404 -534 -433 -534 c 0,18,19
EndSplineSet
Validated: 33
EndChar

StartChar: guilsinglright
Encoding: 8250 8250 104
Width: 420
Flags: W
LayerCount: 2
Fore
SplineSet
98 670 m 2,0,1
 98 685 98 685 95.5 702.5 c 128,-1,2
 93 720 93 720 83 731.5 c 128,-1,3
 73 743 73 743 54 745 c 128,-1,4
 35 747 35 747 2 731 c 1,5,-1
 0 735 l 1,6,7
 33 767 33 767 59 787 c 128,-1,8
 85 807 85 807 107.5 819 c 128,-1,9
 130 831 130 831 150 836.5 c 128,-1,10
 170 842 170 842 190 845 c 1,11,-1
 190 721 l 1,12,13
 221 751 221 751 246.5 770 c 128,-1,14
 272 789 272 789 293.5 800.5 c 128,-1,15
 315 812 315 812 334.5 817 c 128,-1,16
 354 822 354 822 374 825 c 1,17,-1
 374 0 l 1,18,19
 363 -16 363 -16 340.5 -40.5 c 128,-1,20
 318 -65 318 -65 291 -90.5 c 128,-1,21
 264 -116 264 -116 236.5 -138.5 c 128,-1,22
 209 -161 209 -161 190 -173 c 1,23,-1
 190 -272 l 1,24,25
 178 -289 178 -289 157 -312.5 c 128,-1,26
 136 -336 136 -336 112 -358.5 c 128,-1,27
 88 -381 88 -381 64 -400 c 128,-1,28
 40 -419 40 -419 23 -426 c 1,29,-1
 21 -423 l 1,30,31
 28 -416 28 -416 40.5 -397 c 128,-1,32
 53 -378 53 -378 66 -341 c 128,-1,33
 79 -304 79 -304 88.5 -246.5 c 128,-1,34
 98 -189 98 -189 98 -106 c 2,35,-1
 98 670 l 2,0,1
282 650 m 2,36,37
 282 665 282 665 279.5 682 c 128,-1,38
 277 699 277 699 267.5 711 c 128,-1,39
 258 723 258 723 239.5 725.5 c 128,-1,40
 221 728 221 728 190 713 c 1,41,-1
 190 -161 l 1,42,43
 202 -148 202 -148 217.5 -123.5 c 128,-1,44
 233 -99 233 -99 247.5 -60 c 128,-1,45
 262 -21 262 -21 272 34.5 c 128,-1,46
 282 90 282 90 282 166 c 2,47,-1
 282 650 l 2,36,37
EndSplineSet
Validated: 33
EndChar

StartChar: oe
Encoding: 339 339 105
Width: 945
Flags: W
LayerCount: 2
Fore
SplineSet
198 -20 m 0,0,1
 170 -20 170 -20 143.5 -6 c 128,-1,2
 117 8 117 8 96 30 c 128,-1,3
 75 52 75 52 62.5 79.5 c 128,-1,4
 50 107 50 107 50 134 c 2,5,-1
 50 670 l 2,6,7
 50 700 50 700 39 722 c 128,-1,8
 28 744 28 744 0 755 c 1,9,10
 15 768 15 768 33 783 c 128,-1,11
 51 798 51 798 71 810.5 c 128,-1,12
 91 823 91 823 111.5 832.5 c 128,-1,13
 132 842 132 842 152 845 c 1,14,-1
 152 427 l 1,15,-1
 545 427 l 2,16,17
 603 427 603 427 657.5 427.5 c 128,-1,18
 712 428 712 428 759 429.5 c 128,-1,19
 806 431 806 431 844 434.5 c 128,-1,20
 882 438 882 438 906 444 c 1,21,22
 901 429 901 429 888 411 c 128,-1,23
 875 393 875 393 861 376 c 0,24,25
 845 357 845 357 826 338 c 1,26,-1
 809 338 l 1,27,28
 821 327 821 327 831 316 c 0,29,30
 839 306 839 306 846 293.5 c 128,-1,31
 853 281 853 281 853 267 c 0,32,33
 853 221 853 221 828.5 170.5 c 128,-1,34
 804 120 804 120 763 78 c 128,-1,35
 722 36 722 36 668 8.5 c 128,-1,36
 614 -19 614 -19 554 -19 c 0,37,38
 491 -19 491 -19 447 2 c 128,-1,39
 403 23 403 23 383 58 c 1,40,41
 323 16 323 16 277 -2 c 128,-1,42
 231 -20 231 -20 198 -20 c 0,0,1
772 222 m 0,43,44
 772 251 772 251 759 272.5 c 128,-1,45
 746 294 746 294 730 308 c 0,46,47
 712 325 712 325 689 337 c 1,48,-1
 468 337 l 1,49,-1
 468 157 l 2,50,51
 468 132 468 132 482 112.5 c 128,-1,52
 496 93 496 93 520 79.5 c 128,-1,53
 544 66 544 66 576.5 59 c 128,-1,54
 609 52 609 52 645 52 c 0,55,56
 682 52 682 52 707 66 c 128,-1,57
 732 80 732 80 746 104 c 128,-1,58
 760 128 760 128 766 158.5 c 128,-1,59
 772 189 772 189 772 222 c 0,43,44
366 337 m 1,60,-1
 152 337 l 1,61,-1
 152 212 l 2,62,63
 152 178 152 178 164 149 c 128,-1,64
 176 120 176 120 197 99 c 128,-1,65
 218 78 218 78 246 66 c 128,-1,66
 274 54 274 54 305 54 c 0,67,68
 319 54 319 54 334 58.5 c 128,-1,69
 349 63 349 63 373 80 c 1,70,71
 366 100 366 100 366 125 c 2,72,-1
 366 337 l 1,60,-1
EndSplineSet
Validated: 1
EndChar

StartChar: Ydieresis
Encoding: 376 376 106
Width: 0
Flags: W
LayerCount: 2
Fore
SplineSet
-525 -512 m 1,0,1
 -525 -499 -525 -499 -507 -474.5 c 128,-1,2
 -489 -450 -489 -450 -460 -419.5 c 128,-1,3
 -431 -389 -431 -389 -393.5 -354.5 c 128,-1,4
 -356 -320 -356 -320 -316.5 -285.5 c 128,-1,5
 -277 -251 -277 -251 -239 -219.5 c 128,-1,6
 -201 -188 -201 -188 -170.5 -163.5 c 128,-1,7
 -140 -139 -140 -139 -121 -124 c 128,-1,8
 -102 -109 -102 -109 -100 -108 c 0,9,10
 -96 -106 -96 -106 -94 -111 c 128,-1,11
 -92 -116 -92 -116 -97 -121 c 0,12,13
 -99 -123 -99 -123 -122.5 -144.5 c 128,-1,14
 -146 -166 -146 -166 -180 -198 c 128,-1,15
 -214 -230 -214 -230 -253.5 -268 c 128,-1,16
 -293 -306 -293 -306 -326.5 -342.5 c 128,-1,17
 -360 -379 -360 -379 -382 -409 c 128,-1,18
 -404 -439 -404 -439 -404 -454 c 1,19,-1
 -525 -512 l 1,0,1
EndSplineSet
Validated: 1
EndChar

StartChar: exclamdown
Encoding: 161 161 107
Width: 447
Flags: W
LayerCount: 2
Fore
SplineSet
-199 68 m 1,0,1
 -130 68 -130 68 -79 76.5 c 128,-1,2
 -28 85 -28 85 11 98 c 128,-1,3
 50 111 50 111 81.5 125.5 c 128,-1,4
 113 140 113 140 144 153 c 128,-1,5
 175 166 175 166 209.5 174.5 c 128,-1,6
 244 183 244 183 290 183 c 0,7,8
 311 184 311 184 331 176.5 c 128,-1,9
 351 169 351 169 366 155 c 128,-1,10
 381 141 381 141 390 121.5 c 128,-1,11
 399 102 399 102 399 79 c 0,12,13
 399 40 399 40 376 -2.5 c 128,-1,14
 353 -45 353 -45 318 -80 c 128,-1,15
 283 -115 283 -115 240 -138 c 128,-1,16
 197 -161 197 -161 157 -161 c 0,17,18
 137 -161 137 -161 115 -154 c 128,-1,19
 93 -147 93 -147 75 -133.5 c 128,-1,20
 57 -120 57 -120 45 -101 c 128,-1,21
 33 -82 33 -82 32 -58 c 1,22,-1
 140 -23 l 1,23,24
 141 -38 141 -38 147.5 -52 c 128,-1,25
 154 -66 154 -66 164.5 -77 c 128,-1,26
 175 -88 175 -88 189 -94.5 c 128,-1,27
 203 -101 203 -101 218 -101 c 0,28,29
 236 -101 236 -101 253.5 -93.5 c 128,-1,30
 271 -86 271 -86 284.5 -72.5 c 128,-1,31
 298 -59 298 -59 306 -41 c 128,-1,32
 314 -23 314 -23 314 -1 c 256,33,34
 314 21 314 21 304.5 38.5 c 128,-1,35
 295 56 295 56 278.5 68.5 c 128,-1,36
 262 81 262 81 239.5 87.5 c 128,-1,37
 217 94 217 94 192 94 c 0,38,39
 159 94 159 94 108.5 79.5 c 128,-1,40
 58 65 58 65 -4 47 c 128,-1,41
 -66 29 -66 29 -136.5 14.5 c 128,-1,42
 -207 0 -207 0 -281 0 c 1,43,-1
 -199 68 l 1,0,1
EndSplineSet
Validated: 33
EndChar

StartChar: cent
Encoding: 162 162 108
Width: 481
Flags: W
LayerCount: 2
Fore
SplineSet
-82 436 m 1,0,-1
 324 437 l 2,1,2
 345 437 345 437 365 429.5 c 128,-1,3
 385 422 385 422 400 408.5 c 128,-1,4
 415 395 415 395 424 375.5 c 128,-1,5
 433 356 433 356 433 333 c 0,6,7
 433 294 433 294 410 251.5 c 128,-1,8
 387 209 387 209 352 174 c 128,-1,9
 317 139 317 139 274 116 c 128,-1,10
 231 93 231 93 191 93 c 0,11,12
 171 93 171 93 149 100 c 128,-1,13
 127 107 127 107 109 120.5 c 128,-1,14
 91 134 91 134 79 153 c 128,-1,15
 67 172 67 172 66 196 c 1,16,-1
 174 231 l 1,17,18
 175 216 175 216 181.5 202 c 128,-1,19
 188 188 188 188 198.5 177 c 128,-1,20
 209 166 209 166 223 159.5 c 128,-1,21
 237 153 237 153 252 153 c 0,22,23
 270 153 270 153 287.5 160.5 c 128,-1,24
 305 168 305 168 318.5 181.5 c 128,-1,25
 332 195 332 195 340 213 c 128,-1,26
 348 231 348 231 348 253 c 256,27,28
 348 275 348 275 338.5 292.5 c 128,-1,29
 329 310 329 310 312.5 322.5 c 128,-1,30
 296 335 296 335 273.5 341.5 c 128,-1,31
 251 348 251 348 226 348 c 2,32,-1
 -175 347 l 1,33,-1
 -82 436 l 1,0,-1
EndSplineSet
Validated: 1
EndChar

StartChar: sterling
Encoding: 163 163 109
Width: 717
Flags: W
LayerCount: 2
Fore
SplineSet
-162 68 m 1,0,1
 -121 48 -121 48 -72 30 c 0,2,3
 -30 14 -30 14 26.5 -4 c 128,-1,4
 83 -22 83 -22 148 -35 c 1,5,6
 197 12 197 12 248 56 c 128,-1,7
 299 100 299 100 351 134 c 128,-1,8
 403 168 403 168 455.5 188.5 c 128,-1,9
 508 209 508 209 561 209 c 0,10,11
 596 209 596 209 618.5 200 c 128,-1,12
 641 191 641 191 654 174.5 c 128,-1,13
 667 158 667 158 672 135 c 128,-1,14
 677 112 677 112 677 85 c 256,15,16
 677 58 677 58 648 20.5 c 128,-1,17
 619 -17 619 -17 565.5 -51.5 c 128,-1,18
 512 -86 512 -86 437 -110 c 128,-1,19
 362 -134 362 -134 270 -134 c 0,20,21
 231 -134 231 -134 190.5 -129 c 128,-1,22
 150 -124 150 -124 109 -116 c 1,23,24
 54 -170 54 -170 -0.5 -222 c 128,-1,25
 -55 -274 -55 -274 -107 -315.5 c 128,-1,26
 -159 -357 -159 -357 -207 -382 c 128,-1,27
 -255 -407 -255 -407 -296 -407 c 0,28,29
 -350 -407 -350 -407 -372.5 -386 c 128,-1,30
 -395 -365 -395 -365 -395 -333 c 0,31,32
 -395 -300 -395 -300 -374.5 -260 c 128,-1,33
 -354 -220 -354 -220 -322.5 -186 c 128,-1,34
 -291 -152 -291 -152 -252 -129 c 128,-1,35
 -213 -106 -213 -106 -176 -106 c 0,36,37
 -153 -106 -153 -106 -133 -116 c 128,-1,38
 -113 -126 -113 -126 -96 -148 c 1,39,-1
 -181 -186 l 1,40,41
 -208 -157 -208 -157 -246 -162 c 0,42,43
 -292 -168 -292 -168 -312.5 -193.5 c 128,-1,44
 -333 -219 -333 -219 -333 -248 c 0,45,46
 -333 -278 -333 -278 -312.5 -302 c 128,-1,47
 -292 -326 -292 -326 -254 -326 c 0,48,49
 -218 -326 -218 -326 -179.5 -308 c 128,-1,50
 -141 -290 -141 -290 -100 -260 c 128,-1,51
 -59 -230 -59 -230 -16 -190.5 c 128,-1,52
 27 -151 27 -151 72 -108 c 1,53,54
 9 -94 9 -94 -48 -75 c 128,-1,55
 -105 -56 -105 -56 -149 -39 c 0,56,57
 -200 -20 -200 -20 -244 0 c 1,58,-1
 -162 68 l 1,0,1
480 157 m 0,59,60
 451 157 451 157 417.5 141 c 128,-1,61
 384 125 384 125 346.5 98 c 128,-1,62
 309 71 309 71 268 34.5 c 128,-1,63
 227 -2 227 -2 185 -42 c 1,64,65
 223 -48 223 -48 261.5 -52 c 128,-1,66
 300 -56 300 -56 339 -56 c 0,67,68
 424 -56 424 -56 471 -47.5 c 128,-1,69
 518 -39 518 -39 540.5 -25 c 128,-1,70
 563 -11 563 -11 567 8.5 c 128,-1,71
 571 28 571 28 571 49 c 256,72,73
 571 70 571 70 563.5 89.5 c 128,-1,74
 556 109 556 109 543.5 124 c 128,-1,75
 531 139 531 139 514.5 148 c 128,-1,76
 498 157 498 157 480 157 c 0,59,60
EndSplineSet
Validated: 33
EndChar

StartChar: currency
Encoding: 164 164 110
Width: 727
Flags: W
LayerCount: 2
Fore
SplineSet
102 265 m 0,0,1
 102 309 102 309 127 342 c 1,2,-1
 93 377 l 1,3,-1
 121 405 l 1,4,-1
 156 370 l 1,5,6
 172 381 172 381 190.5 387.5 c 128,-1,7
 209 394 209 394 230 394 c 0,8,9
 250 394 250 394 268.5 388 c 128,-1,10
 287 382 287 382 303 371 c 1,11,-1
 339 406 l 1,12,-1
 367 378 l 1,13,-1
 333 342 l 1,14,15
 345 326 345 326 352 306.5 c 128,-1,16
 359 287 359 287 359 265 c 0,17,18
 359 244 359 244 352.5 225.5 c 128,-1,19
 346 207 346 207 335 191 c 1,20,-1
 367 160 l 1,21,-1
 339 132 l 1,22,-1
 307 162 l 1,23,24
 274 137 274 137 230 137 c 0,25,26
 208 137 208 137 188.5 144 c 128,-1,27
 169 151 169 151 153 163 c 1,28,-1
 121 131 l 1,29,-1
 93 159 l 1,30,-1
 125 191 l 1,31,32
 114 207 114 207 108 225.5 c 128,-1,33
 102 244 102 244 102 265 c 0,0,1
128 265 m 0,34,35
 128 222 128 222 157.5 192.5 c 128,-1,36
 187 163 187 163 230 163 c 0,37,38
 251 163 251 163 270 171 c 128,-1,39
 289 179 289 179 303 192.5 c 128,-1,40
 317 206 317 206 325 225 c 128,-1,41
 333 244 333 244 333 265 c 256,42,43
 333 286 333 286 325 305 c 128,-1,44
 317 324 317 324 303 338 c 128,-1,45
 289 352 289 352 270 360 c 128,-1,46
 251 368 251 368 230 368 c 256,47,48
 209 368 209 368 190 360 c 128,-1,49
 171 352 171 352 157.5 338 c 128,-1,50
 144 324 144 324 136 305 c 128,-1,51
 128 286 128 286 128 265 c 0,34,35
EndSplineSet
Validated: 1
EndChar

StartChar: brokenbar
Encoding: 166 166 111
Width: 912
Flags: W
LayerCount: 2
Fore
SplineSet
385 670 m 2,0,1
 385 700 385 700 374 722 c 128,-1,2
 363 744 363 744 335 755 c 1,3,4
 350 768 350 768 368 783 c 128,-1,5
 386 798 386 798 406 810.5 c 128,-1,6
 426 823 426 823 446.5 832.5 c 128,-1,7
 467 842 467 842 487 845 c 1,8,-1
 487 312 l 1,9,10
 513 338 513 338 537.5 361 c 128,-1,11
 562 384 562 384 589 401 c 128,-1,12
 616 418 616 418 647 427.5 c 128,-1,13
 678 437 678 437 718 437 c 0,14,15
 745 437 745 437 772.5 424.5 c 128,-1,16
 800 412 800 412 822 391 c 128,-1,17
 844 370 844 370 858 343.5 c 128,-1,18
 872 317 872 317 872 289 c 0,19,20
 872 265 872 265 861.5 233.5 c 128,-1,21
 851 202 851 202 832.5 169 c 128,-1,22
 814 136 814 136 790 103.5 c 128,-1,23
 766 71 766 71 739 46 c 128,-1,24
 712 21 712 21 684 5.5 c 128,-1,25
 656 -10 656 -10 630 -10 c 0,26,27
 622 -10 622 -10 612 -3 c 128,-1,28
 602 4 602 4 593 12 c 0,29,30
 582 22 582 22 571 34 c 1,31,-1
 628 99 l 1,32,33
 645 86 645 86 664 77 c 128,-1,34
 683 68 683 68 704 68 c 256,35,36
 725 68 725 68 742.5 79 c 128,-1,37
 760 90 760 90 772 106.5 c 128,-1,38
 784 123 784 123 791 143.5 c 128,-1,39
 798 164 798 164 798 182 c 0,40,41
 798 213 798 213 786 245.5 c 128,-1,42
 774 278 774 278 753 305 c 128,-1,43
 732 332 732 332 703 349 c 128,-1,44
 674 366 674 366 640 366 c 0,45,46
 620 366 620 366 599 357.5 c 128,-1,47
 578 349 578 349 557.5 336.5 c 128,-1,48
 537 324 537 324 519 309 c 128,-1,49
 501 294 501 294 487 281 c 1,50,-1
 487 -312 l 1,51,52
 462 -333 462 -333 430.5 -355 c 128,-1,53
 399 -377 399 -377 370 -388 c 1,54,55
 375 -366 375 -366 378 -315 c 128,-1,56
 381 -264 381 -264 382.5 -197.5 c 128,-1,57
 384 -131 384 -131 384.5 -54.5 c 128,-1,58
 385 22 385 22 385 94 c 2,59,-1
 385 105 l 1,60,61
 359 79 359 79 334.5 56 c 128,-1,62
 310 33 310 33 283 16 c 128,-1,63
 256 -1 256 -1 225 -10.5 c 128,-1,64
 194 -20 194 -20 154 -20 c 0,65,66
 127 -20 127 -20 99.5 -7.5 c 128,-1,67
 72 5 72 5 50 26 c 128,-1,68
 28 47 28 47 14 73.5 c 128,-1,69
 0 100 0 100 0 128 c 0,70,71
 0 149 0 149 8 175 c 128,-1,72
 16 201 16 201 29.5 228.5 c 128,-1,73
 43 256 43 256 61.5 284 c 128,-1,74
 80 312 80 312 101 337 c 1,75,-1
 0 337 l 1,76,77
 4 357 4 357 15.5 379 c 128,-1,78
 27 401 27 401 41.5 420.5 c 128,-1,79
 56 440 56 440 70 455 c 128,-1,80
 84 470 84 470 94 477 c 1,81,82
 105 449 105 449 122 438 c 128,-1,83
 139 427 139 427 169 427 c 2,84,-1
 385 427 l 1,85,-1
 385 670 l 2,0,1
128 337 m 1,86,87
 103 321 103 321 88.5 292 c 128,-1,88
 74 263 74 263 74 236 c 0,89,90
 74 204 74 204 86 171.5 c 128,-1,91
 98 139 98 139 119 112.5 c 128,-1,92
 140 86 140 86 169 69 c 128,-1,93
 198 52 198 52 232 52 c 0,94,95
 252 52 252 52 273 60.5 c 128,-1,96
 294 69 294 69 314.5 81.5 c 128,-1,97
 335 94 335 94 353 109 c 128,-1,98
 371 124 371 124 385 137 c 1,99,-1
 385 337 l 1,100,-1
 128 337 l 1,86,87
EndSplineSet
Validated: 1
EndChar

StartChar: section
Encoding: 167 167 112
Width: 912
Flags: W
LayerCount: 2
Fore
SplineSet
385 670 m 2,0,1
 385 700 385 700 374 722 c 128,-1,2
 363 744 363 744 335 755 c 1,3,4
 350 768 350 768 368 783 c 128,-1,5
 386 798 386 798 406 810.5 c 128,-1,6
 426 823 426 823 446.5 832.5 c 128,-1,7
 467 842 467 842 487 845 c 1,8,-1
 487 312 l 1,9,10
 513 338 513 338 537.5 361 c 128,-1,11
 562 384 562 384 589 401 c 128,-1,12
 616 418 616 418 647 427.5 c 128,-1,13
 678 437 678 437 718 437 c 0,14,15
 745 437 745 437 772.5 424.5 c 128,-1,16
 800 412 800 412 822 391 c 128,-1,17
 844 370 844 370 858 343.5 c 128,-1,18
 872 317 872 317 872 289 c 0,19,20
 872 265 872 265 861.5 233.5 c 128,-1,21
 851 202 851 202 832.5 169 c 128,-1,22
 814 136 814 136 790 103.5 c 128,-1,23
 766 71 766 71 739 46 c 128,-1,24
 712 21 712 21 684 5.5 c 128,-1,25
 656 -10 656 -10 630 -10 c 0,26,27
 622 -10 622 -10 612 -3 c 128,-1,28
 602 4 602 4 593 12 c 0,29,30
 582 22 582 22 571 34 c 1,31,-1
 628 99 l 1,32,33
 645 86 645 86 664 77 c 128,-1,34
 683 68 683 68 704 68 c 256,35,36
 725 68 725 68 742.5 79 c 128,-1,37
 760 90 760 90 772 106.5 c 128,-1,38
 784 123 784 123 791 143.5 c 128,-1,39
 798 164 798 164 798 182 c 0,40,41
 798 213 798 213 786 245.5 c 128,-1,42
 774 278 774 278 753 305 c 128,-1,43
 732 332 732 332 703 349 c 128,-1,44
 674 366 674 366 640 366 c 0,45,46
 620 366 620 366 599 357.5 c 128,-1,47
 578 349 578 349 557.5 336.5 c 128,-1,48
 537 324 537 324 519 309 c 128,-1,49
 501 294 501 294 487 281 c 1,50,-1
 487 -312 l 1,51,52
 462 -333 462 -333 430.5 -355 c 128,-1,53
 399 -377 399 -377 370 -388 c 1,54,55
 375 -366 375 -366 378 -315 c 128,-1,56
 381 -264 381 -264 382.5 -197.5 c 128,-1,57
 384 -131 384 -131 384.5 -54.5 c 128,-1,58
 385 22 385 22 385 94 c 2,59,-1
 385 105 l 1,60,61
 359 79 359 79 334.5 56 c 128,-1,62
 310 33 310 33 283 16 c 128,-1,63
 256 -1 256 -1 225 -10.5 c 128,-1,64
 194 -20 194 -20 154 -20 c 0,65,66
 127 -20 127 -20 99.5 -7.5 c 128,-1,67
 72 5 72 5 50 26 c 128,-1,68
 28 47 28 47 14 73.5 c 128,-1,69
 0 100 0 100 0 128 c 0,70,71
 0 152 0 152 10.5 183.5 c 128,-1,72
 21 215 21 215 39.5 248.5 c 128,-1,73
 58 282 58 282 82 314 c 128,-1,74
 106 346 106 346 133 371 c 128,-1,75
 160 396 160 396 188 411.5 c 128,-1,76
 216 427 216 427 242 427 c 0,77,78
 250 427 250 427 260 420 c 128,-1,79
 270 413 270 413 279 405 c 0,80,81
 290 395 290 395 301 383 c 1,82,-1
 244 319 l 1,83,84
 227 331 227 331 208 340 c 128,-1,85
 189 349 189 349 168 349 c 256,86,87
 147 349 147 349 129.5 338 c 128,-1,88
 112 327 112 327 100 310.5 c 128,-1,89
 88 294 88 294 81 274 c 128,-1,90
 74 254 74 254 74 236 c 0,91,92
 74 204 74 204 86 171.5 c 128,-1,93
 98 139 98 139 119 112.5 c 128,-1,94
 140 86 140 86 169 69 c 128,-1,95
 198 52 198 52 232 52 c 0,96,97
 252 52 252 52 273 60.5 c 128,-1,98
 294 69 294 69 314.5 81.5 c 128,-1,99
 335 94 335 94 353 109 c 128,-1,100
 371 124 371 124 385 137 c 1,101,-1
 385 670 l 2,0,1
EndSplineSet
Validated: 1
EndChar

StartChar: dieresis
Encoding: 168 168 113
Width: 0
Flags: W
LayerCount: 2
Fore
SplineSet
-139 -414 m 0,0,1
 -139 -397 -139 -397 -144 -377 c 128,-1,2
 -149 -357 -149 -357 -159.5 -340 c 128,-1,3
 -170 -323 -170 -323 -186 -311.5 c 128,-1,4
 -202 -300 -202 -300 -224 -300 c 0,5,6
 -240 -300 -240 -300 -256 -305.5 c 128,-1,7
 -272 -311 -272 -311 -284.5 -321 c 128,-1,8
 -297 -331 -297 -331 -305 -346 c 128,-1,9
 -313 -361 -313 -361 -313 -380 c 0,10,11
 -313 -402 -313 -402 -306.5 -422.5 c 128,-1,12
 -300 -443 -300 -443 -287.5 -459 c 128,-1,13
 -275 -475 -275 -475 -258 -484.5 c 128,-1,14
 -241 -494 -241 -494 -220 -494 c 0,15,16
 -185 -494 -185 -494 -162 -470.5 c 128,-1,17
 -139 -447 -139 -447 -139 -414 c 0,0,1
-283 -534 m 0,18,19
 -318 -534 -318 -534 -338.5 -522 c 128,-1,20
 -359 -510 -359 -510 -367.5 -490.5 c 128,-1,21
 -376 -471 -376 -471 -375.5 -447 c 128,-1,22
 -375 -423 -375 -423 -368 -399 c 0,23,24
 -360 -370 -360 -370 -341.5 -345.5 c 128,-1,25
 -323 -321 -323 -321 -297.5 -303 c 128,-1,26
 -272 -285 -272 -285 -242.5 -275 c 128,-1,27
 -213 -265 -213 -265 -184 -265 c 0,28,29
 -149 -265 -149 -265 -128.5 -277 c 128,-1,30
 -108 -289 -108 -289 -99.5 -308.5 c 128,-1,31
 -91 -328 -91 -328 -91.5 -352 c 128,-1,32
 -92 -376 -92 -376 -99 -400 c 0,33,34
 -107 -429 -107 -429 -125.5 -453.5 c 128,-1,35
 -144 -478 -144 -478 -169.5 -496 c 128,-1,36
 -195 -514 -195 -514 -224.5 -524 c 128,-1,37
 -254 -534 -254 -534 -283 -534 c 0,18,19
EndSplineSet
Validated: 33
EndChar

StartChar: copyright
Encoding: 169 169 114
Width: 0
Flags: W
LayerCount: 2
Fore
SplineSet
-9 -414 m 0,0,1
 -9 -397 -9 -397 -14 -377 c 128,-1,2
 -19 -357 -19 -357 -29.5 -340 c 128,-1,3
 -40 -323 -40 -323 -56 -311.5 c 128,-1,4
 -72 -300 -72 -300 -94 -300 c 0,5,6
 -110 -300 -110 -300 -126 -305.5 c 128,-1,7
 -142 -311 -142 -311 -154.5 -321 c 128,-1,8
 -167 -331 -167 -331 -175 -346 c 128,-1,9
 -183 -361 -183 -361 -183 -380 c 0,10,11
 -183 -402 -183 -402 -176.5 -422.5 c 128,-1,12
 -170 -443 -170 -443 -157.5 -459 c 128,-1,13
 -145 -475 -145 -475 -128 -484.5 c 128,-1,14
 -111 -494 -111 -494 -90 -494 c 0,15,16
 -55 -494 -55 -494 -32 -470.5 c 128,-1,17
 -9 -447 -9 -447 -9 -414 c 0,0,1
-153 -534 m 0,18,19
 -188 -534 -188 -534 -208.5 -522 c 128,-1,20
 -229 -510 -229 -510 -237.5 -490.5 c 128,-1,21
 -246 -471 -246 -471 -245.5 -447 c 128,-1,22
 -245 -423 -245 -423 -238 -399 c 0,23,24
 -230 -370 -230 -370 -211.5 -345.5 c 128,-1,25
 -193 -321 -193 -321 -167.5 -303 c 128,-1,26
 -142 -285 -142 -285 -112.5 -275 c 128,-1,27
 -83 -265 -83 -265 -54 -265 c 0,28,29
 -19 -265 -19 -265 1.5 -277 c 128,-1,30
 22 -289 22 -289 30.5 -308.5 c 128,-1,31
 39 -328 39 -328 38.5 -352 c 128,-1,32
 38 -376 38 -376 31 -400 c 0,33,34
 23 -429 23 -429 4.5 -453.5 c 128,-1,35
 -14 -478 -14 -478 -39.5 -496 c 128,-1,36
 -65 -514 -65 -514 -94.5 -524 c 128,-1,37
 -124 -534 -124 -534 -153 -534 c 0,18,19
EndSplineSet
Validated: 33
EndChar

StartChar: uni00AD
Encoding: 173 173 115
Width: 0
Flags: W
LayerCount: 2
Fore
SplineSet
-192 695 m 1,0,-1
 -253 757 l 1,1,-1
 -198 814 l 1,2,-1
 -138 751 l 1,3,-1
 -192 695 l 1,0,-1
-376 695 m 1,4,-1
 -436 757 l 1,5,-1
 -382 814 l 1,6,-1
 -321 751 l 1,7,-1
 -376 695 l 1,4,-1
-283 570 m 1,8,-1
 -343 632 l 1,9,-1
 -288 688 l 1,10,-1
 -229 626 l 1,11,-1
 -283 570 l 1,8,-1
EndSplineSet
Validated: 1
EndChar

StartChar: registered
Encoding: 174 174 116
Width: 561
Flags: W
LayerCount: 2
Fore
SplineSet
518 269 m 0,0,1
 518 197 518 197 493 122 c 128,-1,2
 468 47 468 47 429 -24.5 c 128,-1,3
 390 -96 390 -96 343.5 -160 c 128,-1,4
 297 -224 297 -224 254.5 -275 c 128,-1,5
 212 -326 212 -326 178.5 -361 c 128,-1,6
 145 -396 145 -396 133 -408 c 0,7,8
 126 -415 126 -415 123 -415 c 0,9,10
 121 -415 121 -415 121 -412 c 0,11,12
 121 -410 121 -410 123 -408 c 0,13,14
 130 -400 130 -400 157 -367 c 128,-1,15
 184 -334 184 -334 220 -285.5 c 128,-1,16
 256 -237 256 -237 296 -176.5 c 128,-1,17
 336 -116 336 -116 370 -51.5 c 128,-1,18
 404 13 404 13 426 77.5 c 128,-1,19
 448 142 448 142 448 198 c 0,20,21
 448 241 448 241 426.5 272 c 128,-1,22
 405 303 405 303 371 323.5 c 128,-1,23
 337 344 337 344 296.5 353.5 c 128,-1,24
 256 363 256 363 218 363 c 0,25,26
 146 363 146 363 108.5 326 c 128,-1,27
 71 289 71 289 71 217 c 0,28,29
 71 174 71 174 92.5 143 c 128,-1,30
 114 112 114 112 147.5 91.5 c 128,-1,31
 181 71 181 71 221.5 61.5 c 128,-1,32
 262 52 262 52 300 52 c 0,33,34
 343 52 343 52 373 65 c 0,35,36
 387 70 387 70 392.5 61 c 128,-1,37
 398 52 398 52 387 43 c 0,38,39
 349 14 349 14 307 -3 c 128,-1,40
 265 -20 265 -20 223 -20 c 0,41,42
 183 -20 183 -20 143.5 -12 c 128,-1,43
 104 -4 104 -4 72 15.5 c 128,-1,44
 40 35 40 35 20 66.5 c 128,-1,45
 0 98 0 98 0 146 c 0,46,47
 0 198 0 198 26.5 249.5 c 128,-1,48
 53 301 53 301 95.5 342 c 128,-1,49
 138 383 138 383 191 409 c 128,-1,50
 244 435 244 435 296 435 c 0,51,52
 336 435 336 435 376 426.5 c 128,-1,53
 416 418 416 418 447.5 398.5 c 128,-1,54
 479 379 479 379 498.5 347.5 c 128,-1,55
 518 316 518 316 518 269 c 0,0,1
EndSplineSet
Validated: 1
EndChar

StartChar: macron
Encoding: 175 175 117
Width: 0
Flags: W
LayerCount: 2
Fore
SplineSet
-145 695 m 1,0,-1
 -206 757 l 1,1,-1
 -151 814 l 1,2,-1
 -91 751 l 1,3,-1
 -145 695 l 1,0,-1
-329 695 m 1,4,-1
 -389 757 l 1,5,-1
 -335 814 l 1,6,-1
 -274 751 l 1,7,-1
 -329 695 l 1,4,-1
-236 570 m 1,8,-1
 -296 632 l 1,9,-1
 -241 688 l 1,10,-1
 -182 626 l 1,11,-1
 -236 570 l 1,8,-1
EndSplineSet
Validated: 1
EndChar

StartChar: degree
Encoding: 176 176 118
Width: 0
Flags: W
LayerCount: 2
Fore
SplineSet
-122 159 m 1,0,1
 -145 133 -145 133 -169 116.5 c 128,-1,2
 -193 100 -193 100 -219.5 91 c 128,-1,3
 -246 82 -246 82 -276 79 c 128,-1,4
 -306 76 -306 76 -341 76 c 0,5,6
 -380 76 -380 76 -406.5 84 c 128,-1,7
 -433 92 -433 92 -458 101 c 128,-1,8
 -483 110 -483 110 -511.5 118 c 128,-1,9
 -540 126 -540 126 -582 126 c 0,10,11
 -597 126 -597 126 -616.5 124.5 c 128,-1,12
 -636 123 -636 123 -650 118 c 1,13,14
 -628 140 -628 140 -605 152.5 c 128,-1,15
 -582 165 -582 165 -557.5 171.5 c 128,-1,16
 -533 178 -533 178 -507 179.5 c 128,-1,17
 -481 181 -481 181 -454 181 c 0,18,19
 -426 181 -426 181 -400 175 c 128,-1,20
 -374 169 -374 169 -347 162 c 128,-1,21
 -320 155 -320 155 -292 149 c 128,-1,22
 -264 143 -264 143 -232 143 c 0,23,24
 -206 143 -206 143 -176 146.5 c 128,-1,25
 -146 150 -146 150 -122 159 c 1,0,1
EndSplineSet
Validated: 1
EndChar

StartChar: plusminus
Encoding: 177 177 119
Width: 233
Flags: W
LayerCount: 2
Fore
SplineSet
187 682 m 0,0,1
 158 664 158 664 139 641.5 c 128,-1,2
 120 619 120 619 113 595 c 128,-1,3
 106 571 106 571 113 545.5 c 128,-1,4
 120 520 120 520 144 495 c 1,5,-1
 76 448 l 1,6,7
 47 478 47 478 46.5 517 c 128,-1,8
 46 556 46 556 64 592 c 128,-1,9
 82 628 82 628 114 655.5 c 128,-1,10
 146 683 146 683 184 691 c 1,11,-1
 187 691 l 2,12,13
 188 691 188 691 190 688 c 0,14,15
 190 684 190 684 189 683 c 256,16,17
 188 682 188 682 187 682 c 0,0,1
EndSplineSet
Validated: 33
EndChar

StartChar: twosuperior
Encoding: 178 178 120
Width: 229
Flags: W
LayerCount: 2
Fore
SplineSet
4 458 m 1,0,1
 33 476 33 476 52 498.5 c 128,-1,2
 71 521 71 521 78 545 c 128,-1,3
 85 569 85 569 78 594.5 c 128,-1,4
 71 620 71 620 47 645 c 1,5,-1
 115 692 l 1,6,7
 143 662 143 662 144 623 c 128,-1,8
 145 584 145 584 127 548 c 128,-1,9
 109 512 109 512 76.5 484.5 c 128,-1,10
 44 457 44 457 7 449 c 1,11,-1
 4 449 l 2,12,13
 1 449 1 449 1 452 c 0,14,15
 0 454 0 454 2 456 c 2,16,-1
 4 458 l 1,17,-1
 4 458 l 1,0,1
EndSplineSet
Validated: 37
EndChar

StartChar: threesuperior
Encoding: 179 179 121
Width: 537
Flags: W
LayerCount: 2
Fore
SplineSet
457 283 m 0,0,1
 457 219 457 219 435.5 152 c 128,-1,2
 414 85 414 85 380 20.5 c 128,-1,3
 346 -44 346 -44 303.5 -104.5 c 128,-1,4
 261 -165 261 -165 218.5 -216 c 128,-1,5
 176 -267 176 -267 138 -307.5 c 128,-1,6
 100 -348 100 -348 76 -372 c 1,7,8
 117 -349 117 -349 164.5 -341.5 c 128,-1,9
 212 -334 212 -334 260 -334 c 0,10,11
 299 -334 299 -334 348.5 -340 c 128,-1,12
 398 -346 398 -346 449.5 -353 c 128,-1,13
 501 -360 501 -360 550.5 -366 c 128,-1,14
 600 -372 600 -372 639 -372 c 0,15,16
 652 -372 652 -372 667.5 -369.5 c 128,-1,17
 683 -367 683 -367 699.5 -363 c 128,-1,18
 716 -359 716 -359 731.5 -354.5 c 128,-1,19
 747 -350 747 -350 759 -345 c 1,20,21
 712 -398 712 -398 646 -418 c 128,-1,22
 580 -438 580 -438 510 -438 c 0,23,24
 468 -438 468 -438 415.5 -430.5 c 128,-1,25
 363 -423 363 -423 309 -413.5 c 128,-1,26
 255 -404 255 -404 203 -396.5 c 128,-1,27
 151 -389 151 -389 109 -389 c 0,28,29
 101 -389 101 -389 91 -391 c 128,-1,30
 81 -393 81 -393 70 -395.5 c 128,-1,31
 59 -398 59 -398 48.5 -401 c 128,-1,32
 38 -404 38 -404 31 -406 c 1,33,34
 42 -394 42 -394 72 -359.5 c 128,-1,35
 102 -325 102 -325 141 -275.5 c 128,-1,36
 180 -226 180 -226 223 -166 c 128,-1,37
 266 -106 266 -106 302 -42 c 128,-1,38
 338 22 338 22 361 86 c 128,-1,39
 384 150 384 150 384 207 c 0,40,41
 384 240 384 240 366.5 271 c 128,-1,42
 349 302 349 302 321.5 325.5 c 128,-1,43
 294 349 294 349 260.5 363 c 128,-1,44
 227 377 227 377 196 377 c 0,45,46
 178 377 178 377 157.5 370.5 c 128,-1,47
 137 364 137 364 120 352 c 128,-1,48
 103 340 103 340 91.5 322.5 c 128,-1,49
 80 305 80 305 80 284 c 0,50,51
 80 264 80 264 89.5 240 c 128,-1,52
 99 216 99 216 111 200 c 1,53,-1
 46 163 l 1,54,55
 40 166 40 166 32.5 173 c 128,-1,56
 25 180 25 180 17.5 188.5 c 128,-1,57
 10 197 10 197 5 206 c 128,-1,58
 0 215 0 215 0 222 c 0,59,60
 0 248 0 248 16 275 c 128,-1,61
 32 302 32 302 58 327.5 c 128,-1,62
 84 353 84 353 117 375 c 128,-1,63
 150 397 150 397 184 414 c 128,-1,64
 218 431 218 431 250 440.5 c 128,-1,65
 282 450 282 450 306 450 c 0,66,67
 334 450 334 450 361.5 434 c 128,-1,68
 389 418 389 418 410 393.5 c 128,-1,69
 431 369 431 369 444 339.5 c 128,-1,70
 457 310 457 310 457 283 c 0,0,1
EndSplineSet
Validated: 1
EndChar

StartChar: acute
Encoding: 180 180 122
Width: 0
Flags: W
LayerCount: 2
Fore
SplineSet
-370 -131 m 1,0,-1
 -431 -62 l 1,1,-1
 -376 0 l 1,2,-1
 -316 -69 l 1,3,-1
 -370 -131 l 1,0,-1
-544 -131 m 1,4,-1
 -604 -62 l 1,5,-1
 -550 0 l 1,6,-1
 -489 -69 l 1,7,-1
 -544 -131 l 1,4,-1
EndSplineSet
Validated: 1
EndChar

StartChar: mu
Encoding: 181 181 123
Width: 0
Flags: W
LayerCount: 2
Fore
SplineSet
-25 695 m 1,0,-1
 -86 757 l 1,1,-1
 -31 814 l 1,2,-1
 29 751 l 1,3,-1
 -25 695 l 1,0,-1
-209 695 m 1,4,-1
 -269 757 l 1,5,-1
 -215 814 l 1,6,-1
 -154 751 l 1,7,-1
 -209 695 l 1,4,-1
-116 570 m 1,8,-1
 -176 632 l 1,9,-1
 -121 688 l 1,10,-1
 -62 626 l 1,11,-1
 -116 570 l 1,8,-1
EndSplineSet
Validated: 1
EndChar

StartChar: paragraph
Encoding: 182 182 124
Width: 335
Flags: W
LayerCount: 2
Fore
SplineSet
234 73 m 1,0,-1
 173 141 l 1,1,-1
 228 203 l 1,2,-1
 288 135 l 1,3,-1
 234 73 l 1,0,-1
60 73 m 1,4,-1
 0 141 l 1,5,-1
 54 203 l 1,6,-1
 115 135 l 1,7,-1
 60 73 l 1,4,-1
234 283 m 1,8,-1
 173 351 l 1,9,-1
 228 413 l 1,10,-1
 288 345 l 1,11,-1
 234 283 l 1,8,-1
60 283 m 1,12,-1
 0 351 l 1,13,-1
 54 413 l 1,14,-1
 115 345 l 1,15,-1
 60 283 l 1,12,-1
EndSplineSet
Validated: 1
EndChar

StartChar: periodcentered
Encoding: 183 183 125
Width: 153
Flags: W
LayerCount: 2
Fore
SplineSet
59 152 m 1,0,-1
 0 210 l 1,1,-1
 53 263 l 1,2,-1
 111 204 l 1,3,-1
 59 152 l 1,0,-1
EndSplineSet
Validated: 1
EndChar

StartChar: Ccedilla
Encoding: 199 199 126
Width: 488
Flags: W
LayerCount: 2
Fore
SplineSet
442 -143 m 0,0,1
 442 -178 442 -178 421.5 -213.5 c 128,-1,2
 401 -249 401 -249 369.5 -278 c 128,-1,3
 338 -307 338 -307 300 -325.5 c 128,-1,4
 262 -344 262 -344 227 -344 c 0,5,6
 206 -344 206 -344 184 -338 c 128,-1,7
 162 -332 162 -332 144 -320.5 c 128,-1,8
 126 -309 126 -309 114 -291.5 c 128,-1,9
 102 -274 102 -274 101 -250 c 1,10,-1
 189 -225 l 1,11,12
 190 -240 190 -240 196.5 -254 c 128,-1,13
 203 -268 203 -268 213.5 -279 c 128,-1,14
 224 -290 224 -290 238 -296.5 c 128,-1,15
 252 -303 252 -303 267 -303 c 0,16,17
 312 -303 312 -303 337.5 -275.5 c 128,-1,18
 363 -248 363 -248 363 -204 c 0,19,20
 363 -168 363 -168 340 -145.5 c 128,-1,21
 317 -123 317 -123 284 -109.5 c 128,-1,22
 251 -96 251 -96 214.5 -89 c 128,-1,23
 178 -82 178 -82 151 -78 c 2,24,-1
 -281 -9 l 1,25,-1
 -183 55 l 1,26,-1
 330 -25 l 2,27,28
 360 -30 360 -30 381.5 -42.5 c 128,-1,29
 403 -55 403 -55 416.5 -72 c 128,-1,30
 430 -89 430 -89 436 -107.5 c 128,-1,31
 442 -126 442 -126 442 -143 c 0,0,1
EndSplineSet
Validated: 1
EndChar

StartChar: Egrave
Encoding: 200 200 127
Width: 0
Flags: W
LayerCount: 2
Fore
SplineSet
-477 -331 m 1,0,-1
 -545 -262 l 1,1,-1
 -483 -200 l 1,2,-1
 -415 -269 l 1,3,-1
 -477 -331 l 1,0,-1
EndSplineSet
Validated: 1
EndChar

StartChar: Eacute
Encoding: 201 201 128
Width: 0
Flags: W
LayerCount: 2
Fore
SplineSet
-287 -331 m 1,0,-1
 -355 -262 l 1,1,-1
 -293 -200 l 1,2,-1
 -225 -269 l 1,3,-1
 -287 -331 l 1,0,-1
EndSplineSet
Validated: 1
EndChar

StartChar: Ecircumflex
Encoding: 202 202 129
Width: 0
Flags: W
LayerCount: 2
Fore
SplineSet
-247 -331 m 1,0,-1
 -315 -262 l 1,1,-1
 -253 -200 l 1,2,-1
 -185 -269 l 1,3,-1
 -247 -331 l 1,0,-1
EndSplineSet
Validated: 1
EndChar

StartChar: Edieresis
Encoding: 203 203 130
Width: 0
Flags: W
LayerCount: 2
Fore
SplineSet
-107 -331 m 1,0,-1
 -175 -262 l 1,1,-1
 -113 -200 l 1,2,-1
 -45 -269 l 1,3,-1
 -107 -331 l 1,0,-1
EndSplineSet
Validated: 1
EndChar

StartChar: Igrave
Encoding: 204 204 131
Width: 0
Flags: W
LayerCount: 2
Fore
SplineSet
-339 -331 m 1,0,-1
 -400 -262 l 1,1,-1
 -345 -200 l 1,2,-1
 -285 -269 l 1,3,-1
 -339 -331 l 1,0,-1
-513 -331 m 1,4,-1
 -573 -262 l 1,5,-1
 -519 -200 l 1,6,-1
 -458 -269 l 1,7,-1
 -513 -331 l 1,4,-1
EndSplineSet
Validated: 1
EndChar

StartChar: Idieresis
Encoding: 207 207 132
Width: 0
Flags: W
LayerCount: 2
Fore
SplineSet
-30 -331 m 1,0,-1
 -91 -262 l 1,1,-1
 -36 -200 l 1,2,-1
 24 -269 l 1,3,-1
 -30 -331 l 1,0,-1
-204 -331 m 1,4,-1
 -264 -262 l 1,5,-1
 -210 -200 l 1,6,-1
 -149 -269 l 1,7,-1
 -204 -331 l 1,4,-1
EndSplineSet
Validated: 1
EndChar

StartChar: Ntilde
Encoding: 209 209 133
Width: 0
Flags: W
LayerCount: 2
Fore
SplineSet
-192 -319 m 1,0,-1
 -253 -256 l 1,1,-1
 -198 -200 l 1,2,-1
 -138 -262 l 1,3,-1
 -192 -319 l 1,0,-1
-376 -319 m 1,4,-1
 -436 -256 l 1,5,-1
 -382 -200 l 1,6,-1
 -321 -262 l 1,7,-1
 -376 -319 l 1,4,-1
-283 -444 m 1,8,-1
 -343 -382 l 1,9,-1
 -288 -325 l 1,10,-1
 -229 -388 l 1,11,-1
 -283 -444 l 1,8,-1
EndSplineSet
Validated: 1
EndChar

StartChar: Ograve
Encoding: 210 210 134
Width: 0
Flags: W
LayerCount: 2
Fore
SplineSet
-145 -319 m 1,0,-1
 -206 -256 l 1,1,-1
 -151 -200 l 1,2,-1
 -91 -262 l 1,3,-1
 -145 -319 l 1,0,-1
-329 -319 m 1,4,-1
 -389 -256 l 1,5,-1
 -335 -200 l 1,6,-1
 -274 -262 l 1,7,-1
 -329 -319 l 1,4,-1
-236 -444 m 1,8,-1
 -296 -382 l 1,9,-1
 -241 -325 l 1,10,-1
 -182 -388 l 1,11,-1
 -236 -444 l 1,8,-1
EndSplineSet
Validated: 1
EndChar

StartChar: agrave
Encoding: 224 224 135
Width: 0
Flags: W
LayerCount: 2
Fore
SplineSet
-599 676 m 1,0,1
 -577 643 -577 643 -555 641.5 c 128,-1,2
 -533 640 -533 640 -513 659 c 128,-1,3
 -493 678 -493 678 -476.5 712 c 128,-1,4
 -460 746 -460 746 -447 783.5 c 128,-1,5
 -434 821 -434 821 -426.5 856.5 c 128,-1,6
 -419 892 -419 892 -417 914 c 1,7,-1
 -318 938 l 1,8,9
 -315 918 -315 918 -311 889.5 c 128,-1,10
 -307 861 -307 861 -301.5 830.5 c 128,-1,11
 -296 800 -296 800 -286.5 769.5 c 128,-1,12
 -277 739 -277 739 -263 715 c 128,-1,13
 -249 691 -249 691 -228.5 676 c 128,-1,14
 -208 661 -208 661 -180 661 c 0,15,16
 -153 661 -153 661 -127 674 c 1,17,18
 -138 662 -138 662 -154.5 645 c 128,-1,19
 -171 628 -171 628 -190.5 613 c 128,-1,20
 -210 598 -210 598 -230 587.5 c 128,-1,21
 -250 577 -250 577 -267 577 c 0,22,23
 -308 577 -308 577 -334 604.5 c 128,-1,24
 -360 632 -360 632 -375.5 671 c 128,-1,25
 -391 710 -391 710 -400 753 c 128,-1,26
 -409 796 -409 796 -415 826 c 1,27,28
 -427 785 -427 785 -443.5 741 c 128,-1,29
 -460 697 -460 697 -485 660.5 c 128,-1,30
 -510 624 -510 624 -546 600.5 c 128,-1,31
 -582 577 -582 577 -633 577 c 0,32,33
 -651 577 -651 577 -670 591.5 c 128,-1,34
 -689 606 -689 606 -700 618 c 1,35,-1
 -599 676 l 1,0,1
EndSplineSet
Validated: 33
EndChar

StartChar: aacute
Encoding: 225 225 136
Width: 0
Flags: W
LayerCount: 2
Fore
SplineSet
-569 676 m 1,0,1
 -547 643 -547 643 -525 641.5 c 128,-1,2
 -503 640 -503 640 -483 659 c 128,-1,3
 -463 678 -463 678 -446.5 712 c 128,-1,4
 -430 746 -430 746 -417 783.5 c 128,-1,5
 -404 821 -404 821 -396.5 856.5 c 128,-1,6
 -389 892 -389 892 -387 914 c 1,7,-1
 -288 938 l 1,8,9
 -285 918 -285 918 -281 889.5 c 128,-1,10
 -277 861 -277 861 -271.5 830.5 c 128,-1,11
 -266 800 -266 800 -256.5 769.5 c 128,-1,12
 -247 739 -247 739 -233 715 c 128,-1,13
 -219 691 -219 691 -198.5 676 c 128,-1,14
 -178 661 -178 661 -150 661 c 0,15,16
 -123 661 -123 661 -97 674 c 1,17,18
 -108 662 -108 662 -124.5 645 c 128,-1,19
 -141 628 -141 628 -160.5 613 c 128,-1,20
 -180 598 -180 598 -200 587.5 c 128,-1,21
 -220 577 -220 577 -237 577 c 0,22,23
 -278 577 -278 577 -304 604.5 c 128,-1,24
 -330 632 -330 632 -345.5 671 c 128,-1,25
 -361 710 -361 710 -370 753 c 128,-1,26
 -379 796 -379 796 -385 826 c 1,27,28
 -397 785 -397 785 -413.5 741 c 128,-1,29
 -430 697 -430 697 -455 660.5 c 128,-1,30
 -480 624 -480 624 -516 600.5 c 128,-1,31
 -552 577 -552 577 -603 577 c 0,32,33
 -621 577 -621 577 -640 591.5 c 128,-1,34
 -659 606 -659 606 -670 618 c 1,35,-1
 -569 676 l 1,0,1
EndSplineSet
Validated: 33
EndChar

StartChar: acircumflex
Encoding: 226 226 137
Width: 0
Flags: W
LayerCount: 2
Fore
SplineSet
-469 676 m 1,0,1
 -447 643 -447 643 -425 641.5 c 128,-1,2
 -403 640 -403 640 -383 659 c 128,-1,3
 -363 678 -363 678 -346.5 712 c 128,-1,4
 -330 746 -330 746 -317 783.5 c 128,-1,5
 -304 821 -304 821 -296.5 856.5 c 128,-1,6
 -289 892 -289 892 -287 914 c 1,7,-1
 -188 938 l 1,8,9
 -185 918 -185 918 -181 889.5 c 128,-1,10
 -177 861 -177 861 -171.5 830.5 c 128,-1,11
 -166 800 -166 800 -156.5 769.5 c 128,-1,12
 -147 739 -147 739 -133 715 c 128,-1,13
 -119 691 -119 691 -98.5 676 c 128,-1,14
 -78 661 -78 661 -50 661 c 0,15,16
 -23 661 -23 661 3 674 c 1,17,18
 -8 662 -8 662 -24.5 645 c 128,-1,19
 -41 628 -41 628 -60.5 613 c 128,-1,20
 -80 598 -80 598 -100 587.5 c 128,-1,21
 -120 577 -120 577 -137 577 c 0,22,23
 -178 577 -178 577 -204 604.5 c 128,-1,24
 -230 632 -230 632 -245.5 671 c 128,-1,25
 -261 710 -261 710 -270 753 c 128,-1,26
 -279 796 -279 796 -285 826 c 1,27,28
 -297 785 -297 785 -313.5 741 c 128,-1,29
 -330 697 -330 697 -355 660.5 c 128,-1,30
 -380 624 -380 624 -416 600.5 c 128,-1,31
 -452 577 -452 577 -503 577 c 0,32,33
 -521 577 -521 577 -540 591.5 c 128,-1,34
 -559 606 -559 606 -570 618 c 1,35,-1
 -469 676 l 1,0,1
EndSplineSet
Validated: 33
EndChar

StartChar: atilde
Encoding: 227 227 138
Width: 0
Flags: W
LayerCount: 2
Fore
SplineSet
-309 676 m 1,0,1
 -287 643 -287 643 -265 641.5 c 128,-1,2
 -243 640 -243 640 -223 659 c 128,-1,3
 -203 678 -203 678 -186.5 712 c 128,-1,4
 -170 746 -170 746 -157 783.5 c 128,-1,5
 -144 821 -144 821 -136.5 856.5 c 128,-1,6
 -129 892 -129 892 -127 914 c 1,7,-1
 -28 938 l 1,8,9
 -25 918 -25 918 -21 889.5 c 128,-1,10
 -17 861 -17 861 -11.5 830.5 c 128,-1,11
 -6 800 -6 800 3.5 769.5 c 128,-1,12
 13 739 13 739 27 715 c 128,-1,13
 41 691 41 691 61.5 676 c 128,-1,14
 82 661 82 661 110 661 c 0,15,16
 137 661 137 661 163 674 c 1,17,18
 152 662 152 662 135.5 645 c 128,-1,19
 119 628 119 628 99.5 613 c 128,-1,20
 80 598 80 598 60 587.5 c 128,-1,21
 40 577 40 577 23 577 c 0,22,23
 -18 577 -18 577 -44 604.5 c 128,-1,24
 -70 632 -70 632 -85.5 671 c 128,-1,25
 -101 710 -101 710 -110 753 c 128,-1,26
 -119 796 -119 796 -125 826 c 1,27,28
 -137 785 -137 785 -153.5 741 c 128,-1,29
 -170 697 -170 697 -195 660.5 c 128,-1,30
 -220 624 -220 624 -256 600.5 c 128,-1,31
 -292 577 -292 577 -343 577 c 0,32,33
 -361 577 -361 577 -380 591.5 c 128,-1,34
 -399 606 -399 606 -410 618 c 1,35,-1
 -309 676 l 1,0,1
EndSplineSet
Validated: 33
EndChar

StartChar: adieresis
Encoding: 228 228 139
Width: 0
Flags: W
LayerCount: 2
Fore
SplineSet
-455 -183 m 0,0,1
 -517 -201 -517 -201 -572.5 -232 c 128,-1,2
 -628 -263 -628 -263 -670 -305 c 128,-1,3
 -712 -347 -712 -347 -736.5 -400 c 128,-1,4
 -761 -453 -761 -453 -761 -516 c 0,5,6
 -761 -551 -761 -551 -743.5 -573 c 128,-1,7
 -726 -595 -726 -595 -705 -609 c 0,8,9
 -680 -625 -680 -625 -649 -633 c 1,10,11
 -670 -654 -670 -654 -692 -669 c 0,12,13
 -711 -682 -711 -682 -734 -692 c 128,-1,14
 -757 -702 -757 -702 -777 -698 c 0,15,16
 -784 -697 -784 -697 -793.5 -687.5 c 128,-1,17
 -803 -678 -803 -678 -812 -662 c 128,-1,18
 -821 -646 -821 -646 -827 -623.5 c 128,-1,19
 -833 -601 -833 -601 -833 -574 c 0,20,21
 -833 -518 -833 -518 -813 -467.5 c 128,-1,22
 -793 -417 -793 -417 -760.5 -373.5 c 128,-1,23
 -728 -330 -728 -330 -687 -295 c 128,-1,24
 -646 -260 -646 -260 -604.5 -233.5 c 128,-1,25
 -563 -207 -563 -207 -525 -191 c 128,-1,26
 -487 -175 -487 -175 -460 -170 c 0,27,28
 -452 -168 -452 -168 -450 -174.5 c 128,-1,29
 -448 -181 -448 -181 -455 -183 c 0,0,1
EndSplineSet
Validated: 33
EndChar

StartChar: aring
Encoding: 229 229 140
Width: 0
Flags: W
LayerCount: 2
Fore
SplineSet
-295 -183 m 0,0,1
 -357 -201 -357 -201 -412.5 -232 c 128,-1,2
 -468 -263 -468 -263 -510 -305 c 128,-1,3
 -552 -347 -552 -347 -576.5 -400 c 128,-1,4
 -601 -453 -601 -453 -601 -516 c 0,5,6
 -601 -551 -601 -551 -583.5 -573 c 128,-1,7
 -566 -595 -566 -595 -545 -609 c 0,8,9
 -520 -625 -520 -625 -489 -633 c 1,10,11
 -510 -654 -510 -654 -532 -669 c 0,12,13
 -551 -682 -551 -682 -574 -692 c 128,-1,14
 -597 -702 -597 -702 -617 -698 c 0,15,16
 -624 -697 -624 -697 -633.5 -687.5 c 128,-1,17
 -643 -678 -643 -678 -652 -662 c 128,-1,18
 -661 -646 -661 -646 -667 -623.5 c 128,-1,19
 -673 -601 -673 -601 -673 -574 c 0,20,21
 -673 -518 -673 -518 -653 -467.5 c 128,-1,22
 -633 -417 -633 -417 -600.5 -373.5 c 128,-1,23
 -568 -330 -568 -330 -527 -295 c 128,-1,24
 -486 -260 -486 -260 -444.5 -233.5 c 128,-1,25
 -403 -207 -403 -207 -365 -191 c 128,-1,26
 -327 -175 -327 -175 -300 -170 c 0,27,28
 -292 -168 -292 -168 -290 -174.5 c 128,-1,29
 -288 -181 -288 -181 -295 -183 c 0,0,1
EndSplineSet
Validated: 33
EndChar

StartChar: ae
Encoding: 230 230 141
Width: 0
Flags: W
LayerCount: 2
Fore
SplineSet
-235 -183 m 0,0,1
 -271 -198 -271 -198 -304.5 -225 c 128,-1,2
 -338 -252 -338 -252 -364 -292.5 c 128,-1,3
 -390 -333 -390 -333 -405.5 -386 c 128,-1,4
 -421 -439 -421 -439 -421 -506 c 0,5,6
 -421 -549 -421 -549 -403.5 -573.5 c 128,-1,7
 -386 -598 -386 -598 -365 -612 c 0,8,9
 -340 -628 -340 -628 -309 -633 c 1,10,11
 -330 -654 -330 -654 -352 -669 c 0,12,13
 -371 -682 -371 -682 -394 -692 c 128,-1,14
 -417 -702 -417 -702 -437 -698 c 0,15,16
 -444 -697 -444 -697 -453.5 -687.5 c 128,-1,17
 -463 -678 -463 -678 -472 -662 c 128,-1,18
 -481 -646 -481 -646 -487 -623.5 c 128,-1,19
 -493 -601 -493 -601 -493 -574 c 0,20,21
 -493 -497 -493 -497 -467.5 -427 c 128,-1,22
 -442 -357 -442 -357 -403.5 -302.5 c 128,-1,23
 -365 -248 -365 -248 -321 -213 c 128,-1,24
 -277 -178 -277 -178 -240 -170 c 0,25,26
 -232 -168 -232 -168 -230 -174 c 128,-1,27
 -228 -180 -228 -180 -235 -183 c 0,0,1
EndSplineSet
Validated: 33
EndChar

StartChar: ccedilla
Encoding: 231 231 142
Width: 0
Flags: W
LayerCount: 2
Fore
SplineSet
-105 -183 m 0,0,1
 -130 -198 -130 -198 -156 -225 c 128,-1,2
 -182 -252 -182 -252 -203 -293.5 c 128,-1,3
 -224 -335 -224 -335 -237.5 -390.5 c 128,-1,4
 -251 -446 -251 -446 -251 -516 c 0,5,6
 -251 -559 -251 -559 -232 -582.5 c 128,-1,7
 -213 -606 -213 -606 -190 -617 c 0,8,9
 -164 -630 -164 -630 -129 -633 c 1,10,11
 -150 -654 -150 -654 -172 -669 c 0,12,13
 -191 -682 -191 -682 -214 -692 c 128,-1,14
 -237 -702 -237 -702 -257 -698 c 0,15,16
 -264 -697 -264 -697 -275.5 -690.5 c 128,-1,17
 -287 -684 -287 -684 -297.5 -670.5 c 128,-1,18
 -308 -657 -308 -657 -315.5 -636 c 128,-1,19
 -323 -615 -323 -615 -323 -584 c 0,20,21
 -323 -503 -323 -503 -299.5 -431 c 128,-1,22
 -276 -359 -276 -359 -242 -303.5 c 128,-1,23
 -208 -248 -208 -248 -172 -213 c 128,-1,24
 -136 -178 -136 -178 -110 -170 c 0,25,26
 -102 -168 -102 -168 -100.5 -173.5 c 128,-1,27
 -99 -179 -99 -179 -105 -183 c 0,0,1
EndSplineSet
Validated: 33
EndChar

StartChar: egrave
Encoding: 232 232 143
Width: 0
Flags: W
LayerCount: 2
Fore
SplineSet
-647 640 m 2,0,1
 -727 640 -727 640 -727 709 c 0,2,3
 -727 728 -727 728 -713 750 c 128,-1,4
 -699 772 -699 772 -679 792.5 c 128,-1,5
 -659 813 -659 813 -636.5 831 c 128,-1,6
 -614 849 -614 849 -597 860 c 0,7,8
 -595 862 -595 862 -590.5 863.5 c 128,-1,9
 -586 865 -586 865 -584 865 c 256,10,11
 -582 865 -582 865 -593 852.5 c 128,-1,12
 -604 840 -604 840 -618 823 c 128,-1,13
 -632 806 -632 806 -644 787.5 c 128,-1,14
 -656 769 -656 769 -656 756 c 0,15,16
 -656 723 -656 723 -631 715 c 128,-1,17
 -606 707 -606 707 -564 707 c 2,18,-1
 -233 707 l 2,19,20
 -153 707 -153 707 -153 638 c 0,21,22
 -153 618 -153 618 -167 596.5 c 128,-1,23
 -181 575 -181 575 -201 554.5 c 128,-1,24
 -221 534 -221 534 -243.5 516 c 128,-1,25
 -266 498 -266 498 -283 487 c 0,26,27
 -285 485 -285 485 -289.5 483.5 c 128,-1,28
 -294 482 -294 482 -296 482 c 256,29,30
 -298 482 -298 482 -287 494 c 128,-1,31
 -276 506 -276 506 -262 523.5 c 128,-1,32
 -248 541 -248 541 -236 559.5 c 128,-1,33
 -224 578 -224 578 -224 591 c 0,34,35
 -224 624 -224 624 -249 632 c 128,-1,36
 -274 640 -274 640 -316 640 c 2,37,-1
 -647 640 l 2,0,1
EndSplineSet
Validated: 1
EndChar

StartChar: eacute
Encoding: 233 233 144
Width: 0
Flags: W
LayerCount: 2
Fore
SplineSet
-537 640 m 2,0,1
 -617 640 -617 640 -617 709 c 0,2,3
 -617 724 -617 724 -601 750.5 c 128,-1,4
 -585 777 -585 777 -564.5 802.5 c 128,-1,5
 -544 828 -544 828 -526 846.5 c 128,-1,6
 -508 865 -508 865 -504 865 c 0,7,8
 -502 865 -502 865 -508 852.5 c 128,-1,9
 -514 840 -514 840 -522.5 823 c 128,-1,10
 -531 806 -531 806 -538.5 787.5 c 128,-1,11
 -546 769 -546 769 -546 756 c 0,12,13
 -546 723 -546 723 -521 715 c 128,-1,14
 -496 707 -496 707 -454 707 c 2,15,-1
 -263 707 l 2,16,17
 -183 707 -183 707 -183 638 c 0,18,19
 -183 623 -183 623 -199.5 596.5 c 128,-1,20
 -216 570 -216 570 -236 544.5 c 128,-1,21
 -256 519 -256 519 -274 500.5 c 128,-1,22
 -292 482 -292 482 -296 482 c 0,23,24
 -298 482 -298 482 -292 494 c 128,-1,25
 -286 506 -286 506 -277.5 523.5 c 128,-1,26
 -269 541 -269 541 -261.5 559.5 c 128,-1,27
 -254 578 -254 578 -254 591 c 0,28,29
 -254 624 -254 624 -279 632 c 128,-1,30
 -304 640 -304 640 -346 640 c 2,31,-1
 -537 640 l 2,0,1
EndSplineSet
Validated: 1
EndChar

StartChar: ecircumflex
Encoding: 234 234 145
Width: 0
Flags: W
LayerCount: 2
Fore
SplineSet
-337 640 m 2,0,1
 -417 640 -417 640 -417 709 c 0,2,3
 -417 724 -417 724 -401 750.5 c 128,-1,4
 -385 777 -385 777 -364.5 802.5 c 128,-1,5
 -344 828 -344 828 -326 846.5 c 128,-1,6
 -308 865 -308 865 -304 865 c 0,7,8
 -302 865 -302 865 -308 852.5 c 128,-1,9
 -314 840 -314 840 -322.5 823 c 128,-1,10
 -331 806 -331 806 -338.5 787.5 c 128,-1,11
 -346 769 -346 769 -346 756 c 0,12,13
 -346 723 -346 723 -321 715 c 128,-1,14
 -296 707 -296 707 -254 707 c 2,15,-1
 -63 707 l 2,16,17
 17 707 17 707 17 638 c 0,18,19
 17 623 17 623 0.5 596.5 c 128,-1,20
 -16 570 -16 570 -36 544.5 c 128,-1,21
 -56 519 -56 519 -74 500.5 c 128,-1,22
 -92 482 -92 482 -96 482 c 0,23,24
 -98 482 -98 482 -92 494 c 128,-1,25
 -86 506 -86 506 -77.5 523.5 c 128,-1,26
 -69 541 -69 541 -61.5 559.5 c 128,-1,27
 -54 578 -54 578 -54 591 c 0,28,29
 -54 624 -54 624 -79 632 c 128,-1,30
 -104 640 -104 640 -146 640 c 2,31,-1
 -337 640 l 2,0,1
EndSplineSet
Validated: 1
EndChar

StartChar: igrave
Encoding: 236 236 146
Width: 0
Flags: W
LayerCount: 2
Fore
SplineSet
-51 956 m 1,0,1
 -56 941 -56 941 -75.5 926 c 128,-1,2
 -95 911 -95 911 -116 898 c 0,3,4
 -141 883 -141 883 -171 870 c 1,5,-1
 -711 870 l 2,6,7
 -762 870 -762 870 -802 866.5 c 128,-1,8
 -842 863 -842 863 -859 858 c 1,9,10
 -854 872 -854 872 -834.5 887.5 c 128,-1,11
 -815 903 -815 903 -794 916 c 0,12,13
 -769 931 -769 931 -739 944 c 1,14,-1
 -199 944 l 2,15,16
 -148 944 -148 944 -108 947.5 c 128,-1,17
 -68 951 -68 951 -51 956 c 1,0,1
EndSplineSet
Validated: 1
EndChar

StartChar: idieresis
Encoding: 239 239 147
Width: 0
Flags: W
LayerCount: 2
Fore
SplineSet
-30 -319 m 1,0,1
 -35 -334 -35 -334 -54.5 -349 c 128,-1,2
 -74 -364 -74 -364 -95 -377 c 0,3,4
 -120 -392 -120 -392 -150 -405 c 1,5,-1
 -409 -405 l 2,6,7
 -460 -405 -460 -405 -500 -408.5 c 128,-1,8
 -540 -412 -540 -412 -557 -417 c 1,9,10
 -552 -403 -552 -403 -532.5 -387.5 c 128,-1,11
 -513 -372 -513 -372 -492 -359 c 0,12,13
 -467 -344 -467 -344 -437 -331 c 1,14,-1
 -178 -331 l 2,15,16
 -127 -331 -127 -331 -87 -327.5 c 128,-1,17
 -47 -324 -47 -324 -30 -319 c 1,0,1
EndSplineSet
Validated: 1
EndChar

StartChar: ntilde
Encoding: 241 241 148
Width: 631
Flags: W
LayerCount: 2
Fore
SplineSet
458 117 m 0,0,1
 461 119 461 119 467 119.5 c 128,-1,2
 473 120 473 120 476 116 c 256,3,4
 479 112 479 112 477.5 105.5 c 128,-1,5
 476 99 476 99 472 96 c 0,6,7
 394 34 394 34 335 7 c 128,-1,8
 276 -20 276 -20 236 -20 c 0,9,10
 208 -20 208 -20 181.5 -6 c 128,-1,11
 155 8 155 8 134 30 c 128,-1,12
 113 52 113 52 100.5 79.5 c 128,-1,13
 88 107 88 107 88 134 c 2,14,-1
 88 337 l 1,15,-1
 0 337 l 1,16,17
 4 357 4 357 15.5 379 c 128,-1,18
 27 401 27 401 41.5 420.5 c 128,-1,19
 56 440 56 440 70 455 c 128,-1,20
 84 470 84 470 94 477 c 1,21,22
 105 449 105 449 122 438 c 128,-1,23
 139 427 139 427 169 427 c 2,24,-1
 321 427 l 2,25,26
 410 427 410 427 478 429.5 c 128,-1,27
 546 432 546 432 590 443 c 1,28,29
 585 428 585 428 572 410 c 128,-1,30
 559 392 559 392 545 375 c 0,31,32
 529 356 529 356 510 337 c 1,33,-1
 190 337 l 1,34,-1
 190 212 l 2,35,36
 190 178 190 178 202 149 c 128,-1,37
 214 120 214 120 235 99 c 128,-1,38
 256 78 256 78 284 66 c 128,-1,39
 312 54 312 54 343 54 c 0,40,41
 353 54 353 54 363 56 c 128,-1,42
 373 58 373 58 386 65 c 128,-1,43
 399 72 399 72 416.5 84 c 128,-1,44
 434 96 434 96 458 117 c 0,0,1
EndSplineSet
Validated: 1
EndChar

StartChar: ograve
Encoding: 242 242 149
Width: 857
Flags: W
LayerCount: 2
Fore
SplineSet
513 -20 m 0,0,1
 481 -20 481 -20 450.5 -2 c 128,-1,2
 420 16 420 16 399 43 c 1,3,4
 347 11 347 11 306.5 -4.5 c 128,-1,5
 266 -20 266 -20 236 -20 c 0,6,7
 208 -20 208 -20 181.5 -6 c 128,-1,8
 155 8 155 8 134 30 c 128,-1,9
 113 52 113 52 100.5 79.5 c 128,-1,10
 88 107 88 107 88 134 c 2,11,-1
 88 337 l 1,12,-1
 0 337 l 1,13,14
 4 357 4 357 15.5 379 c 128,-1,15
 27 401 27 401 41.5 420.5 c 128,-1,16
 56 440 56 440 70 455 c 128,-1,17
 84 470 84 470 94 477 c 1,18,19
 105 449 105 449 122 438 c 128,-1,20
 139 427 139 427 169 427 c 2,21,-1
 371 427 l 2,22,23
 400 427 400 427 440.5 427 c 128,-1,24
 481 427 481 427 525 428 c 128,-1,25
 569 429 569 429 614.5 430 c 128,-1,26
 660 431 660 431 699 432.5 c 128,-1,27
 738 434 738 434 768 436.5 c 128,-1,28
 798 439 798 439 813 443 c 1,29,30
 808 428 808 428 795 410 c 128,-1,31
 782 392 782 392 768 375 c 0,32,33
 752 356 752 356 733 337 c 1,34,-1
 467 337 l 1,35,-1
 467 212 l 2,36,37
 467 178 467 178 479 149 c 128,-1,38
 491 120 491 120 512 99 c 128,-1,39
 533 78 533 78 561 66 c 128,-1,40
 589 54 589 54 620 54 c 0,41,42
 630 54 630 54 640 56 c 128,-1,43
 650 58 650 58 663 65 c 128,-1,44
 676 72 676 72 693.5 84 c 128,-1,45
 711 96 711 96 735 117 c 0,46,47
 738 119 738 119 744 119.5 c 128,-1,48
 750 120 750 120 753 116 c 256,49,50
 756 112 756 112 754.5 105.5 c 128,-1,51
 753 99 753 99 749 96 c 0,52,53
 671 34 671 34 612 7 c 128,-1,54
 553 -20 553 -20 513 -20 c 0,0,1
190 212 m 2,55,56
 190 178 190 178 202 149 c 128,-1,57
 214 120 214 120 235 99 c 128,-1,58
 256 78 256 78 284 66 c 128,-1,59
 312 54 312 54 343 54 c 0,60,61
 352 54 352 54 362 56 c 128,-1,62
 372 58 372 58 385 64 c 1,63,64
 365 98 365 98 365 134 c 2,65,-1
 365 337 l 1,66,-1
 190 337 l 1,67,-1
 190 212 l 2,55,56
EndSplineSet
Validated: 1
EndChar

StartChar: oacute
Encoding: 243 243 150
Width: 1132
Flags: W
LayerCount: 2
Fore
SplineSet
646 427 m 2,0,1
 675 427 675 427 715.5 427 c 128,-1,2
 756 427 756 427 800 428 c 128,-1,3
 844 429 844 429 889.5 430 c 128,-1,4
 935 431 935 431 974 432.5 c 128,-1,5
 1013 434 1013 434 1043 436.5 c 128,-1,6
 1073 439 1073 439 1088 443 c 1,7,8
 1083 428 1083 428 1070 410 c 128,-1,9
 1057 392 1057 392 1043 375 c 0,10,11
 1027 356 1027 356 1008 337 c 1,12,-1
 742 337 l 1,13,-1
 742 212 l 2,14,15
 742 178 742 178 754 149 c 128,-1,16
 766 120 766 120 787 99 c 128,-1,17
 808 78 808 78 836 66 c 128,-1,18
 864 54 864 54 895 54 c 0,19,20
 905 54 905 54 915 56 c 128,-1,21
 925 58 925 58 938 65 c 128,-1,22
 951 72 951 72 968.5 84 c 128,-1,23
 986 96 986 96 1010 117 c 0,24,25
 1013 119 1013 119 1019 119.5 c 128,-1,26
 1025 120 1025 120 1028 116 c 256,27,28
 1031 112 1031 112 1029.5 105.5 c 128,-1,29
 1028 99 1028 99 1024 96 c 0,30,31
 946 34 946 34 887 7 c 128,-1,32
 828 -20 828 -20 788 -20 c 0,33,34
 756 -20 756 -20 726 -2.5 c 128,-1,35
 696 15 696 15 674 43 c 1,36,37
 623 10 623 10 582 -5 c 128,-1,38
 541 -20 541 -20 512 -20 c 0,39,40
 480 -20 480 -20 450 -2.5 c 128,-1,41
 420 15 420 15 398 43 c 1,42,43
 347 10 347 10 306 -5 c 128,-1,44
 265 -20 265 -20 236 -20 c 0,45,46
 208 -20 208 -20 181.5 -6 c 128,-1,47
 155 8 155 8 134 30 c 128,-1,48
 113 52 113 52 100.5 79.5 c 128,-1,49
 88 107 88 107 88 134 c 2,50,-1
 88 337 l 1,51,-1
 0 337 l 1,52,53
 4 357 4 357 15.5 379 c 128,-1,54
 27 401 27 401 41.5 420.5 c 128,-1,55
 56 440 56 440 70 455 c 128,-1,56
 84 470 84 470 94 477 c 1,57,58
 105 449 105 449 122 438 c 128,-1,59
 139 427 139 427 169 427 c 2,60,-1
 646 427 l 2,0,1
619 54 m 0,61,62
 628 54 628 54 638 56 c 128,-1,63
 648 58 648 58 660 64 c 1,64,65
 640 98 640 98 640 134 c 2,66,-1
 640 337 l 1,67,-1
 466 337 l 1,68,-1
 466 212 l 2,69,70
 466 178 466 178 478 149 c 128,-1,71
 490 120 490 120 511 99 c 128,-1,72
 532 78 532 78 560 66 c 128,-1,73
 588 54 588 54 619 54 c 0,61,62
343 54 m 0,74,75
 352 54 352 54 362 56 c 128,-1,76
 372 58 372 58 384 64 c 1,77,78
 364 98 364 98 364 134 c 2,79,-1
 364 337 l 1,80,-1
 190 337 l 1,81,-1
 190 212 l 2,82,83
 190 178 190 178 202 149 c 128,-1,84
 214 120 214 120 235 99 c 128,-1,85
 256 78 256 78 284 66 c 128,-1,86
 312 54 312 54 343 54 c 0,74,75
EndSplineSet
Validated: 1
EndChar

StartChar: ocircumflex
Encoding: 244 244 151
Width: 633
Flags: W
LayerCount: 2
Fore
SplineSet
50 670 m 2,0,1
 50 700 50 700 39.5 722 c 128,-1,2
 29 744 29 744 0 755 c 1,3,4
 15 768 15 768 33 783 c 128,-1,5
 51 798 51 798 71 810.5 c 128,-1,6
 91 823 91 823 111.5 832.5 c 128,-1,7
 132 842 132 842 152 845 c 1,8,-1
 152 103 l 2,9,10
 152 22 152 22 179 -30 c 128,-1,11
 206 -82 206 -82 244.5 -112.5 c 128,-1,12
 283 -143 283 -143 325.5 -155 c 128,-1,13
 368 -167 368 -167 400 -167 c 0,14,15
 418 -167 418 -167 438.5 -160.5 c 128,-1,16
 459 -154 459 -154 476 -142 c 128,-1,17
 493 -130 493 -130 504.5 -113 c 128,-1,18
 516 -96 516 -96 516 -75 c 256,19,20
 516 -54 516 -54 506.5 -30 c 128,-1,21
 497 -6 497 -6 485 10 c 1,22,-1
 560 46 l 1,23,24
 570 35 570 35 578 24 c 0,25,26
 585 15 585 15 590.5 5 c 128,-1,27
 596 -5 596 -5 596 -12 c 0,28,29
 596 -38 596 -38 580 -65 c 128,-1,30
 564 -92 564 -92 538 -117.5 c 128,-1,31
 512 -143 512 -143 479 -165.5 c 128,-1,32
 446 -188 446 -188 412 -204.5 c 128,-1,33
 378 -221 378 -221 346 -230.5 c 128,-1,34
 314 -240 314 -240 290 -240 c 0,35,36
 277 -240 277 -240 254.5 -235.5 c 128,-1,37
 232 -231 232 -231 205 -219.5 c 128,-1,38
 178 -208 178 -208 150.5 -188.5 c 128,-1,39
 123 -169 123 -169 100.5 -139 c 128,-1,40
 78 -109 78 -109 63.5 -68.5 c 128,-1,41
 49 -28 49 -28 49 27 c 2,42,-1
 50 670 l 2,0,1
EndSplineSet
Validated: 1
EndChar

StartChar: otilde
Encoding: 245 245 152
Width: 865
Flags: W
LayerCount: 2
Fore
SplineSet
50 670 m 2,0,1
 50 700 50 700 39.5 722 c 128,-1,2
 29 744 29 744 0 755 c 1,3,4
 15 768 15 768 33 783 c 128,-1,5
 51 798 51 798 71 810.5 c 128,-1,6
 91 823 91 823 111.5 832.5 c 128,-1,7
 132 842 132 842 152 845 c 1,8,-1
 152 427 l 1,9,-1
 560 427 l 2,10,11
 649 427 649 427 717 429.5 c 128,-1,12
 785 432 785 432 829 443 c 1,13,14
 824 428 824 428 811 410 c 128,-1,15
 798 392 798 392 784 375 c 0,16,17
 768 356 768 356 749 337 c 1,18,-1
 429 337 l 1,19,-1
 429 212 l 2,20,21
 429 178 429 178 441 149 c 128,-1,22
 453 120 453 120 474 99 c 128,-1,23
 495 78 495 78 523 66 c 128,-1,24
 551 54 551 54 582 54 c 0,25,26
 592 54 592 54 602 56 c 128,-1,27
 612 58 612 58 625 65 c 128,-1,28
 638 72 638 72 655.5 84 c 128,-1,29
 673 96 673 96 697 117 c 0,30,31
 700 119 700 119 706 119.5 c 128,-1,32
 712 120 712 120 715 116 c 256,33,34
 718 112 718 112 716.5 105.5 c 128,-1,35
 715 99 715 99 711 96 c 0,36,37
 640 40 640 40 586 13 c 1,38,39
 596 -2 596 -2 596 -12 c 0,40,41
 596 -38 596 -38 580 -65 c 128,-1,42
 564 -92 564 -92 538 -117.5 c 128,-1,43
 512 -143 512 -143 479 -165.5 c 128,-1,44
 446 -188 446 -188 412 -204.5 c 128,-1,45
 378 -221 378 -221 346 -230.5 c 128,-1,46
 314 -240 314 -240 290 -240 c 0,47,48
 277 -240 277 -240 254.5 -235.5 c 128,-1,49
 232 -231 232 -231 205 -219.5 c 128,-1,50
 178 -208 178 -208 150.5 -188.5 c 128,-1,51
 123 -169 123 -169 100.5 -139 c 128,-1,52
 78 -109 78 -109 63.5 -68.5 c 128,-1,53
 49 -28 49 -28 49 27 c 2,54,-1
 50 670 l 2,0,1
152 337 m 1,55,-1
 152 103 l 2,56,57
 152 22 152 22 179 -30 c 128,-1,58
 206 -82 206 -82 244.5 -112.5 c 128,-1,59
 283 -143 283 -143 325.5 -155 c 128,-1,60
 368 -167 368 -167 400 -167 c 0,61,62
 418 -167 418 -167 438.5 -160.5 c 128,-1,63
 459 -154 459 -154 476 -142 c 128,-1,64
 493 -130 493 -130 504.5 -113 c 128,-1,65
 516 -96 516 -96 516 -75 c 0,66,67
 516 -61 516 -61 512 -46 c 128,-1,68
 508 -31 508 -31 501 -17 c 1,69,70
 487 -20 487 -20 475 -20 c 0,71,72
 447 -20 447 -20 420.5 -6 c 128,-1,73
 394 8 394 8 373 30 c 128,-1,74
 352 52 352 52 339.5 79.5 c 128,-1,75
 327 107 327 107 327 134 c 2,76,-1
 327 337 l 1,77,-1
 152 337 l 1,55,-1
EndSplineSet
Validated: 1
EndChar

